<?xml version="1.0" standalone="no"?>
<!DOCTYPE svg PUBLIC "-//W3C//DTD SVG 1.1//EN" "http://www.w3.org/Graphics/SVG/1.1/DTD/svg11.dtd" >
<svg xmlns="http://www.w3.org/2000/svg">
<metadata></metadata>
<defs>
<font id="creepygirllightoblique" horiz-adv-x="219" >
<font-face units-per-em="2048" ascent="1638" descent="-410" />
<missing-glyph horiz-adv-x="632" />
<glyph horiz-adv-x="2048" />
<glyph horiz-adv-x="2048" />
<glyph unicode="&#xd;" horiz-adv-x="632" />
<glyph unicode=" "  horiz-adv-x="632" />
<glyph unicode="&#x09;" horiz-adv-x="632" />
<glyph unicode="&#xa0;" horiz-adv-x="632" />
<glyph unicode="!" d="M-160 -215q10 37 103 80l-86 -146l-2 5q-23 27 -15 61zM-53 98q0 94 73 342q57 178 115 357q45 143 51 182q29 156 58 311q31 182 32 314q78 -100 74 -123q-66 -215 -129 -432q-74 -260 -74 -445q0 -80 19 -137q-94 -66 -143 -164q-23 -43 -76 -205z" />
<glyph unicode="&#x22;" horiz-adv-x="430" d="M49 1298q18 72 17 146q0 23 4 33q8 37 102 79q-8 -16 -123 -258zM246 1282q18 72 16 145q0 23 2 33q10 37 105 80q-8 -16 -123 -258z" />
<glyph unicode="#" horiz-adv-x="1148" d="M-18 463q129 0 405 2q10 16 16 27l33 131q-37 -25 -53 -37q-123 90 -299 90q-35 0 -72 -4q141 43 451 47l78 305q-33 -12 -62 -41l-10 -10l27 98q37 14 116 49l-104 -401h178q-18 66 -41 90q156 176 195 393q8 -133 -84 -483l442 -2q-53 -72 -78 -105h-98h2l10 6 q33 23 53 54l-344 2q-20 -80 -55 -209q156 0 232 -6q141 -10 223 -41q-35 4 -70 4q-176 0 -348 -90q-14 23 -59 57l-97 -358q-63 33 -92 49l27 98v-2l4 -8q14 -29 41 -41l78 283q-14 8 -27 12l-172 -2q-94 -338 -174 -473q45 125 45 233q0 84 -27 162q31 20 80 78l-284 -2 q2 -31 24 -53l8 -7h-98q-6 33 -20 105zM440 465h203l53 194l-2 15l-137 2q-31 -10 -68 -27z" />
<glyph unicode="$" horiz-adv-x="886" d="M-115 -336q61 139 178 418q10 25 -26 31q-45 0 -131 6q61 8 160 24q59 14 104 84q98 158 199 398q-152 -20 -168 -21q-70 0 -99 12q-41 16 -41 68q0 25 9 57q37 133 190 222q92 53 275 104q49 135 143 303q-14 -59 -21 -119q-8 -66 -45 -159q135 53 402 163 q-115 -154 -170 -337l-2 -9l20 -2l2 8q10 33 10 82q-2 117 -65 117q-33 0 -207 -49q-61 -156 -174 -397l258 14q70 0 109 -48t39 -112q0 -25 -7 -45q-39 -152 -247 -227q-56 -21 -353 -82q-2 -2 -8 -2q-57 -16 -92 -78q-27 -55 -52.5 -113.5t-57 -108.5t-132.5 -202z M154 754q0 -90 143 -92h28.5h18.5q8 0 39 2q43 104 141 376q-161 -51 -241 -90q-39 -20 -76 -71.5t-47 -87.5q-6 -20 -6 -37zM213 195q-16 -49 4 -50q4 2 14 5q16 10 13 40q0 8 4 9q115 0 252 43q209 68 241 196q10 35 11 64q0 123 -160 139q-25 2 -70 2q-16 0 -110 -12 l-156 -336q-31 -68 -43 -100z" />
<glyph unicode="%" horiz-adv-x="827" d="M-231 -2q63 117 235 309q137 145 277 293q111 123 137 158q113 152 325 459q6 6 7 14q0 29 -64 57q-45 16 -174 82l59 -76q-2 -37 -59 -178q-74 -174 -160 -287q-115 -150 -231 -149q-90 0 -90 127q0 63 24 154q31 119 123 237q129 170 285 170q37 0 78 -31v19 q55 -4 200 -53q33 -10 54 -13q33 2 168 49q-52 -55 -156 -159q-260 -250 -428 -492q-270 -391 -143 -567q2 78 12 129q4 25 12 57q33 119 123 238q129 170 285 170q41 0 65 -23q8 -6 43 -51q0 -37 -59 -178q-72 -174 -158 -287q-117 -150 -233 -149q-90 0 -88 131 q-66 53 -138 53q-74 0 -155 -55q-63 -41 -176 -158zM70 858q0 -111 84 -123q102 57 212.5 188.5t133.5 215.5q8 33 12 137q0 16 4 35q-197 -18 -321 -158q-84 -94 -113 -207q-12 -45 -12 -88zM225 137q10 -12 25 -24l18 16q-14 15 -26 25zM274 205q0 -111 84 -123 q102 57 214 188t135 215q8 34 10 138q0 16 6 34q-199 -18 -324 -157q-82 -94 -112 -207q-12 -45 -13 -88z" />
<glyph unicode="&#x26;" horiz-adv-x="980" d="M20 373q0 201 207 348q221 156 557 156l16 -1q17 -2 29 1q59 0 105 18q94 35 119 131q6 25 6 47q0 133 -189 234q-162 86 -292 86q-31 0 -35 -43q-6 -55 28 -248q59 -317 265 -1157l47 -195q14 -59 18 -74q-43 -199 -72 -315q-8 -33 -26 -88q4 -18 14 -18q12 0 25 22 q-5 20 28 231q8 137 -16 207q-18 31 -51 117q-72 217 -230 956q-57 276 -137 664q74 -35 213 -74q156 -43 217 -67q240 -96 240 -260q0 -37 -12 -78q-25 -92 -78 -123q-35 -18 -115 -19q-184 0 -336 -45q-180 -53 -301 -168q-139 -133 -139 -305q0 -158 125 -262 q135 -113 364 -112q20 0 62.5 10t62.5 10q55 0 179 80q-39 -104 -123 -285q-90 -197 -125 -282l14 131q4 29 4 55q0 182 -172 236q-248 78 -379 212q-117 121 -117 267z" />
<glyph unicode="'" d="M59 1305q18 72 17 145q0 23 2 33q10 37 104 80q-8 -16 -123 -258z" />
<glyph unicode="(" horiz-adv-x="399" d="M-174 -174q162 223 340 858q121 469 244 938q4 20 125 92q80 45 159 90l17 13q-158 -190 -303 -527q-92 -217 -197 -577q-137 -465 -178 -582q-20 -61 -15 -186q4 -49 23 -213q14 -131 14 -211q0 -106 -24 -166q4 109 -62 239q-41 84 -143 232z" />
<glyph unicode=")" horiz-adv-x="399" d="M-242 -645q10 84 138 293q96 150 190 297q76 125 86 186q29 150 107 463q76 303 106 463q47 258 47 473q0 170 -35 287l11 -13l110 -90q82 -72 78 -92l-242 -844q-147 -547 -147 -844q0 -63 10 -108q-375 -305 -459 -471z" />
<glyph unicode="*" horiz-adv-x="1148" d="M76 246q55 86 141 166q80 72 356 284l-118 174q-18 -27 -27 -77l-51 69q23 35 69 109q63 -76 183 -223q88 59 280 198q8 -74 13 -108l-88 -70q18 51 14 76l-191 -142q150 -199 191 -266q47 -80 57 -164q-94 176 -289 228q14 47 -16 182l-29 -41q-72 -100 -86 -166 q-219 -51 -409 -229zM496 342l178 674l-29 -271z" />
<glyph unicode="+" horiz-adv-x="1148" d="M121 672q115 6 334 12q33 94 100 303q63 -35 92 -49l-26 -98v2l-5 8q-14 27 -41 39l-63 -207q289 4 279 4q178 -6 272 -51q-43 4 -84 4q-174 0 -348 -90q-23 33 -154 82l6 -41q10 -104 49 -148q-160 -182 -194 -409q-8 45 -8 82q0 96 112 503l-237 7q4 -31 26 -52l9 -8 h-99q-6 35 -20 107z" />
<glyph unicode="," d="M74 -94q18 72 14 145q0 20 4 33q8 37 103 80q-8 -18 -121 -258z" />
<glyph unicode="-" horiz-adv-x="1148" d="M53 717l731 4q131 -4 209 -41q-41 4 -82 4q-174 0 -348 -90q-33 57 -125 90l-301 -14q4 -29 27 -52l8 -6h-98q-6 33 -21 105z" />
<glyph unicode="." d="M68 84q10 37 102 80l-86 -146l-2 5q-23 27 -14 61z" />
<glyph unicode="/" horiz-adv-x="677" d="M-227 -2q63 119 235 309q139 147 277 293q111 123 137 158q104 141 209 284q121 168 190 295q2 -70 2 -77q0 -66 -14 -80q-193 -221 -385 -443q-248 -303 -293 -481q-147 -27 -313 -209z" />
<glyph unicode="0" horiz-adv-x="688" d="M-45 162q47 33 106 104q-12 94 -12 213q0 240 27 342q33 123 94 244q121 236 258 235q102 0 164 -163l55 106l10 -110q-18 -33 -45 -76q23 -121 23 -283q0 -252 -35 -379q-37 -137 -115 -245q-109 -147 -245 -148q-104 0 -160 176q-49 -94 -74 -151q-16 61 -51 135z M145 662q-6 -145 2 -283q176 256 426 723q-39 135 -131 135t-192 -203q-66 -129 -90 -223q-10 -33 -15 -149zM156 315q35 -248 143 -247q109 0 188 182q27 61 64 199q45 168 45 442q0 70 -6 129q-150 -231 -434 -705z" />
<glyph unicode="1" horiz-adv-x="329" d="M-49 -342q-2 98 67 319q57 166 113 330q45 137 57 195q33 156 68 311q43 193 43 313q2 27 -16 27q-14 0 -64 -35l-8 -6q98 207 125 299q86 -160 78 -190q-63 -211 -127 -420q-74 -252 -74 -430q0 -90 18 -174q-115 -96 -182 -248q-16 -37 -98 -291z" />
<glyph unicode="2" horiz-adv-x="886" d="M16 10q272 127 492 262q365 227 410 396q4 18 4 43q0 96 -56 125q-76 39 -252 26q-55 -4 -129 -14q-66 -8 -71 -8q-59 0 -115 -105q-47 -90 -53 -162q51 203 51 232q0 76 -31 123q57 -10 171 -15.5t171 -17.5q33 -4 113 -16q268 -39 268 -195q0 -29 -8 -66 q-63 -233 -406 -417q-178 -95 -389 -158l428 8q20 0 62.5 9.5t62.5 9.5q53 0 92 22q-104 -295 -167 -522l16 168q20 197 -176 272q-29 10 -488 0z" />
<glyph unicode="3" horiz-adv-x="776" d="M-127 -203q47 184 119 479q279 -279 526 -458q20 68 21 137q0 143 -88 332q-84 152 -168 305q-68 129 -95 213q63 -4 136 -41l122 -70q27 -14 97 -22l8 -2h6q14 0 37 28q-4 131 -78 260q-43 61 -119 187q-35 -43 -57 -78l45 174q25 -55 78 -141q63 -102 82 -139 q74 -139 73 -252q0 -45 -12 -91q-61 -6 -113.5 14.5t-101.5 41.5q-33 10 -69 -4q84 -170 165 -338q86 -195 86 -365q0 -111 -34 -219q-68 8 -213 137q-154 137 -242 138q-135 0 -211 -226z" />
<glyph unicode="4" horiz-adv-x="706" d="M119 860q575 406 725 526q-96 -201 -252 -665q0 -4 63 -184q12 -29 11 -33q6 -2 10 8q-10 4 -49 47q-18 20 -52 49q-16 8 -22 -10l-41 -119q-20 -55 -47 -194l-51 -258q-59 -283 -117 -392q18 86 39 172q20 100 20 175q0 117 -53 194q147 274 148 432q0 129 -99 189 q-76 47 -233 63zM203 885l252 -25l120 -78l138 435z" />
<glyph unicode="5" horiz-adv-x="886" d="M-162 -152l66 244q53 -31 266 -43q301 -16 412 37q37 18 74.5 69.5t48.5 90.5q6 27 6 59q0 176 -226 463q-131 168 -297 326q674 33 773 45l-15 -385l21 8q-7 61 -17 139q-18 131 -53 131q-20 0 -58 9.5t-57 9.5q-59 0 -391 6q115 -88 217 -211q199 -238 199 -447 q0 -53 -14 -104q-57 -213 -398 -260q-88 -12 -221 -29q-233 -31 -336 -158z" />
<glyph unicode="6" horiz-adv-x="733" d="M-94 63q0 27 10 66q20 72 79.5 189.5t108.5 179.5q244 305 641 518q-297 -193 -569 -527q31 12 186 78q104 47 148 47q152 0 152 -108q0 -23 -7 -51q-39 -143 -293 -303q-244 -154 -399 -154q-57 0 -57 65zM-12 154q-16 -61 32 -62q14 0 39 8q143 41 295 136 q190 117 221 229q4 12 5 22q-1 62 -97 62q-104 0 -299 -78q-170 -215 -196 -317z" />
<glyph unicode="7" horiz-adv-x="991" d="M94 -365q20 102 137 324q90 162 181 324q76 139 98 194q25 63 235 342q201 266 222 359q4 14 -29 18q-35 4 -90 -4q-82 -12 -258 -49l-258 -56q-23 -4 -39 -6q741 242 895 332q-82 -190 -103 -233q-55 -117 -163 -260q-96 -121 -193 -242q-238 -303 -237 -502 q-135 -94 -234 -246q-27 -41 -164 -295z" />
<glyph unicode="8" horiz-adv-x="886" d="M-43 121q0 74 176 262q147 162 364.5 341t391.5 288q-106 -104 -383 -359l-293 -272q-137 -129 -146.5 -149.5t-9.5 -34.5q0 -25 49 -25q119 0 310 57q268 80 301 209q10 35 10 64q0 123 -160 139q-25 2 -69 2q-18 0 -162 -18l-103 -15q-47 -6 -59 -6q-68 0 -96 12 q-41 16 -41 68q0 25 8 57q55 207 434 318l72 20q37 12 55 19q100 45 406 45q-119 -142 -344 -363l16 -8q2 4 41 55q59 78 78 103q45 66 63 108q25 57 -14 58q-49 0 -254 -45q-240 -51 -340 -101q-39 -20 -77 -71.5t-46 -87.5q-6 -20 -6 -37q0 -90 143 -92h28.5h18.5 q18 0 170 10t170 10q72 0 111 -48t39 -112q0 -147 -201 -262q-133 -78 -327 -127q-49 -10 -107 -24q-98 -31 -151 -31q-66 0 -66 43z" />
<glyph unicode="9" horiz-adv-x="886" d="M-117 117q104 131 297 411q147 213 314 369q-113 -8 -129 -8q-70 0 -113 51q-37 45 -37 109q0 147 201 262q135 78 327 127q49 10 109 24q98 33 152 33q63 0 63 -45q0 -76 -174 -262q-109 -118 -236 -227q-170 -150 -370 -379l-344 -402q-35 -39 -60 -63zM297 1069 q0 -123 158 -139q25 -2 73 -2l289 266q133 125 141.5 145.5t8.5 34.5q0 25 -49 25q-119 0 -310 -58q-266 -80 -301 -208q-10 -35 -10 -64z" />
<glyph unicode=":" d="M-16 84q10 37 102 80l-86 -146l-2 5q-23 27 -14 61zM195 774q10 37 102 80l-86 -145l-2 4q-23 27 -14 61z" />
<glyph unicode=";" d="M-20 -94q18 72 16 145q0 20 4 33q8 37 102 80q-7 -18 -122 -258zM211 774q10 37 102 80l-86 -145l-4 4q-23 27 -12 61z" />
<glyph unicode="&#x3c;" horiz-adv-x="839" d="M129 578q94 43 279 133q178 96 256 239q27 -104 63 -153q-195 -12 -530 -234q295 -106 391 -835q10 -53 26 -162q-154 0 -254 14l-2 -18q16 8 47 10t44 6q51 20 79 129q20 80 2 215q-31 207 -79 326q-70 170 -203 260q-29 18 -119 70z" />
<glyph unicode="=" horiz-adv-x="1148" d="M-6 463l731 4q131 -4 209 -41q-41 4 -82 4q-174 0 -346 -90q-35 57 -125 90l-303 -14q4 -29 26 -51l9 -7h-99q-6 33 -20 105zM86 717l731 4q133 -4 209 -41q-41 4 -80 4q-176 0 -348 -90q-35 57 -125 90l-301 -14q2 -29 25 -52l8 -6h-99q-6 33 -20 105z" />
<glyph unicode="&#x3e;" horiz-adv-x="839" d="M90 197q197 12 533 231q-295 109 -394 838q-8 51 -26 161q108 0 192 -8q-12 0 -24 -6q-51 -20 -80 -127q-23 -80 -2 -215q31 -207 80 -328q68 -168 200 -258q31 -20 119 -71q-92 -41 -276 -131q-180 -96 -258 -240q-25 102 -64 154z" />
<glyph unicode="?" horiz-adv-x="886" d="M102 -289q10 37 103 80l-86 -145l-2 4q-23 27 -15 61zM131 442q236 113 424 240q313 209 358 375q4 18 5 43q0 96 -56 125q-78 41 -252 26q-152 -10 -178 -16q-88 -22 -135 -98q14 111 -33 180q55 -10 169 -15.5t169 -17.5q35 -4 115 -16q268 -39 268 -193q0 -31 -10 -65 q-78 -293 -572 -500q-49 -143 -135 -412q14 119 15 199q0 123 -37 137q-25 8 -115 8z" />
<glyph unicode="@" horiz-adv-x="1036" d="M-84 266q0 8 4 15q133 190 377 460q238 264 268 263q244 -14 535 -156q-180 -403 -387 -858q-90 -172 -140 -287q33 102 64 203q35 121 35 209t-33 164q-35 -18 -88 -70q-109 -100 -154 -131q-96 -70 -172 -66q-12 0 -25.5 20.5t-13.5 45.5q0 131 357 264q29 10 104 37 q-2 43 8 123q8 88 11 123q-137 -6 -257 -84t-188 -193q25 117 29 199q231 18 455 160q-45 -168 -46 -287q0 -150 70 -240q10 -12 27 17q29 49 84 176q94 217 149 393v-2l-2 -2l2 2q10 37 -145 98q-139 55 -244 76q-39 8 -264 -219q-211 -213 -354 -395q-10 -12 -11 -39 q0 -84 123 -299q80 -143 150 -240q8 -10 18 -22q8 -4 17 6q6 8 -17 32q-61 76 -182 226q-164 213 -164 278zM203 59q0 -35 30 -36q68 39 205 120q131 86 140 160q-61 10 -207 -69.5t-164 -147.5q-4 -16 -4 -27z" />
<glyph unicode="A" horiz-adv-x="817" d="M-33 -268q90 336 119 504q4 25 4 61q0 20 -2 70q-2 35 -2 61q0 38 4 55q10 39 92 123t105 199q-82 -27 -166 -72q-33 -16 -117 -65q4 33 10 70.5t23 62.5q15 -1 31 -1q70 0 145 15q117 23 166 70q90 88 176 254q135 256 147 274l-36 -246q-17 -134 -17 -234v-11 q6 0 498 41q-182 -39 -512 -111q2 -27 35 -225q22 -131 22 -180q0 -15 -2 -23q-8 -33 -164 -379l-133 -301q68 211 105 344q37 86 104 326q29 135 29 241q0 190 -88 191q-176 0 -359 -502q-55 -154 -114 -358q-29 -111 -60 -222zM471 895l80 -10q43 57 47 133q0 23 -2 51v18 v9h-21q-8 -31 -56 -100.5t-48 -100.5z" />
<glyph unicode="B" horiz-adv-x="1185" d="M-6 -334l12 156q14 170 25 203q0 6 63 38q152 82 203 273q25 94 72 319q61 307 75 478q-229 -47 -272 -236q-8 -78 -37 -233q0 43 2 131q0 35 6 49l47 284q213 45 578 97q322 43 379 43q63 0 106 -25q-27 -51 -153 -129q-18 -10 -189 -104q-86 -47 -147 -92q54 -7 150 -7 h24q40 1 73 1q66 0 101 -3q113 -12 164 -61q-10 -63 -23 -92q-111 -79 -512 -312q-340 -197 -553 -374q-76 -61 -125 -187q-29 -68 -69 -217zM303 248q160 82 494 264q319 188 372 336q-43 0 -136 13t-118 13q-106 0 -225 -24q-162 -35 -254 -102zM442 852q150 47 332 145 q94 53 291 164q-117 16 -223 17q-158 0 -312 -39z" />
<glyph unicode="C" horiz-adv-x="819" d="M-160 -266l54 303l114 391q10 49 115 324q119 307 207 489q27 53 82 91t112 38q70 0 131 -70q55 -61 56 -114q0 -10 -2 -19l-127 -473q-6 158 -37 269q37 49 71 100q43 66 43 113q0 88 -157 165q-184 -156 -389 -761q-59 -174 -228 -773q289 264 465 394q94 70 338 227 q1 -9 1 -20q0 -81 -38 -289q-4 157 -90 157q-43 0 -311 -215q-150 -119 -410 -327z" />
<glyph unicode="D" horiz-adv-x="978" d="M45 -176q0 104 2 211q2 141 19 198q0 2 210 216q252 256 361 370q16 20 240 207q154 131 174 225q-47 51 -144 60q2 0 -159 0h-78q-26 1 -48 1t-40 -1q-109 0 -187 -15q-225 -41 -254 -200h21q25 86 45 243q45 -23 141 -23q52 0 119 7q324 31 315 31q135 0 189 -11 q74 -12 180 -65q-35 -66 -145 -162q-89 -69 -177 -141q-72 -59 -108 -101q-162 -166 -322 -329q-184 -199 -268 -371q-35 -70 -86 -350zM139 387l105 379q59 197 153 483l54 -12l-64 -256q-53 -156 -108 -311q-72 -203 -140 -283z" />
<glyph unicode="E" horiz-adv-x="1173" d="M-137 10q27 166 276 355q139 104 412 251q98 51 295 162q-31 7 -63 7q-22 0 -44 -3q-100 -16 -200 -34q-81 -13 -153 -13q-28 0 -54 2q35 106 252 236q70 41 334 174q141 70 212 113l-40 -160q-2 2 -54 71q-164 -80 -327 -159q-193 -98 -291 -213q10 -12 37 -25q4 0 20 2 h37q68 0 303 58q213 51 344 53q-129 -90 -336 -197q-172 -90 -346 -180q-481 -260 -522 -442q526 150 1186 383q-57 -191 -180 -588l10 39q33 123 37 174v15q0 149 -197 149q-131 0 -369 -74q-186 -59 -372 -119q-125 -35 -207 -37z" />
<glyph unicode="F" horiz-adv-x="1056" d="M61 287q104 100 209 444q49 166 113 457q-14 4 -29 4q-100 0 -268 -195l49 177q182 43 1350 368q-66 -245 -115 -366q10 41 23 127q2 13 2 25q0 95 -101 95h-2q-125 0 -489 -112q-328 -98 -385 -131q-8 -152 -56 -330q80 -10 152 -10q182 0 281 53l-41 -158 q-20 88 -99 88q-150 0 -227 -30q-106 -41 -149 -158q-12 -33 -39 -131q-29 -109 -117 -625v25q0 178 -4 205q-10 125 -58 178z" />
<glyph unicode="G" horiz-adv-x="894" d="M8 338l47 176q43 160 232 438q211 313 368 391q39 18 125 37q109 23 133 31q-82 -115 -137 -242q-2 43 -12 131q-240 -53 -459 -368q-197 -283 -231 -529q133 88 377 207q129 63 380 197q25 14 54 55q12 23 51 78h-14q-202 0 -410 -113q10 45 16 62q78 27 224 55 q160 33 225 53q-285 -458 -387 -841q-25 -162 -96 -529q10 59 26 176q6 47 6 84q0 115 -65 179q199 334 303 649q-143 -41 -340 -144q-94 -51 -416 -233z" />
<glyph unicode="H" horiz-adv-x="1173" d="M43 240q0 2 63 79q68 88 111 226q109 346 143 547q12 84 25 168q8 31 117 118q37 31 129 101q-74 -115 -152 -281q-88 -182 -119 -297q-22 -84 -22 -108q0 -20 4 -41q66 12 203 49t200 49q113 268 113 395q0 18 -2 31q90 117 238 199q-250 -301 -258 -609q27 -10 71 -10 q94 0 320 51q-39 -65 -119 -194q6 20 6 37q0 84 -117 84q-86 0 -204 -41q-12 -90 -50 -218q-31 -106 -61 -215q-27 -98 -51 -270q-29 -205 -43 -274q-6 223 -60 321q4 8 39 105q23 61 56 94l88 452q-21 1 -41 1q-219 0 -336 -99q-104 -88 -144 -278q-12 -57 -47 -373 q-16 -160 -47 -254q14 115 15 207q0 203 -68 248z" />
<glyph unicode="I" horiz-adv-x="1038" d="M-154 -229q23 123 58 350q233 35 383 104l321 873q8 27 19 78v9q0 42 -35 42q-31 0 -192.5 -71t-182.5 -100.5t-90 -164.5q8 92 59 287q387 88 1104 229l-6 14q-7 -8 -240 -61q-258 -57 -360 -127q-109 -309 -319 -969q18 -41 98 -41q74 0 218 22.5t214 24.5 q-49 -10 -195 -28q-326 -43 -497 -119q-252 -113 -357 -352z" />
<glyph unicode="J" horiz-adv-x="606" d="M-178 -438q45 125 86 288q35 137 69 275q10 -2 52 -10q35 -6 57 -6q41 0 100 18q76 20 101 53q86 121 221 453q80 199 266 618q-41 -18 -160 -67q-227 -92 -307 -248q18 98 37 192q264 12 483 207q-121 -309 -241 -616q-150 -371 -297 -590q-12 -18 -111 -49 q-106 -37 -149 -94q-63 -88 -115 -203q-43 -106 -86 -211z" />
<glyph unicode="K" horiz-adv-x="731" d="M49 385q4 14 43 61q51 61 107 213q37 117 73 234q53 154 54 213q0 23 -7 35q47 39 144 112q-43 -63 -84 -174q-27 -84 -100 -274q184 102 436 366q100 33 198 95q-88 -101 -262 -230q-131 -92 -399 -280q90 -115 90 -363q0 -31 -2 -51q-16 -94 -37 -328v-24 q0 -251 121 -269h5q27 0 95 33l8 6q-78 -201 -155 -417q12 51 33 151q8 35 4 51q-12 70 -82 228q-61 141 -68 231q-1 13 -1 28q0 81 28 210q35 166 35 239q0 127 -82 224q-125 -221 -183 -568z" />
<glyph unicode="L" horiz-adv-x="753" d="M-184 -61q23 57 131 286q84 176 116 291q115 401 160 621q16 84 33 170v-2l14 12q80 68 133 123q-82 -166 -174 -475q-141 -465 -149 -496q-76 -221 -158 -385q139 6 346 53q113 29 332 80q-43 -96 -131 -295q4 20 4 39q0 147 -149 148q-100 0 -265 -54.5t-243 -115.5z " />
<glyph unicode="M" horiz-adv-x="1161" d="M-106 -86q20 111 77 401q37 2 58 7q219 195 383 438q102 156 284 500q2 6 78 61q-78 -291 -117 -504q10 0 12.5 -10t14.5 -27q201 283 313 418q41 49 123 123q90 84 125 121q18 20 111 49q-168 -197 -250 -358q-64 -128 -123 -351q-92 -344 -92 -614q0 -84 12 -115 q39 -93 39 -103q0 -8 -72 -165q-41 -88 -61 -133q25 141 39 502q12 322 61 499q8 33 95 252q96 244 161 391q-274 -195 -544 -645q43 256 59 453q-45 -61 -299 -428q-168 -240 -338 -414q-43 -47 -88 -164q-31 -92 -61 -184z" />
<glyph unicode="N" horiz-adv-x="1159" d="M-190 -215q12 129 36 391q195 41 373 270q88 111 254 410q84 150 131 215q-4 -63 -35 -295q-18 -138 -18 -239q0 -31 2 -58q0 -23 10 -22q8 0 23 18q74 207 340 545q104 135 405 393q279 244 484 387q-64 -126 -144 -368q-2 118 -89 118h-1q-45 0 -151 -75 q-82 -57 -134 -107q-336 -328 -538 -709q-160 -299 -277 -706q10 330 60 934q-94 -152 -226 -326q-106 -139 -213 -278q-199 -266 -292 -498z" />
<glyph unicode="O" horiz-adv-x="688" d="M-51 225q0 127 35 264q18 68 108 248q113 231 227 377q150 195 269 195q172 0 172 -228q0 -82 -23 -166q-51 -193 -241 -505q-240 -400 -416 -400q-131 0 -131 215zM43 252q0 -176 86 -176q154 0 350 368q137 262 180 418q46 170 46 248q0 135 -93 135q-127 0 -338 -350 q-172 -283 -201.5 -394.5t-29.5 -248.5z" />
<glyph unicode="P" horiz-adv-x="1433" d="M39 709l117 432q90 72 515 169t646 97q80 0 143 -16q90 -22 90 -66q0 -7 -2 -14q-10 -45 -231 -160q-202 -106 -311 -139q-160 -51 -299 -125q-41 -20 -181 -215l58 200q90 49 233 97q119 39 240 80q281 102 356 274q-80 66 -219 66q-113 0 -258 -35q-49 -12 -252 -76 q-143 -285 -197 -475l-182 -615q-16 -61 -57 -317q0 135 -19 256q0 4 -24 37q-23 27 -15 51q4 16 74 94t82 119q90 262 115 358q53 205 53 371q6 4 35 10q68 14 67 103q-240 -33 -395 -215q-123 -143 -168 -340z" />
<glyph unicode="Q" horiz-adv-x="600" d="M4 174q4 78 31 172q43 158 178 424q201 387 358 387q123 0 123 -186q0 -106 -37 -244q-12 -45 -67 -180q-68 -166 -121 -250q-12 -20 -72.5 -79.5t-66.5 -82.5q-2 -7 -2 -14q0 -31 26 -79q33 -60 74 -101q-59 -111 -170 -336q70 256 70 375q0 74 -21 118 q-190 -88 -221 -88q-83 0 -83 133q0 15 1 31zM86 246q0 -109 94 -172q98 43 113 98l-29 141q35 68 62 103q4 -35 10 -107q2 -34 2 -65.5t-2 -61.5q88 70 184 244q86 156 115 268q37 131 37 248q-1 168 -97 168q-135 0 -301 -317q-115 -219 -149 -353q-39 -143 -39 -194z" />
<glyph unicode="R" horiz-adv-x="841" d="M133 811q23 111 84 340q272 80 707 145l137 -14q-14 -49 -135 -123q-82 -45 -219 -125q-31 -18 -90.5 -76.5t-108.5 -91.5q41 -117 53 -256q0 -2 10 -248q2 -102 23 -329q41 -242 164 -242q18 0 61 19h2q-43 -131 -143 -377h20q14 68 31 205q0 51 -43 122 q-68 111 -72 115q-27 63 -34 158q-12 217 -27 432q-20 266 -92 412q25 16 94 61l160 102q221 143 229 174q4 8 4 17q0 45 -82 47h-20q-49 0 -193 -29q-188 -35 -268 -82q-158 -92 -252 -356zM201 111q12 82 18 188q-12 20 -16 72q4 8 54 79.5t65 110.5q27 78 77 293 q45 188 93 291q-115 -402 -191 -699l-41 -161q-4 -25 -12 -54q-4 -8 -47 -120z" />
<glyph unicode="S" horiz-adv-x="886" d="M-164 -307q57 227 113 522q20 -16 63 -22q68 -8 72 -11q39 -10 59 -10q119 0 310 57q266 80 301 209q10 35 10 64q0 123 -162 139q-23 2 -67 2q-53 0 -162 -19.5t-162 -19.5q-70 0 -96 12q-41 16 -41 68q0 25 8 57q55 207 434 318l72 20q37 12 53 19q127 51 383 157 q-113 -154 -172 -348l20 -2q10 25 11 88q0 121 -62 121q-39 0 -219 -53q-205 -59 -307 -111q-39 -20 -77 -71.5t-48 -87.5q-4 -20 -4 -37q0 -90 143 -92h29h16q20 0 171 10t171 10q70 0 113 -51q37 -45 37 -109q0 -150 -193 -243q-129 -66 -319 -97q-37 -2 -105 -16 q-88 -29 -172 -103q-96 -86 -147 -204q-18 -43 -74 -166z" />
<glyph unicode="T" horiz-adv-x="1110" d="M88 774l6 23q26 105 26 205q0 19 -1 38q141 45 440 116t447 120q242 80 411 188q-24 -51 -61 -123q-109 -20 -365 -98l-266 -78q-150 -514 -203 -692q-119 -393 -211 -653q20 139 20 300q0 39 -1 79q6 14 39 43q23 18 49 57q70 209 139 420q76 242 111 432 q-80 -10 -228 -37q-117 -31 -243 -153q-49 -51 -101 -168z" />
<glyph unicode="U" horiz-adv-x="991" d="M33 895q90 14 313 209q49 43 78 65q-8 -47 -86 -469q-53 -297 -53 -462q0 -57 12 -74q10 -12 45 24q61 66 274 361l441 602q-211 -557 -260 -739q-31 -111 -31 -242q0 -43 6 -80q2 -14 25 -94q-55 -119 -174 -385q45 309 100 659q80 215 283 799q-145 -233 -439 -690 q-246 -373 -305 -373q-4 0 -8 2q-20 14 -21 92q0 176 56 469q68 358 78 467q-125 -47 -201 -172q-59 -98 -105 -272q-2 147 -28 303z" />
<glyph unicode="V" horiz-adv-x="1132" d="M43 856q117 115 178 207q-71 -297 -71 -719v-12q0 -100 4 -207q262 664 981 1251q51 45 153 133q-83 -313 -151 -526l20 2q0 31 12 82q16 61 19 80q1 12 1 22q0 74 -77 74q-61 0 -149 -72q-14 -10 -52 -41q-330 -274 -524 -583q-106 -168 -281 -551q10 156 27 471 q1 24 1 46q0 275 -91 343z" />
<glyph unicode="W" horiz-adv-x="1413" d="M8 496q1 56 1 132t-1 173q76 27 201 151q88 96 178 193q-98 -444 -127 -729q111 156 334 518q-43 -516 -47 -967q57 96 96 238q160 575 999 1378l-163 -430l20 4q-2 10 17 94q8 35 4 56q-4 23 -23 18q-41 -4 -72 -37l-10 -10q-6 -8 -22 -23q-303 -268 -533 -710 q-133 -256 -352 -821q-2 70 -2 141q0 139 16 397q23 324 31 498q-172 -190 -256 -389q-29 -72 -107 -320q-8 59 -8 127q0 123 28 293t83 535q-164 -135 -230 -312q-18 -49 -55 -198z" />
<glyph unicode="X" horiz-adv-x="872" d="M35 129q10 109 24 303q61 33 203 111q168 94 180 143q4 14 2 47q-10 199 -10 207q25 117 74 393q-217 -145 -301 -291q-18 -31 -80 -176q6 82 18 248q209 125 396 268q-86 -309 -86 -559q0 -59 4 -114q162 104 309 323q66 113 176 289q59 23 137 94q-69 -102 -196 -282 q-59 -82 -164 -195l-172 -184q-47 -53 -51 -70q-8 -27 -9 -59q0 -156 175 -373q10 -14 36 -43q-27 -78 -98 -399q-3 15 -3 42q0 35 5 91q8 133 8 141v15q0 83 -20 155q-12 39 -66 160q-61 139 -77 233q-317 -195 -414 -518z" />
<glyph unicode="Y" horiz-adv-x="724" d="M88 -446q14 162 74 559q289 135 475 540q49 109 127 324q70 199 110 276q-90 -41 -243 -233q-111 -143 -221 -289q-84 -100 -154 -162q51 207 137 635q-63 -80 -131 -217q-109 -221 -112 -229q12 52 12 102q0 19 -2 37q0 2 -8 49q-8 37 -7 45q4 14 136 142 q121 121 168 172q-43 -186 -132 -637q223 266 635 751q-78 -227 -157 -454q-95 -263 -191 -443q-53 -98 -170 -260q-131 -176 -178 -256q-61 -102 -168 -452z" />
<glyph unicode="Z" horiz-adv-x="1107" d="M322 698q285 471 520 740q18 16 -4 49q-76 -47 -226 -139q-207 -131 -317 -246q-145 -154 -199 -346q-8 -35 -55 -113q14 68 37 199q8 62 8 114q0 59 -10 105q477 287 858 561l63 -8q-291 -424 -602 -907q-365 -573 -391 -670q612 301 1036 489q-72 -92 -120 -219 q-37 -114 -74 -227q16 76 16 123q0 131 -114 131q-100 0 -467 -197q-272 -145 -416 -239q-15 21 -15 27z" />
<glyph unicode="[" horiz-adv-x="753" d="M-238 -260q117 297 287 776q115 406 213 789q43 166 84 333q14 0 74 9l194 41q176 37 277 59q-256 -123 -404 -307q-119 -150 -202 -391q-70 -238 -142 -474q-115 -369 -272 -690q137 6 346 54q113 29 332 79q-43 -95 -131 -294q2 20 2 38q0 147 -148 148 q-102 0 -267 -55.5t-243 -114.5z" />
<glyph unicode="\" horiz-adv-x="593" d="M160 1395q119 117 182 213q-31 -176 -4 -557q25 -236 53 -623l-82 -133l-30 -211q4 461 0 647q-16 580 -119 664z" />
<glyph unicode="]" horiz-adv-x="753" d="M-121 -381q256 123 402 307q119 150 202 391q72 238 144 474q115 369 272 690q-139 -6 -346 -54q-113 -29 -332 -79q43 96 131 294q-4 -20 -4 -38q0 -147 150 -148q100 0 266 55.5t242 114.5q-117 -297 -285 -776q-117 -406 -215 -789q-41 -166 -84 -333q-12 0 -72 -9 l-196 -41q-174 -37 -275 -59z" />
<glyph unicode="^" horiz-adv-x="671" />
<glyph unicode="`" horiz-adv-x="172" d="M12 1241q0 16 27 51q57 74 94 146q-31 -102 -72 -260q-49 35 -49 63z" />
<glyph unicode="a" horiz-adv-x="671" d="M33 90q0 131 358 266q27 10 105 35v19q0 40 6 104q10 88 10 125q-137 -8 -257 -86t-187 -193q25 119 30 199q229 20 455 160q-47 -168 -47 -287q0 -203 127 -293q-145 -274 -211 -424q31 102 61 203q35 121 35 209t-31 166q-37 -20 -90 -72q-106 -100 -151 -131 q-91 -65 -164 -65h-10q-12 0 -25.5 20.5t-13.5 44.5zM51 72q0 -35 31 -35q68 37 202 121t140 157q-7 1 -15 1q-62 0 -188 -68q-148 -82 -166 -150q-4 -14 -4 -26z" />
<glyph unicode="b" horiz-adv-x="645" d="M66 608v11q0 83 28 200q170 115 357 285q-70 -162 -193 -553l-51 -156q39 20 86 72q53 59 84 86q94 82 190 82q27 0 54 -4q-55 -160 -197 -328t-328 -285q25 170 111 457q53 166 153 516q-156 -123 -294 -383zM154 70q92 90 252 262q115 135 155 270q-123 -18 -248 -145 q-112 -113 -139 -209q-2 -10 -8 -117q-2 -18 -12 -61z" />
<glyph unicode="c" horiz-adv-x="483" d="M-41 12q-2 15 -2 28q0 20 4 36q23 80 254 551q41 45 127 61l-66 -254q-4 43 -30 131q-188 -301 -221 -424q-6 -18 -19 -49q-3 -10 -3 -23q0 -22 9 -53q90 47 226 140q70 45 198 133q-61 -213 -129 -422q14 102 41 317q-297 -209 -384 -209h-3q0 2 -2 37z" />
<glyph unicode="d" horiz-adv-x="618" d="M-102 109q29 111 168 284q152 193 268 230l63 -13q86 76 109 232q29 186 72 256l235 198q-68 -88 -137 -174q-80 -108 -111 -186q-84 -201 -155 -471q-35 -129 -50 -287v-7q0 -45 48 -132q-94 -88 -179 -275q90 341 90 522v15q-106 -88 -239 -180q-145 -100 -180 -105 q-11 14 -11 39q0 23 9 54zM-88 55q129 72 276 191q199 160 199 241q0 37 -30.5 58.5t-67.5 21.5q-145 -121 -221 -217q-98 -125 -156 -295z" />
<glyph unicode="e" horiz-adv-x="692" d="M-82 -16l43 -4l102 509q45 12 111 19q45 2 141 10q25 41 76 117q39 57 80 100q10 2 18 2q78 0 86 -227q-154 -6 -235 -72q-37 -57 -64 -147q-23 -78 -43 -154q-18 -55 -63 -139q133 57 281 143q68 39 200 115v-9q-1 -76 -31 -194q-32 -125 -65 -188q-20 -41 -53 -96 q10 20 18 34l53 158l13 88q1 7 1 13q0 32 -36 34q-8 0 -32.5 -2t-41.5 -2q-41 0 -166 -51q-55 -23 -164 -72q84 315 172 531q-31 -27 -34 -27l-2 -2l-2 -2q-8 -4 -9 -10q0 -4 17 -29q6 35 -10 35q-12 0 -35 -19q23 2 28 5q16 6 19 18v12q-14 -2 -29 -2q-8 1 -16 1 q-129 0 -232 -238q-27 -61 -57 -154l-20 -61q-8 -25 -19 -43zM367 510l184 14q-7 41 -23 107q-14 49 -63 78q-82 -139 -98 -199z" />
<glyph unicode="f" horiz-adv-x="579" d="M33 252q117 113 209 280q78 141 112 275q11 42 11 146v18q-25 -4 -74 -17q-160 -39 -211 -112q0 31 -2 94q4 2 274 59q25 45 49 156q16 84 35 166q61 236 146 239h3q40 0 46 -53l8 -86l-64 -176q1 10 1 21q0 64 -21 141q31 57 57 94q-23 20 -45 21q-43 0 -80 -84 q-10 -27 -43 -150q-29 -109 -34 -258q63 0 159 23q158 37 160 36l-41 -51q-264 -16 -309 -133q-16 -39 -21 -123q-4 -94 -14 -129q-27 -57 -76 -168q-84 -227 -178 -631q8 80 8 144q0 186 -65 258z" />
<glyph unicode="g" horiz-adv-x="550" d="M-176 -1151l20 2q18 94 50 283q17 104 17 182q0 49 -7 88q219 78 325 201q90 100 172 329q49 129 93 201l30 178q-80 -115 -164 -198q-106 -104 -172 -105q-73 0 -73 88q0 29 4 47q29 102 174 244.5t223 142.5q23 0 40 -11t60 -11q57 98 146 174l-31 -113q-4 -20 -61 -75 q-68 -66 -84 -109q-25 -72 -72 -264q-39 -166 -80 -258q-51 -113 -160 -256q-94 -117 -188 -236q-250 -324 -262 -524zM172 137q27 -8 51 -8q131 0 279 223q27 43 88 135h-133q-246 -119 -285 -350z" />
<glyph unicode="h" horiz-adv-x="602" d="M-47 -432l29 282q8 99 8 164q0 83 -13 111q102 86 134 133q86 121 149 363q14 49 59 299q51 272 72 423q-121 -195 -256 -542l68 344q27 98 121 172q86 63 174 129q-78 -291 -242 -987q213 209 365 295q-39 -104 -82 -291q-51 -215 -76 -295q-39 -117 -80 -236 q-43 -137 -53 -245q-8 141 -33 415q2 4 33 23q23 12 65 45q72 70 109 209q33 119 35 280q-346 -213 -469 -571q-37 -113 -68 -278q-37 -197 -47 -232z" />
<glyph unicode="i" d="M-47 -389q49 131 49 244q0 86 -27 161q70 49 131 150l66 299q-33 -12 -61 -41l-11 -10l25 98q39 16 119 49l-191 -729q-41 -133 -100 -221zM250 774q10 37 102 80l-86 -145l-2 4q-17 19 -17 42q0 9 3 19z" />
<glyph unicode="j" horiz-adv-x="299" d="M-178 -817q31 188 98 567q106 37 186 152q0 2 119 215l101 426q-68 -10 -121 -103q-14 -29 -39 -80q2 129 3 129l1 -4q68 45 199 127l-107 -477q-33 -74 -119 -215q-65 -110 -133 -223q-59 -102 -108 -254q-39 -131 -80 -260zM344 793q8 31 49 47q33 12 68 22 q-27 -53 -88 -170l-8 10q-24 30 -24 65q0 13 3 26z" />
<glyph unicode="k" horiz-adv-x="493" d="M-115 -2q174 133 221 326q8 35 27 104l268 903q-72 -80 -145 -244q-20 -47 -80 -190q10 139 43 260q6 23 109 127q49 47 135 137q-41 -94 -90 -225l-160 -561q61 6 117 51q6 6 90 92q26 -43 26 -81q0 -11 -2 -19l-34 -131q-23 -16 -43 -17q-23 4 -45 9q-18 4 -48 -9 q43 -129 43 -258q0 -29 -2 -53q-10 -119 -45 -330q-29 -182 -41 -226t-63 -132q27 125 41 340q-4 61 -8 195q102 82 102 243q0 154 -86 273q-113 -322 -315 -963q4 43 10 129q2 32 2 60q0 119 -27 190zM279 586q10 0 69 -15q12 -4 31 -4l41 160q-131 -102 -141 -141z" />
<glyph unicode="l" horiz-adv-x="329" d="M-63 -330q20 86 38 170q23 100 23 174q0 117 -53 195q156 207 237 493q66 266 129 531q10 33 172 182q-86 -182 -178 -446q-75 -228 -151 -455q-20 -57 -48 -195l-51 -260q-59 -283 -118 -389z" />
<glyph unicode="m" horiz-adv-x="911" d="M49 -55q68 74 191 311l82 311q-55 -41 -150 -110q-53 -41 -82 -84q-11 43 -11 67q0 7 1 13q61 20 156 79q74 47 149 97q1 -7 1 -17q0 -29 -13 -77q-14 -47 -27.5 -94.5t-15.5 -98.5q119 96 336 270q4 -18 4 -41q0 -10 -21 -125q-5 -28 -5 -56q0 -9 1 -19q113 63 336 239 l-14 11q-6 -6 -13 -23q-4 -41 -26 -145q-59 -270 -219 -885q4 51 12 158q2 29 2 54q0 111 -35 167q27 39 80 114q86 127 100 179q23 85 23 176q0 29 -2 59q-231 -115 -314 -262q-63 -113 -90 -381q-12 -119 -34 -190q-9 26 -9 62v7q2 39 9 119q2 24 2 46q0 125 -58 198 q90 59 164 153l59 310q-336 -199 -421 -476q-23 -74 -45 -213q-25 -158 -43 -227q6 125 6 131q-4 113 -66 193z" />
<glyph unicode="n" horiz-adv-x="587" d="M12 -6q76 14 127 80q27 31 78 129q23 47 45 67l55 283q-106 -53 -186 -184q-2 15 -2 43q0 42 4 114q72 35 223 97q1 -8 1 -19q0 -28 -7 -78q-6 -47 -14 -164q188 160 344 252q-39 -200 -285 -1044q4 72 6 215v16q0 146 -36 183q88 84 122.5 136t65.5 154q18 61 78 228 q-238 -53 -355 -244q-66 -104 -149 -405q-37 -127 -66 -197q8 51 17 149v6q0 107 -66 183z" />
<glyph unicode="o" horiz-adv-x="487" d="M-27 49q0 63 25 154q31 119 123 237q127 170 285 170q39 0 63 -22q8 -6 45 -51q-2 -37 -59 -179q-74 -174 -160 -286q-115 -150 -232 -150q-90 0 -90 127zM10 100q0 -111 86 -123q102 57 213 188.5t133 215.5q9 33 13 137q0 16 4 35q-197 -18 -322 -158 q-84 -94 -112 -207q-14 -45 -15 -88z" />
<glyph unicode="p" horiz-adv-x="641" d="M-70 -340q197 170 301 401q66 147 146 469q-61 -23 -139 -90q-63 -55 -125 -112l30 121q129 14 283 194q-4 -43 -25 -129q-29 -106 -28 -176q72 47 135 102q123 109 135 119q74 53 162 66q-68 -80 -82 -211q-10 -115 -21 -230l-53 -186q-9 -1 -18 -1l-146 58 q-49 47 -153 135q-113 -285 -244 -634q-37 -137 -74 -547q-2 168 -2 338q-10 209 -82 313zM346 238q51 -70 127 -127q82 -63 131 -64q82 310 94 488q-61 -49 -185 -156t-167 -141z" />
<glyph unicode="q" horiz-adv-x="626" d="M84 127q0 45 8 80q31 113 191 295q175 200 287 200h1q41 0 56 -53q2 -6 10 -43q61 35 125 88q27 23 76 66v-6q0 -39 -11 -119q-7 1 -14 1q-105 0 -199 -167q-68 -125 -116 -307q-25 -70 -56 -209q-3 -22 -3 -50q0 -101 34 -282q4 -16 51 -94q34 -57 34 -83q0 -4 -1 -7 q-10 -33 -129 -213l-104 -162q106 279 106 694q0 205 -24 404q-57 -57 -150 -109q-74 -41 -88 -41q-84 0 -84 117zM135 184q-6 -21 -6 -43q0 -49 27 -106q109 39 268 217q168 188 168 293q0 43 -33 88q-147 -29 -276 -180q-111 -129 -148 -269z" />
<glyph unicode="r" horiz-adv-x="591" d="M0 -565l18 -2q43 113 50 295q2 33 2 82q0 74 -4 184q100 33 182 143l129 481q-170 -98 -287 -249q-4 22 -4 45q0 39 12 80q76 33 174 94q82 55 164 108q0 -45 -14 -149q53 8 117 51q53 39 106 80q18 14 33 20q-9 -38 -9 -81q0 -14 1 -29q2 -16 4 -47q0 -25 -4 -39 q-16 -59 -54.5 -178.5t-54.5 -178.5q-4 -14 -55 -96q47 186 47 295q0 66 -16 102l81 7q6 20 15 51q6 27 -4 55q-6 12 -21 55q-51 -33 -141 -94q-68 -47 -94 -102q-113 -238 -314 -813z" />
<glyph unicode="s" horiz-adv-x="612" d="M-115 -244l105 396q47 -41 137 -66q76 -20 135 -20q106 0 227 69q20 59 21 101q0 78 -104 94q-82 6 -166 10q-90 16 -148 68q18 125 119 186q61 37 215 71.5t213 69.5q-41 -74 -111 -207q-14 82 -94 82q-164 0 -278 -129q47 -100 200 -125l136 -20q79 -23 79 -88 q0 -27 -8 -60q-10 -41 -96 -108q-100 -76 -186 -76q-22 0 -45 6q-33 6 -64 6q-82 0 -143 -53q-43 -39 -97 -125q-12 -23 -47 -82z" />
<glyph unicode="t" horiz-adv-x="622" d="M23 551l38 141q137 6 205 27q125 39 154 145q8 27 16 205t14.5 200.5t149.5 151.5l16 15q-39 -82 -84 -222q-57 -170 -77 -221l-39 -213q63 4 172 43q84 33 170 64l-2 -4l-33 -66q-221 -37 -344 -102l-182 -678q-37 -133 -99 -440q-6 33 -6 153q0 168 -39 248 q74 57 129 170l82 188l88 385q-184 -76 -329 -190z" />
<glyph unicode="u" horiz-adv-x="778" d="M72 373q10 62 10 102q0 17 -2 31q160 84 258 160q29 -23 29 -74t-21 -141q-31 -127 -35 -140q-12 -74 -12 -144q0 -26 2 -52q346 272 477 540q-23 -150 -114 -493q-1 -2 -1 -5q0 -29 58 -145q-62 -68 -205 -342q53 244 154 772q-123 -156 -260 -290q-147 -143 -191 -143 q-3 0 -6 1q-14 4 0 60q39 117 76 235q45 139 45 242q0 33 -4 61q-133 -51 -258 -235z" />
<glyph unicode="v" horiz-adv-x="624" d="M-86 436q6 49 260 295q-23 -143 -47 -285q-31 -184 -33 -321q72 82 150 192q162 229 213 295q129 160 256 256q-11 -81 -74 -239l-10 63q-174 -84 -336 -315q-78 -125 -223 -354q-12 187 -12 409q0 69 1 141q-37 -41 -112 -192z" />
<glyph unicode="w" horiz-adv-x="636" d="M-164 440q16 59 125 138q82 51 166 104q-45 -162 -61 -238q-35 -145 -52 -278q53 70 101 151q84 143 112 185q76 104 156 137q-12 -61 -38 -187q-23 -113 -23 -214v-23q76 127 278 369q231 272 391 399q-20 -80 -53 -152q-213 -72 -410 -352q-158 -225 -243 -477 q3 107 3 295q0 94 -1 209q-59 -76 -160 -227q-121 -182 -166 -246q35 180 94 542q-61 -45 -121 -118q-29 -41 -84 -115q-21 18 -21 53q0 20 7 45z" />
<glyph unicode="x" horiz-adv-x="589" d="M-14 109q66 45 188 133q109 80 120 120q7 26 7 64q0 21 -2 45q-4 39 -10 131l-215 -170q4 59 71 111q6 4 119 71q39 23 60 41q0 -39 12 -247l297 196q-125 -115 -273 -272q-2 -6 -2 -13q0 -43 48 -155q43 -100 83 -166q-18 -24 -63 -184q4 33 4 65q0 211 -131 402 q-68 -49 -162 -142q-47 -45 -143 -139q3 25 3 45q0 41 -11 64z" />
<glyph unicode="y" horiz-adv-x="559" d="M-63 -1018q41 176 114 612q233 0 350 170q72 102 144 375q45 174 96 287q-145 -137 -422 -397q43 170 43 359q0 37 -2 75q-39 -47 -74 -101q-12 -16 -36 -51q0 8 -11 58q-8 37 -4 57q39 18 96 61q70 53 97 68q-18 -143 -52 -442q248 244 422 467q-47 -205 -96 -408 q-59 -231 -141 -391q-29 -57 -142 -160q-129 -119 -161 -164q-92 -121 -221 -475z" />
<glyph unicode="z" horiz-adv-x="602" d="M-76 -1217q45 332 74 662q156 47 346 293q178 227 225 399q-39 -10 -86 -31q-80 -35 -243 -92q139 143 163 172q96 111 125 193q8 10 9 16q0 18 -50 19q-29 0 -125 -66.5t-151 -122.5l16 164q80 2 207 41q168 49 207 57q-129 -223 -299 -383q74 0 164 37q53 23 162 72 q14 -4 14 -22q0 -12 -6 -31q-27 -102 -158 -291q-29 -44 -203 -277q-305 -408 -307 -555q0 -66 -84 -254z" />
<glyph unicode="~" horiz-adv-x="671" d="M55 893l213 162q21 -43 111 -92q-39 8 -90 10q-76 2 -234 -80zM449 932q12 -2 22 -2q31 2 180 88l-172 -158q5 45 -30 72z" />
<glyph unicode="&#xa1;" d="M-229 -264q66 123 133 307q57 160 112 317q14 39 45 183l64 284q70 313 123 414q-12 -55 -33 -166q-12 -129 55 -203q-133 -154 -227 -483q-65 -266 -133 -532q-4 -16 -66 -66q-8 -6 -73 -55zM311 1554q8 35 47 62l4 4q2 -49 9 -145q-70 42 -60 79z" />
<glyph unicode="&#xa2;" horiz-adv-x="483" d="M-39 12q-4 37 4 67t133 265l152 281q45 -2 98 125q16 39 51 114l-376 -1194l18 8q-2 4 31 132q14 55 80 286q100 367 100 445q0 18 -2 24q-188 -301 -221 -424q-8 -18 -21 -49q-6 -27 6 -76q90 47 228 140q68 45 196 133q-61 -213 -127 -422q14 102 39 317 q-303 -213 -387 -209q0 2 -2 37z" />
<glyph unicode="&#xa3;" horiz-adv-x="866" d="M-176 -61q23 57 131 286q84 176 117 291q115 403 161 623q14 84 31 168q2 -6 10 -7l58 11q167 30 286 65q-178 -86 -280 -231q-94 -135 -182 -397q-68 -215 -136 -429q-47 -150 -90 -235q139 6 346 53q115 29 334 80q-45 -96 -131 -295q2 20 2 39q0 147 -149 148 q-100 0 -265 -54.5t-243 -115.5zM-92 694q139 0 371 4q158 2 213 0q104 -4 163 -41q-33 4 -63 5q-139 0 -283 -89q-25 55 -96 89l-244 -15q2 -29 19 -49l4 -6l2 -2h-76q-2 33 -10 104z" />
<glyph unicode="&#xa5;" horiz-adv-x="1030" d="M-207 -899q14 160 74 557q272 127 457 502l-267 -13q4 -29 27 -51l8 -6h-98q-6 33 -21 105q160 0 367 2q43 94 88 217l-278 -13q4 -29 26 -51l8 -6h-98q-6 33 -20 105q164 0 376 2q10 29 45 131l-6 -7q51 207 140 635q-66 -80 -134 -217q-109 -221 -112 -229 q16 72 10 139q0 2 -8 49q-6 37 -4 45q4 14 133 142q123 121 168 172q-43 -186 -131 -635q193 217 643 754q-35 -136 -43 -181q-98 -27 -238 -180q-25 -27 -200 -246q-96 -119 -160 -186q-31 -84 -70 -186q311 4 268 6q176 -4 263 -45q-41 4 -82 4q-174 0 -346 -90 q-29 47 -119 86q-47 -121 -88 -215q330 4 274 6q180 -4 268 -45q-41 4 -82 4q-174 0 -348 -90q-31 53 -129 92q-27 -61 -45 -96q-53 -98 -170 -261q-131 -176 -178 -256q-61 -102 -168 -450z" />
<glyph unicode="&#xa7;" horiz-adv-x="843" d="M-160 -295q57 221 111 508q18 -14 57 -20q57 -8 64 -11q35 -10 55 -10q106 0 281 57q242 80 276 209q10 37 10 70q0 119 -141 133q-23 2 -64 2q-45 0 -145 -19.5t-145 -19.5q-129 0 -129 68q0 41 65 178q86 178 90 188q78 207 404 318l61 22q31 10 47 19q115 49 348 155 q-100 -145 -161 -338q0 -2 -2 -8l20 -2l2 10q10 33 10 86q0 111 -55 111q-35 0 -201 -53q-184 -59 -278 -111q-35 -18 -71 -69.5t-46 -90.5q-4 -20 -4 -38q0 -88 127 -91q12 0 25 3h16q18 0 154.5 9t154.5 9q66 0 107 -38t41 -91q0 -23 -6 -43q-109 -285 -144 -342 q-90 -144 -280 -205q-84 -27 -291 -94q-82 -29 -158 -103q-90 -86 -139 -204q-16 -39 -66 -154zM160 752q0 -88 129 -90h24.5h16.5q18 0 153 10t154 10q80 0 119 -90q41 53 65 143q10 39 10 70q0 119 -141 135q-23 2 -61 2q-45 0 -146.5 -19.5t-146.5 -19.5q-61 0 -94 15 q-59 -68 -76 -127q-6 -23 -6 -39zM655 649q-6 -16 2 -28l19 12q-2 8 -4 12l-2 2q-2 6 -11 -6z" />
<glyph unicode="&#xa8;" horiz-adv-x="487" d="M113 1374q10 37 102 80l-86 -145l-2 4q-23 27 -14 61zM297 1360q10 37 102 80l-86 -146l-2 4q-23 27 -14 62z" />
<glyph unicode="&#xa9;" horiz-adv-x="1036" d="M-94 266q0 8 4 15q133 190 377 460q238 264 268 263q244 -14 535 -156q-29 -68 -166 -467q-136 -383 -156 -453q-102 -82 -227 -147q147 115 235 287q72 133 123 338q39 180 80 360l-2 -4q2 2 2 4q8 37 -145 96q-139 55 -244 76q-39 8 -264 -219q-211 -213 -355 -395 q-10 -12 -10 -31q0 -70 148 -225q96 -100 176 -164q8 -6 12 -10q10 -6 22 2q6 8 -20 28q-70 47 -205 148q-188 147 -188 194zM233 51q-2 37 5 64q20 80 254 551q39 45 124 61l-63 -254q-4 43 -31 131q-188 -301 -221 -424q-6 -18 -18 -49q-8 -27 6 -76q90 47 225 140 q68 45 197 133q-61 -213 -127 -422q14 102 41 317q-303 -213 -387 -207z" />
<glyph unicode="&#xaa;" horiz-adv-x="671" d="M-6 901h436l-414 -51zM43 1065q0 133 356 266q27 10 105 37q-2 43 6 121q10 90 10 125q-135 -6 -255 -84t-187 -195q25 119 28 201q229 18 455 160q-47 -168 -47 -287q0 -203 127 -293q-145 -274 -211 -424q31 100 64 203q33 119 32 209q0 88 -30 164q-35 -20 -90 -70 q-106 -100 -152 -133q-96 -70 -174 -66q-12 2 -24.5 21.5t-12.5 44.5zM59 1047q0 -33 31 -35q68 37 205 121q131 86 137 157q-61 10 -203 -67q-148 -80 -166 -148q-4 -16 -4 -28z" />
<glyph unicode="&#xad;" horiz-adv-x="1148" d="M53 717l731 4q131 -4 209 -41q-41 4 -82 4q-174 0 -348 -90q-33 57 -125 90l-301 -14q4 -29 27 -52l8 -6h-98q-6 33 -21 105z" />
<glyph unicode="&#xae;" horiz-adv-x="1036" d="M-47 266q0 8 4 15q133 190 377 460q238 264 268 263q244 -14 535 -156q-29 -68 -168 -467q-134 -383 -154 -453q-102 -82 -227 -147q145 115 235 287q72 133 123 338q39 180 80 360l-2 -4q0 2 2 4q8 37 -145 96q-141 55 -244 76q-39 8 -264 -219q-211 -213 -355 -395 q-10 -12 -10 -31q0 -70 148 -225q94 -100 176 -164q8 -6 12 -10q10 -6 21 2q8 8 -19 28q-70 47 -205 148q-188 147 -188 194zM199 -567l20 -2q43 115 49 297q2 80 -4 264q100 33 182 145l129 481q-168 -98 -286 -249q-12 57 10 125q74 31 172 94q82 53 166 108 q0 -45 -16 -149q53 8 116 49q53 41 107 80q20 14 33 22q-10 -53 -7 -110q0 -18 2 -49q2 -23 -2 -37q-16 -61 -55 -179.5t-55 -179.5q-4 -14 -55 -96q49 188 49 297q0 63 -17 102l82 7q4 20 12 51q6 27 -4 55q-4 12 -20 55q-51 -35 -139 -94q-68 -47 -95 -102 q-115 -238 -315 -815z" />
<glyph unicode="&#xb0;" horiz-adv-x="397" d="M147 1323q0 27 9 59q14 51 41.5 86t48.5 35q33 0 33 -63q0 -27 -11 -58q-12 -53 -40 -87.5t-48 -34.5q-33 0 -33 63zM176 1333q4 -39 19 -39q16 0 42.5 39t36.5 72q21 80 -24 80t-66 -80q-10 -35 -8 -72z" />
<glyph unicode="&#xb1;" horiz-adv-x="1148" d="M-59 -10l731 4q131 -4 209 -41q-41 4 -82 4q-174 0 -348 -90q-33 57 -125 90l-301 -14q4 -29 26 -52l8 -6h-98q-6 33 -20 105zM143 672q115 6 334 12q33 94 101 303q63 -35 92 -49l-27 -98v2l-4 8q-14 27 -41 39l-63 -207q289 4 278 4q178 -6 270 -51q-41 4 -82 4 q-174 0 -348 -90q-23 33 -153 82l6 -41q10 -104 49 -148q-160 -182 -197 -409q-6 45 -6 82q0 96 113 503l-238 7q4 -31 27 -52l8 -8h-98q-6 35 -21 107z" />
<glyph unicode="&#xb4;" horiz-adv-x="358" d="M100 1405q53 61 90 135q12 23 21 33q27 33 119 29q-33 -27 -158 -138z" />
<glyph unicode="&#xb6;" horiz-adv-x="1433" d="M207 1499q14 57 131 82q72 16 151 16q223 0 596 -97t424 -169l-505 -1591l-11 8q315 1034 316 1382q0 301 -191 330q-25 -43 -24 -67q0 -25 26 -33l39 -12q-125 -233 -223 -730q-10 -55 -12 -165v-174q-2 -55 -6 -68q-6 -25 -41 -51q-41 -31 -48 -37q-80 -119 -153 -256 q96 256 112 317q47 172 209 809q45 188 58 475q-303 111 -451 111q-139 0 -256 -66q-10 -102 62 -178q53 -57 165 -106q92 -35 183 -72q117 -49 180 -94l-51 -203q-10 59 -21 117q-18 80 -43 98q-102 76 -235 125q-90 35 -234 141q-160 115 -147 158z" />
<glyph unicode="&#xba;" horiz-adv-x="487" d="M-59 879h280l-241 -29zM20 1055q0 63 25 153q31 119 123 238q129 170 285 170q39 0 65 -23q6 -6 43 -51q0 -37 -59 -178q-74 -174 -160 -287q-114 -149 -231 -149q-90 0 -91 127zM59 1106q0 -111 84 -123q102 57 213 188.5t133 214.5q11 34 13 138q0 16 4 35 q-197 -18 -322 -158q-82 -94 -112 -207q-12 -45 -13 -88z" />
<glyph unicode="&#xbf;" horiz-adv-x="886" d="M-135 -111q0 31 8 66q78 291 571 500q51 143 138 409q-16 -117 -17 -196q0 -123 37 -138q25 -10 117 -10q-238 -113 -426 -237q-311 -211 -356 -377q-4 -18 -5 -41q0 -96 56 -127q76 -39 252 -27q150 10 176 19q90 20 137 96q-14 -111 33 -180q-55 12 -169 17t-171 15 q-33 6 -115 17q-266 39 -266 194zM645 1174l86 143l2 -2q23 -29 12 -64q-8 -34 -100 -77z" />
<glyph unicode="&#xc0;" horiz-adv-x="817" d="M-80 -268q90 336 119 504q12 68 6 243q201 143 246 336q-166 -55 -334 -147q6 33 11 70.5t22 62.5q84 -4 176 14q117 23 166 70q90 88 176 254q137 256 147 274q-18 -123 -37 -246q-18 -141 -16 -245q6 0 498 41q-182 -39 -510 -111q0 -27 33 -225q29 -172 20 -203 q-8 -33 -162 -379l-135 -301q68 211 105 344q37 86 106 326q27 135 27 241q0 190 -88 191q-176 0 -359 -502q-55 -154 -112 -358l-62 -222zM424 895l80 -10q43 57 47 133q2 23 0 51l-2 18v9h-21q-8 -31 -56 -100.5t-48 -100.5zM592 1761q94 4 104 -28q0 -31 2 -84 q2 -39 17 -84l-94 153q-18 27 -29 43z" />
<glyph unicode="&#xc1;" horiz-adv-x="817" d="M-84 -268q90 336 119 504q4 25 4 61q0 20 -4 70q-4 88 4 116q10 39 115.5 120t128.5 198q-219 -74 -330 -133q4 33 10 70.5t23 62.5q82 -4 176 14q117 23 166 70q88 88 176 254q135 256 145 274q-16 -123 -35 -246q-18 -141 -16 -245q6 0 498 41q-182 -39 -512 -111 q2 -27 34 -225q29 -172 21 -203q-10 -33 -164 -379l-133 -301q68 211 104 344q35 86 105 326q29 135 29 241q0 190 -88 191q-176 0 -359 -502q-57 -154 -115 -358q-31 -111 -59 -222zM420 895l78 -10q45 57 49 133q0 23 -2 51v18q-2 6 0 9h-23q-6 -31 -54 -100.5t-48 -100.5 zM766 1599q51 63 90 138q10 23 18 32q29 31 119 29q-30 -26 -157 -137z" />
<glyph unicode="&#xc2;" horiz-adv-x="817" d="M-66 -268q90 336 119 504q4 25 4 61q0 20 -2 70q-6 88 2 116q10 39 92 123t105 199q-82 -27 -166 -72q-33 -16 -117 -65q4 33 10.5 70.5t22.5 62.5q82 -4 176 14q117 23 166 70q88 88 176 254q135 256 146 274q-16 -123 -35 -246q-18 -141 -17 -245q6 0 498 41 q-182 -39 -512 -111q2 -27 35 -225q29 -172 20 -203q-10 -33 -163 -379l-134 -301q68 211 105 344q37 86 104 326q29 135 29 241q0 190 -88 191q-176 0 -358 -502q-55 -154 -115 -358q-29 -111 -60 -222zM438 895l80 -10q43 57 47 133q0 23 -2 51v18v9h-20 q-8 -31 -56.5 -100.5t-48.5 -100.5zM541 1485l223 172l57 -144l45 -61l-84 76l-28 71z" />
<glyph unicode="&#xc3;" horiz-adv-x="817" d="M-72 -268q90 336 119 504q4 25 4 61q0 20 -2 70q-4 82 2 112q211 141 248 328q-201 -68 -334 -139q4 33 10.5 70.5t22.5 62.5q84 -4 176 14q117 23 166 70q90 88 176 254q137 256 148 274q-18 -123 -37 -246q-18 -141 -17 -245q6 0 498 41q-182 -39 -512 -111 q2 -27 35 -225q29 -172 20 -203q-8 -33 -164 -379l-133 -301q68 211 105 344q37 86 104 326q29 135 29 241q0 190 -88 191q-176 0 -359 -502q-55 -154 -114 -358q-29 -111 -60 -222zM432 895l80 -10q43 57 47 133q0 23 -2 51v18v9h-20q-8 -31 -56.5 -100.5t-48.5 -100.5z M455 1540l213 162q18 -43 108 -92q-39 8 -90 10q-74 2 -231 -80zM846 1579q12 -2 22 -2q31 2 181 88l-172 -158q6 45 -31 72z" />
<glyph unicode="&#xc4;" horiz-adv-x="817" d="M-68 -268q90 336 119 504q4 25 4 61q0 20 -2 70q-4 88 2 116q12 39 93 123t106 199q-84 -27 -166 -72q-35 -16 -119 -65q6 33 11.5 70.5t21.5 62.5q84 -4 176 14q117 23 166 70q90 88 176 254q137 256 148 274q-18 -123 -37 -246q-18 -141 -17 -245q6 0 498 41 q-182 -39 -510 -111q0 -27 33 -225q29 -172 20 -203q-8 -33 -161 -379l-136 -301q68 211 105 344q37 86 106 326q27 135 27 241q0 190 -88 191q-176 0 -358 -502q-55 -154 -113 -358l-62 -222zM436 895l80 -10q43 57 47 133q2 23 0 51l-2 18v9h-20q-8 -31 -56.5 -100.5 t-48.5 -100.5zM592 1589q10 37 102 80l-86 -145l-2 4q-23 27 -14 61zM776 1575q10 37 103 80l-86 -146l-2 4q-23 27 -15 62z" />
<glyph unicode="&#xc5;" horiz-adv-x="817" d="M-82 -268q90 336 119 504q4 25 4 61q0 20 -2 70q-6 88 2 116q10 39 92 123t105 199q-82 -27 -166 -72q-33 -16 -117 -65q4 33 10 70.5t23 62.5q82 -4 176 14q117 23 166 70q88 88 176 254q135 256 145 274q-16 -123 -35 -246q-18 -141 -16 -245q6 0 498 41 q-182 -39 -512 -111q2 -27 35 -225q29 -172 20 -203q-10 -33 -164 -379l-133 -301q68 211 105 344q35 86 104 326q29 135 29 241q0 190 -88 191q-176 0 -359 -502q-57 -154 -115 -358q-31 -111 -59 -222zM422 895l78 -10q45 57 49 133q0 23 -2 51v18q-2 6 0 9h-23 q-6 -31 -54 -100.5t-48 -100.5zM662 1602q0 27 10 59q14 51 40.5 86t47.5 35q33 0 33 -64q0 -27 -9 -57q-14 -53 -42 -88t-48 -35q-33 0 -32 64zM690 1612q4 -39 19 -39q16 0 42.5 39t36.5 71q21 80 -24 80t-66 -80q-10 -35 -8 -71z" />
<glyph unicode="&#xc6;" horiz-adv-x="1482" d="M-37 -268q90 336 119 504q4 25 4 61q0 20 -2 70q-6 88 2 116q10 39 92 123t105 199q-82 -27 -166 -72q-33 -16 -117 -65q4 33 10 70.5t23 62.5q82 -4 176 14q117 23 166 70q88 88 176 254q135 256 145 274q-4 -33 -12 -94q561 57 823 145l-80 -166q2 33 -24 82 q-4 6 -6 17q-160 -45 -719 -115q-35 -236 -33 -360q6 0 498 41q-180 -39 -512 -111q2 -27 35 -225q29 -172 20 -203q-8 -33 -160 -371q37 2 64 -16q188 63 756 262q-58 -191 -181 -588l13 39q31 123 34 174q12 164 -194 164q-115 0 -203 -29.5t-176 -60.5q-61 -16 -145 -21 l-105 -233q68 211 105 344q37 86 104 326q29 135 29 241q0 190 -88 191q-176 0 -359 -502q-55 -154 -114 -358q-29 -111 -60 -222zM467 895l80 -10q43 57 47 133q0 23 -2 51v18v9h-21q-8 -31 -56 -100.5t-48 -100.5z" />
<glyph unicode="&#xc7;" horiz-adv-x="800" d="M-160 -266l54 303l114 391q10 49 115 324q119 307 207 489q27 53 82 91t112 38q70 0 131 -70q55 -61 56 -114q0 -10 -2 -19l-127 -473q-6 158 -37 269q37 49 71 100q43 66 43 113q0 88 -157 165q-184 -156 -389 -761q-59 -174 -228 -773q289 264 465 394q94 70 338 227 q6 -72 -37 -309q-4 158 -90 157q-43 0 -313 -215zM100 -195q0 14 23 43q61 80 98 156q-31 -104 -71 -262q-49 35 -50 63z" />
<glyph unicode="&#xc8;" horiz-adv-x="1173" d="M-180 10q27 166 278 355q139 104 410 251q98 51 295 162q-49 12 -107 4q-100 -16 -198 -34q-115 -18 -209 -11q35 106 254 236q68 41 334 174q141 70 213 113l-43 -160q-2 2 -52 71q-164 -80 -327 -159q-195 -98 -291 -213q8 -12 35 -25q4 0 20 2h37q68 0 303 58 q213 51 344 53q-127 -90 -334 -197l-348 -180q-481 -260 -520 -442q526 150 1186 383q-57 -191 -180 -588l10 39q31 123 35 174q12 164 -195 164q-133 0 -369 -74q-186 -59 -374 -119q-125 -35 -207 -37zM680 1573q94 4 104 -29q0 -31 2 -84q2 -39 17 -84l-94 154 q-18 27 -29 43z" />
<glyph unicode="&#xc9;" horiz-adv-x="1173" d="M-178 10q27 166 276 355q139 104 412 251q98 51 295 162q-51 12 -107 4q-100 -16 -200 -34q-113 -18 -209 -11q37 106 254 236q70 41 334 174q141 70 213 113l-43 -160q0 2 -52 71q-164 -80 -327 -159q-193 -98 -291 -213q10 -12 35 -25q4 0 22 2h37q68 0 303 58 q211 51 344 53q-129 -90 -336 -197q-174 -90 -346 -180q-481 -260 -522 -442q526 150 1186 383q-57 -191 -180 -588l10 39q33 123 37 174q10 164 -197 164q-131 0 -369 -74q-186 -59 -372 -119q-127 -35 -207 -37zM778 1370q51 61 90 135q10 23 19 33q27 33 119 29 q-33 -26 -158 -137z" />
<glyph unicode="&#xca;" horiz-adv-x="1173" d="M-186 10q27 166 276 355q141 104 412 251q98 51 295 162q-49 12 -107 4q-100 -16 -201 -34q-113 -18 -206 -11q35 106 254 236q68 41 333 174q141 70 213 113l-43 -160q-2 2 -51 71q-164 -80 -330 -159q-193 -98 -288 -213q8 -12 35 -25q4 0 20 2h37q68 0 303 58 q213 51 344 53q-127 -90 -334 -197l-348 -180q-481 -260 -520 -442q524 150 1186 383q-58 -191 -181 -588l11 39q31 123 34 174q12 164 -194 164q-133 0 -369 -74q-188 -59 -375 -119q-125 -35 -206 -37zM705 1448l223 172l57 -143l45 -62l-84 76l-28 72z" />
<glyph unicode="&#xcb;" horiz-adv-x="1173" d="M-166 10q27 166 277 355q141 104 411 251q98 51 295 162q-49 12 -106 4q-100 -16 -201 -34q-113 -18 -207 -11q35 106 254 236q68 41 334 174q141 70 213 113l-43 -160q-2 2 -51 71q-166 -80 -330 -159q-193 -98 -289 -213q8 -12 35 -25q4 0 20 2h37q68 0 303 58 q213 51 344 53q-127 -90 -335 -197q-172 -90 -346 -180q-481 -260 -521 -442q524 150 1186 383q-57 -191 -180 -588l10 39q31 123 35 174q12 164 -195 164q-133 0 -368 -74q-188 -59 -375 -119q-125 -35 -207 -37zM674 1389q10 37 102 79l-86 -145l-4 4q-23 27 -12 62z M858 1374q10 37 103 80l-87 -145l-4 4q-23 27 -12 61z" />
<glyph unicode="&#xcc;" horiz-adv-x="1038" d="M-188 -229q20 123 57 350q233 35 383 104l321 873q6 27 17 78q4 51 -33 51q-31 0 -190 -70q-166 -72 -186.5 -101.5t-90.5 -164.5q8 92 60 287q389 88 1105 229l-6 14q-8 -8 -239 -61q-258 -57 -361 -127q-111 -309 -321 -969q18 -41 100 -41q74 0 217 22.5t215 24.5 q-51 -10 -194 -28q-328 -43 -498 -119q-252 -113 -356 -352zM543 1688q92 4 102 -29q0 -31 2 -82q4 -41 17 -86l-95 154q-16 29 -26 43z" />
<glyph unicode="&#xcd;" horiz-adv-x="1038" d="M-188 -229q20 123 57 350q233 35 383 104l321 873q6 27 17 78q4 51 -33 51q-31 0 -190 -70q-166 -72 -186.5 -101.5t-88.5 -164.5q6 92 58 287q389 88 1105 229l-6 14q-8 -8 -239 -61q-258 -57 -361 -127q-111 -309 -321 -969q18 -41 100 -41q74 0 217 22.5t215 24.5 q-51 -10 -194 -28q-328 -43 -498 -119q-252 -113 -356 -352zM721 1491q51 61 90 135q10 23 18 33q27 33 119 29q-32 -27 -157 -138z" />
<glyph unicode="&#xce;" horiz-adv-x="1038" d="M-193 -229q23 123 58 350q233 35 383 104l321 873q8 27 19 78q4 51 -35 51q-31 0 -192.5 -71t-182 -100.5t-90.5 -164.5q8 92 59 287q387 88 1104 229l-6 14q-6 -8 -239 -61q-256 -57 -361 -127q-109 -309 -319 -969q18 -41 98 -41q76 0 219 22.5t213 24.5 q-49 -10 -194 -28q-326 -43 -496 -119q-254 -113 -359 -352zM489 1538l224 172l57 -143l45 -62l-84 76l-29 72z" />
<glyph unicode="&#xcf;" horiz-adv-x="1038" d="M-172 -229q23 123 57 350q233 35 383 104l322 873q8 27 18 78q4 51 -35 51q-29 0 -188 -70q-166 -72 -186.5 -101.5t-89.5 -164.5q8 92 59 287q389 88 1106 229l-8 14q-7 -8 -238 -61q-258 -57 -362 -127q-109 -309 -320 -969q18 -41 98 -41q76 0 219.5 22.5t215.5 24.5 q-51 -10 -197 -28q-326 -43 -496 -119q-252 -113 -358 -352zM532 1477q8 37 101 79l-84 -145l-4 4q-23 27 -13 62zM717 1462q8 37 102 80l-86 -145l-4 4q-23 27 -12 61z" />
<glyph unicode="&#xd0;" horiz-adv-x="978" d="M45 -176q0 104 2 211q2 141 19 198q0 2 210 216q252 256 361 370q16 20 240 207q154 131 174 225q-47 51 -144 60q2 0 -159 0h-78q-51 2 -88 0q-109 0 -187 -15q-225 -41 -254 -200h21q25 86 45 243q70 -35 260 -16q324 31 315 31q135 0 189 -11q74 -12 180 -65 q-35 -66 -145 -162q-89 -69 -177 -141q-72 -59 -108 -101q-162 -166 -322 -329q-184 -199 -268 -371q-35 -70 -86 -350zM115 944h379l-361 -55zM139 387l105 379q59 197 153 483l54 -12l-64 -256q-53 -156 -108 -311q-72 -203 -140 -283z" />
<glyph unicode="&#xd1;" horiz-adv-x="1159" d="M-190 -215q12 129 36 391q195 41 373 270q88 111 254 410q84 150 131 215q-4 -63 -35 -295q-23 -180 -16 -297q0 -23 10 -22q8 0 23 18q74 207 340 545q104 135 405 393q279 244 484 387q-64 -126 -144 -368q-2 119 -90 118q-45 0 -151 -75q-82 -57 -134 -107 q-336 -328 -538 -709q-160 -299 -277 -706q10 330 60 934q-94 -152 -226 -326q-106 -139 -213 -278q-199 -266 -292 -498zM481 1331l213 162q21 -43 111 -92q-39 8 -90 10q-76 2 -234 -80zM874 1370q12 -2 23 -2q31 2 180 88l-172 -158q6 45 -31 72z" />
<glyph unicode="&#xd2;" horiz-adv-x="688" d="M-98 225q0 127 35 264q18 68 108 248q113 231 225 377q152 195 271 195q172 0 172 -228q0 -82 -23 -166q-51 -193 -241 -505q-240 -400 -416 -400q-131 0 -131 215zM-4 252q0 -176 86 -176q154 0 350 368q137 262 180 418q45 170 45 248q0 135 -92 135q-127 0 -338 -350 q-172 -283 -201.5 -394.5t-29.5 -248.5zM489 1661q94 4 105 -29q0 -31 2 -84q2 -39 16 -84l-94 154q-18 27 -29 43z" />
<glyph unicode="&#xd3;" horiz-adv-x="688" d="M-104 225q0 127 36 264q18 68 107 248q115 231 227 377q152 195 271 195q172 0 172 -228q0 -82 -23 -166q-51 -193 -242 -505q-239 -400 -415 -400q-133 0 -133 215zM-8 252q0 -176 86 -176q154 0 350 368q137 262 178 418q47 170 47 248q0 135 -92 135q-127 0 -340 -350 q-170 -283 -199.5 -394.5t-29.5 -248.5zM594 1499q51 61 88 135q12 23 20 33q27 33 119 29q-32 -26 -157 -137z" />
<glyph unicode="&#xd4;" horiz-adv-x="688" d="M-96 225q0 127 37 264q18 68 108 248q113 231 225 377q152 195 271 195q172 0 172 -228q0 -82 -23 -166q-51 -193 -241 -505q-240 -400 -416 -400q-133 0 -133 215zM0 252q0 -176 86 -176q154 0 350 368q137 262 178 418q48 170 48 248q0 135 -93 135q-127 0 -338 -350 q-172 -283 -201.5 -394.5t-29.5 -248.5zM395 1460l223 172l58 -143l45 -62l-84 76l-29 72z" />
<glyph unicode="&#xd5;" horiz-adv-x="688" d="M-94 225q0 127 37 264q18 68 106 248q115 231 227 377q150 195 269 195q174 0 174 -228q0 -82 -23 -166q-51 -193 -241 -505q-242 -400 -418 -400q-131 0 -131 215zM2 252q0 -176 84 -176q156 0 350 368q139 262 180 418q46 170 46 248q0 135 -91 135q-129 0 -340 -350 q-170 -283 -199.5 -394.5t-29.5 -248.5zM301 1462l213 162q21 -43 109 -92q-37 8 -88 10q-76 2 -234 -80zM694 1501q12 -2 21 -2q33 2 180 88l-170 -157q4 44 -31 71z" />
<glyph unicode="&#xd6;" horiz-adv-x="688" d="M-88 225q0 127 37 264q16 68 106 248q113 231 228 377q150 195 268 195q172 0 172 -228q0 -82 -23 -166q-51 -193 -239 -505q-242 -400 -418 -400q-131 0 -131 215zM6 252q0 -176 86 -176q154 0 350 368q137 262 181 418q45 170 45 248q0 135 -93 135q-127 0 -337 -350 q-172 -283 -202 -394.5t-30 -248.5zM496 1503q8 37 100 80l-84 -145l-4 4q-23 27 -12 61zM680 1489q8 37 100 80l-84 -146l-4 4q-23 27 -12 62z" />
<glyph unicode="&#xd8;" horiz-adv-x="688" d="M47 178q18 33 47 76q-25 121 -24 285q0 250 34 376q35 135 115 244q106 145 240 146q102 0 159 -185q49 94 74 150q14 -55 45 -121q-45 -33 -104 -105q12 -94 12 -215q0 -238 -27 -340q-33 -123 -94 -243q-117 -230 -252 -230q-100 0 -163 170l-54 -100zM100 418 q0 -76 6 -144q154 244 443 721q-35 254 -148 254t-192 -186q-29 -63 -66 -201q-43 -166 -43 -444zM121 207q39 -137 135 -137q94 0 199 206q66 129 90 224q10 35 14 153q6 148 -4 293q-182 -268 -434 -739z" />
<glyph unicode="&#xd9;" horiz-adv-x="944" d="M-35 895q92 14 314 209q49 43 77 65q-6 -47 -84 -469q-55 -297 -55 -462q0 -57 14 -74q10 -12 45 24q59 66 275 361l440 602q-213 -557 -260 -739q-31 -111 -31 -242q0 -43 7 -80q2 -14 24 -94q-57 -119 -174 -385q43 309 100 659q80 215 283 799q-145 -233 -438 -690 q-264 -401 -314 -371q-20 14 -20 92q0 176 55 469q68 358 78 467q-125 -47 -201 -172q-59 -98 -104 -272q-2 147 -31 303zM543 1661q94 4 104 -29q0 -31 2 -84q2 -39 17 -84l-95 154q-16 27 -28 43z" />
<glyph unicode="&#xda;" horiz-adv-x="933" d="M-39 895q92 14 313 209q49 43 78 65q-6 -47 -84 -469q-55 -297 -55 -462q0 -57 14 -74q10 -12 45 24q59 66 275 361l438 602q-211 -557 -260 -739q-29 -111 -29 -242q0 -43 4 -80q2 -14 27 -94q-57 -119 -176 -385q45 309 100 659q82 215 283 799q-145 -233 -436 -690 q-264 -401 -314 -371q-23 14 -22 92q0 176 55 469q68 358 80 467q-127 -47 -203 -172q-59 -98 -102 -272q-2 147 -31 303zM647 1499q51 61 88 135q12 23 21 33q27 33 118 29q-32 -26 -157 -137z" />
<glyph unicode="&#xdb;" horiz-adv-x="933" d="M-31 895q92 14 314 209q49 43 77 65q-6 -47 -84 -469q-55 -297 -55 -462q0 -57 12 -74q12 -12 48 24q59 66 274 361l438 602q-211 -557 -260 -739q-29 -111 -28 -242q0 -43 4 -80q2 -14 26 -94q-57 -119 -176 -385q45 309 100 659q80 215 283 799q-145 -233 -436 -690 q-264 -401 -313 -371q-23 14 -23 92q0 176 55 469q68 358 80 467q-127 -47 -203 -172q-59 -98 -102 -272q-4 147 -31 303zM594 1464l225 172l58 -143l43 -61l-84 75l-29 72z" />
<glyph unicode="&#xdc;" horiz-adv-x="935" d="M-6 895q90 14 313 209q49 43 76 65q-6 -47 -84 -469q-53 -297 -53 -462q0 -57 12 -74q10 -12 45 24q61 66 275 361l440 602q-211 -557 -260 -739q-31 -111 -31 -242q0 -43 6 -80q2 -14 25 -94q-55 -119 -174 -385q45 309 100 659q80 215 283 799q-145 -233 -439 -690 q-264 -401 -313 -371q-20 14 -20 92q0 176 55 469q68 358 78 467q-125 -47 -201 -172q-59 -98 -104 -272q-2 147 -29 303zM606 1380q10 37 103 80l-86 -145l-5 4q-23 27 -12 61zM791 1366q10 37 102 80l-86 -146l-4 5q-23 27 -12 61z" />
<glyph unicode="&#xde;" horiz-adv-x="1433" d="M51 74q4 16 74 94t84 119q88 262 115 358q53 203 53 371q6 4 35 10q68 14 65 92q94 397 185 611q12 25 14 24q4 -2 2 -18q-6 -106 -80 -467q59 -29 293 -19q57 2 172 11q92 6 117 6q80 0 143 -17q102 -25 88 -82q-12 -43 -233 -159q-201 -105 -310 -140 q-160 -49 -301 -125q-39 -20 -178 -215l55 203q90 47 234 96q121 39 240 80q283 102 358 273q-80 68 -221 67q-113 0 -258 -37q-47 -12 -250 -73q-143 -287 -199 -475l-182 -615q-16 -61 -57 -319q0 137 -17 256q0 4 -23.5 34.5t-17.5 55.5z" />
<glyph unicode="&#xdf;" horiz-adv-x="1185" d="M-37 -127q6 109 17 436l10 357q6 164 12 178l47 284q213 45 578 97q322 43 379 43q63 0 106 -25q-27 -51 -154 -129q-18 -10 -188 -104q-86 -47 -147 -92q61 -8 174 -7q121 2 174 -2q113 -12 164 -61q-10 -63 -23 -92q-201 -143 -459 -357q-223 -186 -444 -372 q-111 -90 -191 -392q37 319 105 580q31 109 88 381q78 367 92 537q-227 -47 -289 -650q-10 -205 -51 -610zM115 70q240 135 516 354q344 272 397 424q-43 0 -136 13t-118 13q-106 0 -225 -24q-162 -35 -254 -102zM301 852q150 47 332 145q94 53 291 164q-117 16 -224 17 q-157 0 -311 -39z" />
<glyph unicode="&#xe0;" horiz-adv-x="671" d="M-25 90q0 131 357 266q29 10 104 35q-2 43 6 123q10 88 11 125q-135 -8 -255 -86t-188 -193q25 119 29 199q231 20 455 160q-45 -168 -45 -287q0 -203 124 -293q-145 -274 -211 -424q31 102 64 203q33 121 33 209t-31 166q-35 -20 -90 -72q-106 -100 -152 -131 q-96 -70 -172 -65q-14 0 -26.5 20.5t-12.5 44.5zM-8 72q0 -35 31 -35q68 37 204 119q131 86 140 159q-63 10 -205 -67q-148 -82 -166 -150q-4 -14 -4 -26zM391 1155q94 4 105 -29q0 -31 2 -84q4 -39 16 -84l-94 154q-16 27 -29 43z" />
<glyph unicode="&#xe1;" horiz-adv-x="671" d="M-20 90q0 131 356 266q29 10 106 35q-2 43 7 123q10 88 10 125q-137 -8 -257 -86t-188 -193q25 119 31 199q229 20 455 160q-47 -168 -47 -287q0 -203 127 -293q-147 -274 -213 -424q33 102 63 203q35 121 35 209t-31 166q-37 -20 -90 -72q-109 -100 -151 -131 q-98 -70 -175 -65q-12 0 -25 20.5t-13 44.5zM-2 72q0 -35 31 -35q66 37 202 119q131 86 140 159q-61 10 -203 -67q-148 -82 -166 -150q-4 -14 -4 -26zM449 922q51 61 90 135q10 23 18 33q27 33 119 28q-31 -26 -158 -137z" />
<glyph unicode="&#xe2;" horiz-adv-x="671" d="M-20 90q0 131 358 266q27 10 104 35q-2 43 7 123q10 88 10 125q-137 -8 -257 -86t-188 -193q25 119 31 199q229 20 455 160q-47 -168 -47 -287q0 -203 127 -293q-145 -274 -211 -424q31 102 61 203q35 121 35 209t-31 166q-37 -20 -90 -72q-106 -100 -151 -131 q-98 -70 -175 -65q-12 0 -25 20.5t-13 44.5zM-2 72q0 -35 31 -35q68 37 202 121t140 157q-61 10 -203 -67q-148 -82 -166 -150q-4 -14 -4 -26zM272 944l226 172l57 -143l43 -62l-84 76l-29 72z" />
<glyph unicode="&#xe3;" horiz-adv-x="671" d="M-12 90q0 131 358 266q27 10 105 35q-2 43 6 123q10 88 10 125q-135 -8 -256 -86t-188 -193q27 119 30 199q229 20 455 160q-47 -168 -47 -287q0 -203 127 -293q-145 -274 -211 -424q31 102 61 203q35 121 35 209t-31 166q-37 -20 -90 -72q-106 -100 -151 -131 q-98 -70 -174 -65q-12 0 -25.5 20.5t-13.5 44.5zM6 72q0 -35 31 -35q68 37 202 121t140 157q-61 10 -203 -67q-148 -82 -166 -150q-4 -14 -4 -26zM209 893l213 162q20 -43 108 -92q-37 8 -88 10q-76 2 -233 -80zM602 932q12 -2 21 -2q33 2 180 88l-170 -158q4 45 -31 72z " />
<glyph unicode="&#xe4;" horiz-adv-x="671" d="M0 90q0 131 356 266q27 10 105 35q-2 43 6 123q10 88 10 125q-135 -8 -255 -86t-187 -193q25 119 28 199q229 20 455 160q-45 -168 -45 -287q0 -203 125 -293q-145 -274 -211 -424q31 102 64 203q33 121 32 209q0 88 -30 166q-35 -20 -91 -72q-106 -100 -151 -131 q-96 -70 -174 -65q-12 0 -24.5 20.5t-12.5 44.5zM16 72q0 -35 31 -35q68 37 205 119q131 86 139 159q-63 10 -205 -67q-148 -82 -166 -150q-4 -14 -4 -26zM334 893q10 37 102 80l-86 -146l-4 4q-23 27 -12 62zM518 879q10 37 103 79l-86 -145l-5 4q-23 27 -12 62z" />
<glyph unicode="&#xe5;" horiz-adv-x="671" d="M-10 90q0 131 356 266q27 10 105 35q-2 43 6 123q10 88 10 125q-135 -8 -255 -86t-187 -193q25 119 28 199q229 20 455 160q-45 -168 -45 -287q0 -203 125 -293q-145 -274 -211 -424q31 102 63 203q33 121 33 209t-31 166q-35 -20 -90 -72q-106 -100 -151 -131 q-96 -70 -174 -65q-12 0 -24.5 20.5t-12.5 44.5zM6 72q0 -35 31 -35q68 37 205 119q131 86 139 159q-63 10 -205 -67q-148 -82 -166 -150q-4 -14 -4 -26zM406 868q0 27 8 60q14 51 40.5 86t49.5 35q31 0 31 -64q0 -27 -9 -57q-14 -53 -41 -88t-47 -35q-33 0 -32 63zM434 879 q2 -39 19 -39q16 0 42.5 39t34.5 71q23 80 -22 80t-68 -80q-8 -35 -6 -71z" />
<glyph unicode="&#xe6;" horiz-adv-x="759" d="M29 90q0 131 356 266q29 10 107 35q-2 43 6 123q10 88 10 125q-137 -8 -257 -86t-188 -193q25 119 31 199q231 20 457 162l-47 -246h20q4 12 8 29q47 74 152 211q8 2 18 2q76 0 86 -230q-154 -6 -235 -71q-37 -55 -64 -148q-23 -76 -45 -153q-16 -55 -61 -140 q133 59 281 144q68 41 200 114q2 -78 -31.5 -203t-64.5 -186q-20 -43 -53 -98q10 23 18 37l51 156l15 88q6 45 -35 47q-8 0 -32.5 -2t-41.5 -2q-41 0 -166 -52q-55 -23 -166 -69q49 182 99 327q-39 -33 -103 -92q-178 -166 -286 -159q-12 0 -25.5 20.5t-13.5 44.5zM47 72 q0 -35 31 -35q68 37 201 121t141 157q-61 10 -203 -67q-148 -82 -166 -150q-4 -14 -4 -26zM479 350l39 94h-20zM580 489l184 15q-9 38 -23 104q-14 49 -65 78q-82 -139 -96 -197z" />
<glyph unicode="&#xe7;" horiz-adv-x="483" d="M-31 12q-2 37 4 64q23 80 254 551q41 45 125 61l-73 -293l18 6q-6 10 -12 64q-8 61 -27 100q-188 -301 -221 -424q-6 -18 -19 -49q-8 -27 7 -76q88 47 223 138l2 4l-21 2q74 33 220 129q-62 -213 -130 -422q14 102 41 317q-84 -59 -149 -100q-31 -102 -84 -307 q-49 35 -49 63q0 14 22 43q72 94 123 209q-193 -119 -250 -117q0 2 -4 37z" />
<glyph unicode="&#xe8;" horiz-adv-x="692" d="M-137 -16l43 -4l102 509q45 12 111 19q45 2 141 10q25 41 76 117q39 57 80 100q8 2 18 2q76 0 86 -227q-154 -6 -235 -72q-37 -57 -64 -147q-23 -78 -45 -154q-16 -55 -61 -139q133 57 280 143q68 39 201 115q2 -78 -31.5 -203t-64.5 -188q-20 -41 -54 -96q10 20 19 34 l53 158l12 88q6 45 -34 47q-8 0 -33 -2t-41 -2q-41 0 -166 -51q-55 -23 -166 -72q86 315 174 531q-31 -27 -35 -27l-2 -2l-2 -2q-8 -4 -8 -10q-2 -4 16 -29q4 35 -12 35q-10 0 -33 -19q23 2 27 5q18 6 18 18l3 12q-16 -2 -29 -2q-139 16 -248 -237q-27 -61 -57 -154l-21 -61 q-8 -25 -18 -43zM311 510l185 14q-9 41 -23 107q-14 49 -65 78q-82 -139 -97 -199zM385 1155q94 4 104 -29q0 -31 3 -84q2 -39 16 -84l-94 154q-18 27 -29 43z" />
<glyph unicode="&#xe9;" horiz-adv-x="692" d="M-135 -16l43 -4l104 509q43 12 111 19q43 2 139 10q25 41 76 117q39 57 80 100q10 2 18 2q78 0 86 -227q-152 -6 -235 -72q-37 -57 -64 -147q-23 -78 -43 -154q-18 -55 -63 -139q133 57 280 143q68 39 201 115q2 -78 -30.5 -203t-63.5 -188q-20 -41 -55 -96q12 20 18 34 l53 158l12 88q8 45 -34 47q-8 0 -33 -2t-41 -2q-41 0 -164 -51q-55 -23 -166 -72q84 315 172 531q-31 -27 -35 -27l-2 -2l-2 -2q-8 -4 -8 -10q0 -4 19 -29q4 35 -13 35q-12 0 -35 -19q23 2 29 5q16 6 19 18l2 12q-16 -2 -29 -2q-139 16 -250 -237q-27 -61 -57 -154l-21 -61 q-8 -25 -18 -43zM313 510l187 14q-9 41 -23 107q-14 49 -65 78q-82 -139 -99 -199zM477 936q51 61 88 135q12 23 21 33q27 33 119 29q-33 -27 -158 -138z" />
<glyph unicode="&#xea;" horiz-adv-x="692" d="M-131 -16l43 -4l102 509q45 12 111 19q45 2 141 10q25 41 76 117q39 57 80 100q10 2 18 2q78 0 86 -227q-154 -6 -235 -72q-37 -57 -64 -147q-23 -78 -43 -154q-18 -55 -63 -139q133 57 280 143q68 39 201 115q2 -78 -30.5 -203t-63.5 -188q-23 -41 -55 -96q10 20 18 34 l53 158l13 88q8 45 -35 47q-8 0 -33 -2t-41 -2q-41 0 -166 -51q-55 -23 -164 -72q84 315 172 531q-31 -27 -34 -27l-3 -2l-2 -2q-8 -4 -8 -10q0 -4 17 -29q6 35 -11 35q-12 0 -34 -19q23 2 28 5q16 6 19 18v12q-14 -2 -29 -2q-137 16 -248 -237q-27 -61 -57 -154l-21 -61 q-8 -25 -18 -43zM313 932l226 172l57 -143l43 -62l-84 76l-29 72zM317 510l185 14q-7 41 -23 107q-14 49 -63 78q-82 -139 -99 -199z" />
<glyph unicode="&#xeb;" horiz-adv-x="692" d="M-115 -16l43 -4l105 509q43 12 110 19q45 2 140 10q27 41 75 117q39 57 80 100q10 2 19 2q78 0 88 -227q-154 -6 -238 -72q-35 -57 -63 -147q-20 -78 -43 -154q-18 -55 -64 -139q135 57 281 143q70 39 200 115q2 -78 -30.5 -203t-63.5 -188q-20 -41 -55 -96q12 20 20 34 l52 158l14 88q6 45 -37 47q-8 0 -32.5 -2t-41.5 -2q-39 0 -163 -51q-55 -23 -166 -72q84 315 172 531q-31 -27 -33 -27l-2 -2l-4 -2q-8 -4 -8 -10q0 -4 18 -29q4 35 -12 35q-12 0 -35 -19q25 2 29 5q18 6 18 18l2 12q-16 -2 -29 -2q-139 16 -249 -237q-27 -61 -58 -154 l-20 -61q-8 -25 -19 -43zM334 510l186 14q-8 41 -22 107q-14 49 -66 78q-82 -139 -98 -199zM362 897q10 37 103 80l-86 -146l-4 5q-23 27 -13 61zM547 883q10 37 102 80l-86 -146l-4 4q-23 27 -12 62z" />
<glyph unicode="&#xec;" d="M-70 -389q49 131 50 244q0 86 -27 161q70 49 129 150l68 299q-35 -12 -64 -41l-10 -10l26 98q39 16 119 49l-192 -729q-39 -133 -99 -221zM158 1026q94 4 102 -29q2 -31 4 -84q2 -39 17 -84l-97 154q-16 27 -26 43z" />
<glyph unicode="&#xed;" d="M-76 -389q49 131 49 244q0 86 -26 161q70 49 131 150l65 299q-33 -12 -61 -41l-10 -10l26 98q37 16 119 49l-192 -729q-41 -133 -101 -221zM217 868q53 61 90 136q12 23 21 32q27 33 118 29q-32 -26 -157 -137z" />
<glyph unicode="&#xee;" d="M-8 -389q49 131 49 244q0 86 -27 161q70 49 131 150l66 299q-33 -12 -61 -41l-11 -10l27 98q37 16 119 49l-193 -729q-41 -133 -100 -221z" />
<glyph unicode="&#xef;" horiz-adv-x="301" d="M-47 -389q49 131 49 244q0 86 -27 161q70 49 129 150l68 299q-33 -12 -61 -41l-13 -10l27 98q39 16 119 49l-191 -729q-41 -133 -100 -221zM143 778q10 37 103 80l-86 -145l-2 4q-23 27 -15 61zM328 764q10 37 102 80l-86 -146l-2 4q-23 27 -14 62z" />
<glyph unicode="&#xf0;" horiz-adv-x="618" d="M-137 109q31 111 168 284q154 193 270 230l64 -13q86 76 108 232q27 186 72 256l233 198q-68 -88 -135 -174q-80 -108 -113 -186q-37 -90 -92 -271.5t-61 -197.5q-20 -49 -39 -98q-31 -66 -66 -78q-98 -82 -227 -172q-143 -98 -180 -103q-18 27 -2 93zM-121 55 q127 72 277 191q199 160 198 241q0 37 -30.5 58.5t-69.5 21.5q-143 -121 -219 -217q-98 -125 -156 -295zM233 879l299 -43l-294 6z" />
<glyph unicode="&#xf1;" horiz-adv-x="587" d="M-37 -6q76 14 127 80q25 31 76 129q25 47 45 67l55 283q-104 -53 -186 -184q-2 37 2 157q74 35 225 97q2 -27 -6 -97q-8 -47 -14 -164q188 160 342 252q-37 -200 -283 -1044q2 72 6 215q2 160 -37 199q88 84 123 136t64 154q18 61 78 228q-238 -53 -355 -244 q-63 -104 -149 -405q-35 -127 -64 -197q6 51 17 149q2 111 -66 189zM176 834l213 161q19 -43 109 -92q-37 8 -88 10q-76 2 -234 -79zM567 872q14 -2 23 -2q33 2 180 88l-172 -157q6 44 -31 71z" />
<glyph unicode="&#xf2;" horiz-adv-x="487" d="M-90 49q0 63 24 154q33 119 123 237q129 170 285 170q41 0 66 -22q6 -6 43 -51q0 -37 -60 -179q-72 -174 -160 -286q-114 -150 -231 -150q-90 0 -90 127zM-51 100q0 -111 84 -123q102 57 213.5 188.5t132.5 215.5q10 33 12 137q0 16 6 35q-199 -18 -323 -158 q-82 -94 -113 -207q-12 -45 -12 -88zM256 1077q94 4 102 -28q2 -31 4 -84q2 -39 15 -84l-94 153q-16 27 -27 43z" />
<glyph unicode="&#xf3;" horiz-adv-x="487" d="M-86 49q0 63 23 154q33 119 122 237q129 170 287 170q39 0 64 -22q8 -6 43 -51q0 -37 -60 -179q-72 -174 -157 -286q-117 -150 -232 -150q-90 0 -90 127zM-49 100q0 -111 84 -123q102 57 213.5 188.5t134.5 215.5q8 33 10 137q0 16 6 35q-199 -18 -323 -158 q-82 -94 -113 -207q-12 -45 -12 -88zM342 862q51 61 88 135q12 23 21 33q27 33 118 29q-32 -26 -157 -137z" />
<glyph unicode="&#xf4;" horiz-adv-x="487" d="M-88 49q0 63 22 154q33 119 123 237q129 170 287 170q39 0 64 -22q8 -6 43 -51q0 -37 -60 -179q-72 -174 -158 -286q-116 -150 -231 -150q-90 0 -90 127zM-51 100q0 -111 86 -123q102 57 212.5 188.5t133.5 215.5q8 33 10 137q2 16 6 35q-199 -18 -323 -158 q-82 -94 -113 -207q-12 -45 -12 -88zM184 899l224 172l57 -143l45 -62l-84 76l-29 72z" />
<glyph unicode="&#xf5;" horiz-adv-x="487" d="M-78 49q0 63 23 154q33 119 123 237q129 170 286 170q39 0 64 -22q8 -6 43 -51q0 -37 -60 -179q-72 -174 -157 -286q-117 -150 -232 -150q-90 0 -90 127zM-41 100q0 -111 86 -123q102 57 213 188.5t133 215.5q8 33 10 137q2 16 7 35q-199 -18 -324 -158 q-82 -94 -113 -207q-12 -45 -12 -88zM129 834l213 161q19 -43 109 -92q-37 8 -89 10q-76 2 -233 -79zM520 872q14 -2 23 -2q33 2 180 88l-172 -157q6 44 -31 71z" />
<glyph unicode="&#xf6;" horiz-adv-x="487" d="M-59 49q0 63 22 154q33 119 123 237q129 170 287 170q39 0 63 -22q8 -6 43 -51q0 -37 -59 -179q-72 -174 -158 -286q-116 -150 -231 -150q-90 0 -90 127zM-23 100q0 -111 84 -123q104 57 215 188.5t134 215.5q8 33 10 137q2 16 6 35q-199 -18 -324 -158 q-82 -94 -112 -207q-12 -45 -13 -88zM209 778q10 37 102 80l-86 -145l-4 4q-23 27 -12 61zM393 764q10 37 103 80l-86 -146l-2 4q-25 27 -15 62z" />
<glyph unicode="&#xf8;" horiz-adv-x="487" d="M-29 49q0 63 25 154q31 119 123 237q129 170 284 170q39 0 64 -22q8 -6 45 -51q-2 -37 -59 -179q-74 -174 -160 -286q-115 -150 -232 -150q-90 0 -90 127zM10 100q0 -111 84 -123q102 57 213 188.5t133 215.5q9 33 13 137q0 16 4 35q-197 -18 -322 -158 q-84 -94 -112 -207q-12 -45 -13 -88zM39 98l559 527l-25 -93z" />
<glyph unicode="&#xf9;" horiz-adv-x="778" d="M6 373q14 88 8 133q162 84 258 160q29 -23 29 -74t-20 -141q-31 -127 -35 -140q-16 -102 -10 -196q346 272 477 540q-23 -150 -115 -493q-6 -23 57 -150q-61 -68 -204 -342q53 244 153 772q-123 -156 -260 -290q-158 -154 -197 -142q-14 4 0 60q39 117 78 235 q43 139 43 242q0 33 -4 61q-133 -51 -258 -235zM397 1155q94 4 105 -29q0 -31 2 -84q4 -39 16 -84l-94 154q-16 27 -29 43z" />
<glyph unicode="&#xfa;" horiz-adv-x="778" d="M10 373q14 88 8 133q160 84 258 160q29 -23 29 -74t-20 -141q-31 -127 -35 -140q-16 -102 -10 -196q346 272 477 540q-23 -150 -115 -493q-6 -23 57 -150q-61 -68 -204 -342q53 244 153 772q-123 -156 -260 -290q-158 -154 -196 -142q-14 4 0 60q39 117 75 235 q45 139 45 242q0 33 -4 61q-133 -51 -258 -235zM616 928q51 63 91 137q10 23 18 33q29 31 121 28q-33 -26 -160 -137z" />
<glyph unicode="&#xfb;" horiz-adv-x="778" d="M14 373q14 88 6 133q162 84 259 160q29 -23 28 -74q0 -51 -20 -141q-31 -127 -33 -140q-18 -102 -12 -196q346 272 477 540q-23 -150 -115 -493q-6 -23 58 -150q-62 -68 -205 -342q53 244 153 772q-123 -156 -260 -290q-156 -154 -196 -142q-14 4 2 60q37 117 75 235 q45 139 45 242q0 33 -6 61q-131 -51 -256 -235zM328 932l223 172l57 -143l45 -62l-86 76l-26 72z" />
<glyph unicode="&#xfc;" horiz-adv-x="778" d="M41 373q14 88 8 133q162 84 258 160q29 -23 29 -74t-21 -141q-31 -127 -34 -140q-16 -102 -11 -196q346 272 478 540q-23 -150 -115 -493q-6 -23 57 -150q-62 -68 -205 -342q53 244 154 772q-123 -156 -260 -290q-158 -154 -197 -142q-14 4 0 60q39 117 78 235 q43 139 43 242q0 33 -4 61q-133 -51 -258 -235zM408 815q10 37 102 80l-86 -145l-4 4q-23 27 -12 61zM592 801q10 37 102 80l-86 -146l-4 4q-23 27 -12 62z" />
<glyph unicode="&#xfe;" horiz-adv-x="1191" d="M-78 -604q4 16 74 95t84 120q88 260 113 356q53 205 53 371q6 4 35 10q68 14 67 92q92 399 184 613q10 25 15 24q4 -2 2 -18q-6 -106 -80 -469q57 -27 293 -17q57 2 172 11q92 4 117 4q78 0 143 -15q102 -27 86 -81q-10 -43 -231 -160q-204 -106 -310 -139 q-160 -51 -301 -125q-39 -20 -180 -215l57 200q90 49 234 97q119 41 239 79q283 104 359 275q-80 68 -221 67q-113 0 -258 -36q-49 -12 -250 -74q-143 -287 -199 -477l-182 -615q-16 -61 -57 -317q0 137 -17 256q-2 4 -24.5 34.5t-16.5 53.5z" />
<glyph unicode="&#xff;" horiz-adv-x="559" d="M-113 -1018q41 176 115 612q233 0 350 170q72 102 144 375q45 174 96 287q-145 -137 -424 -397q53 203 43 434q-39 -47 -74 -101q-12 -16 -37 -51q0 8 -10 58q-8 37 -4 57q37 18 96 61q70 53 97 68q-18 -143 -52 -442q248 244 422 467q-49 -205 -96 -408 q-61 -231 -143 -391q-29 -57 -140 -160q-129 -119 -161 -164q-92 -121 -222 -475zM401 868q10 37 103 80l-86 -145l-2 4q-23 27 -15 61zM586 854q10 37 102 80l-86 -146l-2 5q-23 27 -14 61z" />
<glyph unicode="&#x152;" horiz-adv-x="1306" d="M-51 225q0 127 35 264q18 68 108 248q113 231 227 377q150 195 269 195q172 0 172 -228q0 -82 -23 -166q14 -8 80 -14q33 0 146 4q90 4 143 4q-340 -27 -414 -100q-127 -289 -272 -504q-199 -295 -340 -295q-131 0 -131 215zM43 252q0 -176 86 -176q154 0 350 368 q137 262 180 418q46 170 46 248q0 135 -93 135q-127 0 -338 -350q-172 -283 -201.5 -394.5t-29.5 -248.5z" />
<glyph unicode="&#x153;" horiz-adv-x="778" d="M-2 49q0 63 22 154q33 119 123 237q129 170 287 170q49 0 82 -41q8 -10 33 -41l20 31q39 55 80 100q10 2 19 3q78 0 88 -228q-154 -6 -238 -72q-35 -57 -63 -147q-20 -78 -43 -154q-18 -55 -64 -139q135 57 281 144q70 39 200 112q2 -78 -30.5 -202t-63.5 -187 q-20 -41 -55 -96q12 20 20 35l52 157l14 88q6 45 -37 47q-8 0 -32.5 -2t-41.5 -2q-39 0 -164 -51q-55 -23 -165 -71q31 117 59 268q-160 -240 -295 -240q-88 0 -88 127zM35 100q0 -111 84 -123q147 82 280 275q18 78 74 168q2 34 4 104q2 12 6 29q-199 -18 -323 -158 q-82 -94 -113 -207q-12 -45 -12 -88zM543 428l186 12q-8 41 -22 107q-14 49 -66 78q-82 -139 -98 -197z" />
<glyph unicode="&#x178;" horiz-adv-x="724" d="M59 -446q14 162 76 559q289 135 473 540q49 109 127 324q70 199 111 276q-90 -41 -242 -233q-113 -143 -223 -289q-84 -100 -154 -162q51 207 138 635q-63 -80 -132 -217q-109 -221 -112 -229q16 72 10 139q0 2 -8 49q-8 37 -6 45q4 14 135 142q121 121 168 172 q-43 -186 -131 -637q223 266 635 751q-78 -227 -158 -454q-95 -263 -191 -443q-51 -98 -169 -260q-131 -176 -179 -256q-59 -102 -168 -452zM532 1552q8 37 101 80l-84 -145l-4 4q-23 27 -13 61zM717 1538q8 37 100 80l-84 -145l-4 4q-23 27 -12 61z" />
<glyph unicode="&#x2000;" horiz-adv-x="908" />
<glyph unicode="&#x2001;" horiz-adv-x="1817" />
<glyph unicode="&#x2002;" horiz-adv-x="908" />
<glyph unicode="&#x2003;" horiz-adv-x="1817" />
<glyph unicode="&#x2004;" horiz-adv-x="605" />
<glyph unicode="&#x2005;" horiz-adv-x="454" />
<glyph unicode="&#x2006;" horiz-adv-x="302" />
<glyph unicode="&#x2007;" horiz-adv-x="302" />
<glyph unicode="&#x2008;" horiz-adv-x="227" />
<glyph unicode="&#x2009;" horiz-adv-x="363" />
<glyph unicode="&#x200a;" horiz-adv-x="100" />
<glyph unicode="&#x2010;" horiz-adv-x="1148" d="M53 717l731 4q131 -4 209 -41q-41 4 -82 4q-174 0 -348 -90q-33 57 -125 90l-301 -14q4 -29 27 -52l8 -6h-98q-6 33 -21 105z" />
<glyph unicode="&#x2011;" horiz-adv-x="1148" d="M53 717l731 4q131 -4 209 -41q-41 4 -82 4q-174 0 -348 -90q-33 57 -125 90l-301 -14q4 -29 27 -52l8 -6h-98q-6 33 -21 105z" />
<glyph unicode="&#x2012;" horiz-adv-x="1148" d="M53 717l731 4q131 -4 209 -41q-41 4 -82 4q-174 0 -348 -90q-33 57 -125 90l-301 -14q4 -29 27 -52l8 -6h-98q-6 33 -21 105z" />
<glyph unicode="&#x2013;" horiz-adv-x="1232" d="M53 717l796 4q143 -4 228 -41q-45 4 -89 4q-190 0 -379 -90q-36 57 -137 90l-327 -14q4 -29 29 -52l9 -6h-107q-7 33 -23 105z" />
<glyph unicode="&#x2014;" horiz-adv-x="2256" d="M53 717l1593 4q285 -4 455 -41q-89 4 -179 4q-379 0 -758 -90q-72 57 -272 90l-656 -14q9 -29 59 -52l17 -6h-213q-13 33 -46 105z" />
<glyph unicode="&#x2018;" horiz-adv-x="172" d="M12 1241q0 16 27 51q57 74 94 146q-31 -102 -72 -260q-49 35 -49 63z" />
<glyph unicode="&#x2019;" horiz-adv-x="200" d="M47 1298q18 72 16 146q0 23 3 33q10 37 104 79q-8 -16 -123 -258z" />
<glyph unicode="&#x201c;" horiz-adv-x="430" d="M10 1241q0 16 27 51q57 74 94 146q-31 -102 -72 -260q-49 35 -49 63zM219 1257q0 17 27 52q57 74 92 145q-29 -102 -72 -260q-47 35 -47 63z" />
<glyph unicode="&#x201d;" horiz-adv-x="430" d="M49 1298q18 72 17 146q0 23 4 33q8 37 102 79q-8 -16 -123 -258zM246 1282q18 72 16 145q0 23 2 33q10 37 105 80q-8 -16 -123 -258z" />
<glyph unicode="&#x2022;" horiz-adv-x="487" d="M31 510q0 41 12 90q29 104 102 193q113 129 287 149q2 -51 -10 -149q-20 -78 -126 -203t-200 -180q-66 12 -65 100z" />
<glyph unicode="&#x202f;" horiz-adv-x="363" />
<glyph unicode="&#x205f;" horiz-adv-x="454" />
<glyph unicode="&#x2122;" horiz-adv-x="909" d="M51 1260q31 100 29 174q160 41 319 82q190 51 312 129q-14 -35 -35 -72q-23 -4 -301 -84q-70 -240 -207 -672q16 86 12 211q18 14 43 47q33 100 66 199q35 115 53 207q-39 -4 -106 -17q-55 -14 -115 -71q-29 -31 -70 -133zM250 823q12 70 47 234q16 2 29 4 q104 92 182 209q49 74 135 239q2 4 19 15q8 6 26 20q-39 -145 -57 -244q4 -4 12 -14q92 131 145 195q41 37 119 116q10 10 64 27q-86 -100 -125 -180q-31 -59 -60 -164q-51 -195 -43 -332q2 -18 25 -69q-41 -68 -72 -156q14 74 21 248q6 160 28 246q16 61 121 303 q-133 -104 -260 -318q20 123 31 223q-18 -25 -139 -198q-80 -115 -162 -201q-20 -20 -72 -164q-6 -18 -14 -39z" />
<glyph unicode="&#x25fc;" horiz-adv-x="655" d="M0 0v655h655v-655h-655z" />
</font>
</defs>
</svg>
