<?xml version="1.0" standalone="no"?>
<!DOCTYPE svg PUBLIC "-//W3C//DTD SVG 1.1//EN" "http://www.w3.org/Graphics/SVG/1.1/DTD/svg11.dtd" >
<svg xmlns="http://www.w3.org/2000/svg">
<metadata></metadata>
<defs>
<font id="creepygirlregular" horiz-adv-x="219" >
<font-face units-per-em="2048" ascent="1638" descent="-410" />
<missing-glyph horiz-adv-x="632" />
<glyph horiz-adv-x="2048" />
<glyph horiz-adv-x="2048" />
<glyph unicode="&#xd;" horiz-adv-x="632" />
<glyph unicode=" "  horiz-adv-x="632" />
<glyph unicode="&#x09;" horiz-adv-x="632" />
<glyph unicode="&#xa0;" horiz-adv-x="632" />
<glyph unicode="!" d="M4 1638q33 -113 57 -323q14 -168 31 -336q4 -43 -8 -268q-14 -262 -14 -385q0 -219 34 -269q6 102 15 205q23 129 112 203q-100 162 -100 571q0 90 4 248q6 145 4 199q0 20 -49 71q-43 43 -86 84zM66 -215q-1 45 108 100q-8 -29 -28.5 -92t-30.5 -92q-49 49 -49 84z" />
<glyph unicode="&#x22;" horiz-adv-x="430" d="M43 1477q0 47 109 100q-10 -29 -44 -201t-42 -200q6 63 6 114q0 70 -14.5 124t-14.5 63zM244 1460q-1 48 108 101q-10 -29 -44 -201t-42 -201q6 63 6 115q0 70 -14 124t-14 62z" />
<glyph unicode="#" horiz-adv-x="1148" d="M-92 651q145 72 506 78l-2 279q-14 -4 -33 -29t-27 -25v123q35 17 125 60q0 -145 2 -408h152q-31 55 -62 78q94 150 95 326q0 70 -15 149q51 -102 68 -268q10 -88 10 -285l449 -2q-20 -45 -60 -125h-123q0 8 24.5 26.5t29.5 33.5l-320 2v-189q188 -2 274 -10 q162 -16 263 -68q-80 14 -150 15q-176 0 -326 -95q-18 27 -61 54l-2 -357q-45 20 -125 58v125q8 0 26.5 -25t32.5 -29l3 260q-12 4 -23 9l-160 -2q-2 -190 -10 -279q-16 -162 -68 -262q14 80 15 149q0 176 -94 326q27 18 55 66l-252 -2q4 -14 28.5 -33t24.5 -27h-125 q-14 35 -57 125q143 0 414 2q2 8 6 17l-2 110q-20 -16 -31 -31q-150 94 -326 95q-70 0 -149 -15zM479 475h183v189l-132 2q-24 -11 -51 -23v-168z" />
<glyph unicode="$" horiz-adv-x="886" d="M0 127q82 12 164 25q51 14 74 79q55 156 90 381q-133 -18 -152 -18q-86 0 -121 20q-55 31 -55 127q0 139 135 230q78 53 242 104q16 162 84 367q-4 -100 6 -166q10 -72 10 -94q0 -29 -6 -74q125 55 369 170q-43 -78 -64 -182q-14 -94 -28 -189v11q2 47 -21 108 q-31 78 -78 78q-33 0 -184 -47q-20 -150 -64 -379l240 14q88 0 152 -74q57 -67 57 -141q0 -119 -119 -196q-86 -55 -233 -91l-172 -32q-4 -2 -11 -2q-55 -18 -69 -97q-33 -162 -45 -198q-20 -61 -105 -271q0 33 29 199q35 205 45 295q2 20 -88 20t-82 23zM96 791 q0 -86 92 -111q29 -8 117 -8q8 0 31 2q12 96 37 352q-133 -47 -201 -86q-31 -16 -53.5 -65.5t-22.5 -83.5zM309 174q0 -18 6 -18q2 2 8.5 4t6.5 6t-5.5 16.5t-5.5 16.5q0 10 15 10q113 0 233 41q186 63 187 188q0 195 -265 195q-16 0 -100 -10q-80 -410 -80 -449z" />
<glyph unicode="%" horiz-adv-x="827" d="M-63 -41q-6 80 202 408q246 389 248 395q74 152 205 459q10 25 -72 57q-68 27 -137 53q10 -10 33 -31q2 -6 2 -30q0 -176 -56 -348q-82 -252 -241 -252q-150 0 -150 291q0 121 60 241q86 176 248 176q41 0 69 -18v6q72 -4 169 -33.5t116 -32.5q27 4 55 13q68 18 139 59 q-49 -68 -145 -198q-133 -172 -233 -359q-154 -281 -154 -463q0 -125 74 -196q-16 63 -17 151q0 121 60 242q86 176 247 176q43 0 74 -20q11 -9 64 -58q2 -6 2 -31q0 -176 -56 -348q-82 -252 -241 -252q-98 0 -133 136q-74 49 -142 49q-92 0 -180 -95q-55 -74 -110 -147z M20 946q0 -184 117 -201q82 55 157 184.5t75 209.5q0 37 -15.5 95t-15.5 64q-180 -16 -262 -151q-55 -90 -56 -201zM377 145q16 -12 33 -24q-17 14 -33 24zM401 293q0 -184 117 -201q82 55 157 184t75 209q0 37 -15.5 95.5t-15.5 64.5q-180 -16 -262 -151q-55 -90 -56 -201z M1462 1167z" />
<glyph unicode="&#x26;" horiz-adv-x="980" d="M-8 463q0 178 170 297q180 127 481 127q2 0 17.5 -1t29.5 1q172 2 172 139q0 143 -225 258q-193 98 -338 98q-18 0 -14 -30q8 -53 96 -246q143 -317 573 -1157l101 -195q35 -70 37 -76q10 -196 14 -317q0 -76 -2 -86q8 -23 14 0q-8 20 -31 231q-25 113 -61 177 q-47 72 -92 143q-129 217 -481 950l-332 697q84 -39 244 -82q188 -49 247 -72q326 -117 326 -346q0 -98 -49 -131q-33 -20 -117 -21q-252 0 -428 -90q-227 -117 -211 -348q14 -174 170 -299q170 -135 422 -135q20 0 60 10t61 10q61 0 168 92q-10 -109 -53 -331t-54 -336 l-30 209q-33 221 -240 280q-315 92 -487 258q-158 152 -158 322z" />
<glyph unicode="'" d="M55 1483q0 47 109 100q-10 -29 -44 -201t-42 -200q6 63 6 114q0 70 -14.5 124.5t-14.5 62.5z" />
<glyph unicode="(" horiz-adv-x="399" d="M16 -176q115 233 115 1046q0 166 -6 437q-4 248 -4 315q0 27 135 119q151 102 176 135q-137 -188 -201 -576q-45 -276 -55 -686q-6 -242 -12 -485q-6 -78 100 -354q109 -285 109 -387q0 -47 -17 -76q-12 115 -116 258q-66 90 -224 254z" />
<glyph unicode=")" horiz-adv-x="399" d="M16 1876q137 -188 201 -576q45 -276 55 -686q6 -242 13 -485q6 -78 -101 -354q-109 -285 -108 -387q0 -47 16 -76q12 115 117 258q66 90 223 254q-115 233 -115 1046q0 166 7 437q4 248 4 315q0 27 -135 119q-152 102 -177 135z" />
<glyph unicode="*" horiz-adv-x="1148" d="M147 186q41 129 98.5 203t295.5 307l-146 156q-6 -14 -2 -44t-2 -36l-88 86q14 37 47 131q88 -80 248 -227q72 57 231 203q16 -47 48 -131l-86 -86q-6 6 -2 35.5t-3 43.5l-133 -125q223 -219 281.5 -292.5t99.5 -198.5q-158 227 -393 281q8 43 -53 165l-10 -20 q-49 -100 -39 -170q-236 -53 -392 -281zM559 1145l66 -397l-62 -601z" />
<glyph unicode="+" horiz-adv-x="1148" d="M61 682q78 0 187.5 6t148.5 6q0 39 10.5 140.5t10.5 169.5q45 -23 125 -60v-123q-8 0 -26.5 23.5t-33.5 29.5l-6 -182q268 4 316 0q172 -12 303 -78q-80 14 -150 15q-178 0 -328 -94q-25 35 -155 79l8 -22q35 -104 92 -148q-92 -150 -92 -325q0 -70 14 -150 q-70 139 -82 312q-4 39 0 327l-213 6q4 -14 29 -31.5t25 -27.5h-125q-14 35 -58 127z" />
<glyph unicode="," d="M68 84q-1 45 108 100q-8 -29 -42 -200.5t-44 -200.5q6 63 6 115q0 70 -14 124t-14 62z" />
<glyph unicode="-" horiz-adv-x="1148" d="M20 727q182 0 395.5 3t256.5 3q154 0 222.5 -13.5t160.5 -60.5q-80 14 -150 15q-178 0 -327 -92q-41 57 -148 92l-280 -12q4 -14 28.5 -33t24.5 -27h-125q-14 35 -58 125z" />
<glyph unicode="." d="M59 84q0 45 109 100q-8 -29 -28.5 -92t-30.5 -92q-49 49 -50 84z" />
<glyph unicode="/" horiz-adv-x="677" d="M-63 -41q59 84 116 170q84 100 199 119q-6 176 168 489q131 219 262 437q4 8 4 22q0 27 -16 86q-15 47 -29 96q-27 -117 -111 -309q-72 -154 -143 -307q-2 -6 -248 -395q-209 -328 -202 -408z" />
<glyph unicode="0" horiz-adv-x="688" d="M20 821q0 -55 31 -209q43 -201 103 -346q-41 -72 -80 -102q70 -94 104 -172q10 70 33 160q92 -160 203 -160q143 0 215 153q51 113 51 250q0 88 -41 275q-51 227 -125 387q14 43 25 76l-47 133l8 53l-41 -158q-96 150 -205 150q-141 0 -203 -240q-31 -129 -31 -250z M127 811q0 119 33 244q45 172 127 172q85 0 155 -125q-125 -465 -221 -694q-39 121 -69 258q-25 115 -25 145zM256 315q16 51 236 674q49 -137 79 -336q23 -145 23 -204q0 -371 -137 -371q-105 -1 -201 237z" />
<glyph unicode="1" horiz-adv-x="329" d="M43 1104q2 -6 6 -6t28.5 22.5t37.5 22.5q12 0 16 -19q27 -102 39 -317q8 -154 16 -305q4 -63 -12 -283q-18 -248 -18 -356q0 -182 37 -250q8 145 18 293q23 184 123 289q-109 223 -109 542q0 76 8 242q8 156 7 242q0 31 -56 104q-49 60 -96 119q2 -10 2 -31 q0 -88 -47 -309z" />
<glyph unicode="2" horiz-adv-x="886" d="M35 0q498 12 530 0q211 -72 242 -264q10 -63 49 -281q0 289 25 604l6 60q-29 -39 -101 -39q-18 0 -59 -9.5t-59 -9.5q-59 0 -357 -6q170 61 291 140q289 188 289 423q0 123 -92 191q-70 49 -195 72l-168 24q-39 8 -176 15q-129 6 -209 26q111 -88 111 -258q0 -31 -4 -55 q-27 147 114 196q76 27 256 27q127 0 191 -37q31 -18 53.5 -66t22.5 -85q0 -186 -379 -447q-160 -106 -381 -221z" />
<glyph unicode="3" horiz-adv-x="776" d="M39 299q4 -336 22 -938q4 233 11 465q18 186 137 186q86 0 275.5 -136t263.5 -138q12 176 -72 368q-63 141 -193 314l-192 246q8 4 20 4q18 0 96 -32t136 -32q20 0 41 4q0 117 -76 246q-51 82 -168 217q-127 143 -164 201v-232q6 0 49 84q80 -88 158 -174 q109 -127 145 -254q-8 -14 -12 -16t-14 -2q-16 2 -27 2q-39 0 -170 67.5t-217 65.5q55 -102 227 -309q190 -229 256 -334q121 -190 119 -336q-289 176 -651 463z" />
<glyph unicode="4" horiz-adv-x="706" d="M0 852q168 147 295 258q299 266 334 311q-49 -203 -82 -700q0 -10 65.5 -108.5t65.5 -108.5q0 -2 -2 -2q-8 0 -67.5 49t-67.5 49q-2 0 -2 -2q-4 -72 -9 -119q-4 -63 13 -280q18 -250 18 -359q0 -182 -37 -250q-8 147 -18 295q-23 184 -123 289q47 176 47 303 q0 205 -129 293q-94 66 -301 82zM129 893l236 -23l129 -71l18 395z" />
<glyph unicode="5" horiz-adv-x="886" d="M0 111q-4 -18 129 -37t279 -19q209 0 276 39q31 18 53.5 66.5t22.5 85.5q0 278 -760 856q379 18 795 49l92 -395q-29 70 -56 141q-49 125 -79 125q-18 0 -59.5 9t-59.5 9q-59 0 -357 7q170 -117 291 -234q289 -283 289 -518q0 -123 -92 -191q-70 -49 -195 -71 q-84 -12 -168 -25q-68 -8 -133 -18q-98 -16 -157 -51q-82 -49 -111 -142v314z" />
<glyph unicode="6" horiz-adv-x="733" d="M8 129q0 72 27.5 191.5t62.5 181.5q102 197 313.5 380t389.5 238q-176 -74 -355 -270q-143 -158 -243 -340q2 0 137 68q96 47 141 47q197 0 197 -170q0 -152 -217 -316q-207 -152 -361 -151q-92 0 -92 141zM92 154q0 -51 39 -52q14 0 35 7q131 41 256 135 q154 115 153 221q0 74 -102 74t-270 -74q-111 -211 -111 -311z" />
<glyph unicode="7" horiz-adv-x="991" d="M74 1067q0 -4 12 -4q33 0 312.5 63.5t349.5 63.5q35 0 34 -12q4 -90 -125 -355q-137 -281 -145 -344q-6 -51 -102 -395q-88 -309 -88 -428q0 -41 8 -66q41 147 80 293q63 184 186 289q-16 59 -16 119q0 164 147 440q166 315 193 447q10 47 45 262q2 -61 -891 -373z" />
<glyph unicode="8" horiz-adv-x="886" d="M0 741q0 121 100 205q72 59 205 107q82 27 164 55q94 45 418 45q-80 -141 -256 -379q29 59 57 121q55 117 55 162q0 29 -22 28q-47 0 -238 -43q-225 -53 -311 -102q-31 -16 -53.5 -65.5t-22.5 -83.5q0 -86 92 -111q29 -8 117 -8q18 0 167 10t169 10q88 0 152 -74 q57 -67 57 -141q0 -125 -131 -219q-96 -70 -252 -119q-78 -20 -156 -41q-92 -31 -147 -30q-88 0 -88 73q0 139 258 449q248 297 475 452q8 -12 -305 -395q-322 -393 -326 -416q-2 -12 -2 -20q0 -29 49 -29q117 0 287 56q242 76 242 200q0 195 -265 195q-18 0 -156 -19.5 t-157 -19.5q-86 0 -121 20q-55 31 -55 127z" />
<glyph unicode="9" horiz-adv-x="886" d="M29 66q88 160 217 466q90 215 200 353q-88 -6 -104 -6q-88 0 -152 73q-57 68 -57 142q0 125 131 219q96 70 252 119q78 20 156 41q92 31 147 30q88 0 88 -73q0 -145 -282 -478q-156 -174 -293 -397q-20 -37 -178 -322q-80 -141 -125 -167zM229 1133q1 -195 263 -195 q156 190 213 262q98 123 100 137.5t2 22.5q0 29 -49 29q-117 0 -287 -56q-242 -76 -242 -200zM571 893z" />
<glyph unicode=":" d="M68 84q-1 45 108 100q-8 -29 -28.5 -92t-30.5 -92q-49 49 -49 84zM94 774q0 47 109 100q-8 -29 -29.5 -92t-30.5 -92q-49 49 -49 84z" />
<glyph unicode=";" d="M68 84q-1 45 108 100q-8 -29 -42 -200.5t-44 -200.5q6 63 6 115q0 70 -14 124t-14 62zM94 774q0 47 109 100q-8 -29 -29.5 -92t-30.5 -92q-49 49 -49 84z" />
<glyph unicode="&#x3c;" horiz-adv-x="839" d="M23 578q129 70 258 141q162 102 194 260q35 -68 53 -96q39 -61 80 -97q-193 4 -473 -219q309 -102 604 -835q27 -57 76 -176q-164 0 -274 14q12 8 53 12q35 2 49 21q23 27 23 104q0 78 -56 211q-137 328 -291 475q-80 76 -296 185z" />
<glyph unicode="=" horiz-adv-x="1148" d="M-4 473q182 0 395 3t256 3q154 0 222.5 -13t160.5 -60q-80 14 -149 14q-178 0 -328 -92q-41 57 -147 92l-281 -12q4 -14 28.5 -33t24.5 -27h-125q-14 35 -57 125zM20 727q182 0 395.5 3t256.5 3q154 0 222.5 -13.5t160.5 -60.5q-80 14 -150 15q-178 0 -327 -92 q-41 57 -148 92l-280 -12q4 -14 28.5 -33t24.5 -27h-125q-14 35 -58 125z" />
<glyph unicode="&#x3e;" horiz-adv-x="839" d="M4 1438q164 0 275 -15q-14 -10 -52.5 -12t-52.5 -20q-20 -29 -20 -105q0 -78 55 -211q135 -330 289 -475q82 -76 297 -184q-129 -72 -256 -144q-164 -100 -195 -260q-35 68 -53 99q-39 59 -82 94q195 -4 473 221q-309 102 -604 836q-25 57 -74 176z" />
<glyph unicode="?" horiz-adv-x="886" d="M4 1335q80 -18 209 -26q139 -6 176 -15l168 -24q127 -23 195 -72q92 -68 92 -188q0 -299 -438 -506q-27 -360 -27 -570q-10 135 -27 234q-39 236 -96 256q-33 12 -158 8q190 100 326 201q326 238 326 424q0 37 -24 86t-52 65q-66 37 -193 37q-74 0 -174 -13t-98 -13 q-70 0 -94 -148q0 -27 -4 -49q-2 12 4 49q2 174 -111 264zM299 -289q0 48 109 101q-10 -29 -31 -92.5t-29 -92.5q-49 49 -49 84z" />
<glyph unicode="@" horiz-adv-x="1036" d="M-70 285q84 193 254 462t207 267q154 -10 383 -84q168 -56 205 -76q-74 -408 -158 -866q-68 -270 -78 -398q-6 39 -6 93q0 37 5.5 118.5t5.5 124.5q0 205 -91 338q-23 -12 -84 -90q-66 -84 -110 -119q-74 -59 -148 -53q-20 0 -43.5 30.5t-23.5 63.5q0 147 381 289 q-10 63 -45 229q-156 -8 -260.5 -116.5t-108.5 -253.5q0 184 -29 311q240 16 435 172q-6 -381 161 -539q8 -8 43 187q35 217 43 391q10 25 -163 86q-156 55 -263 76q-35 8 -194 -215q-156 -215 -250 -394q-2 -6 -2 -14q0 -72 217 -329t223 -242q-2 -6 -265 246.5t-241 304.5 zM289 86q0 -49 30 -53q84 59 168 119q105 82 95 141q-55 10 -174 -68t-119 -139z" />
<glyph unicode="A" horiz-adv-x="817" d="M-41 760q0 31 10 51q20 -1 41 -1q62 0 131 13q111 23 146 68q68 90 116 283q59 236 78 278q16 -129 33 -260q20 -158 49 -260q86 12 295 26q223 17 313 27q-213 -49 -598 -139q14 -47 99 -234q68 -156 67 -188q0 -35 -61 -381q-86 -494 -96 -549q34 211 34 573v21 q0 -8 13 119q8 77 8 143q0 33 -2 64q-10 168 -51 286q-45 135 -115 136q-119 0 -176 -252q-43 -182 -53 -492l-4 -332l-54 -53q0 356 -16 529q-2 33 -32 125t-30 122q0 41 58 125q53 76 54 165q0 9 -1 18q-76 -29 -246 -142q0 14 -5 52t-5 59zM393 903l68 -8q14 29 14 66 t-14 83q-8 25 -17 52q0 -32 -28 -102q-24 -57 -24 -82q0 -5 1 -9z" />
<glyph unicode="B" horiz-adv-x="1185" d="M2 1137q199 45 555 96q315 45 375 45q68 0 125 -29q-10 -66 -160 -168q-225 -154 -229 -155q35 -6 90 -6q23 0 69 2h74q197 0 283 -70q4 -36 4 -62t-4 -40q-90 -80 -430 -314q-287 -197 -453 -373q-63 -70 -76 -219q-2 -16 -6 -290q-2 18 -49 266q-33 170 -33 205 q0 14 49 43q59 33 88 77q47 72 48 191q0 92 -15 317q-20 303 -49 467q-192 -41 -192 -207q0 -41 13 -129t13 -129t-8 -71q0 33 -26.5 135t-26.5 125zM350 866q123 41 277 140q112 73 225 149q-102 14 -197 14q-158 0 -295 -39zM373 268q203 127 405 254q267 185 277 316 q-35 0 -128 13t-122 13q-102 0 -215 -24q-150 -33 -217 -97v-475z" />
<glyph unicode="C" horiz-adv-x="819" d="M20 37l13 391v15q0 67 26 309q37 309 76 491q14 59 62.5 98t107.5 39q80 0 166 -80.5t82 -132.5v-546q-57 211 -129 340q20 47 41.5 95t21.5 85q0 104 -194 188q-135 -147 -178 -749q-12 -176 -19 -744q201 242 340 373q74 68 289 235q38 -76 63 -473q-18 80 -36 162 q-43 133 -117 133q-39 0 -248 -211l-336 -344z" />
<glyph unicode="D" horiz-adv-x="978" d="M-6 1358q51 -31 160 -31q72 0 221 18.5t203 18.5q135 0 178 -6q88 -15 221 -74q-14 -80 -141 -213q-160 -166 -185 -203q-111 -160 -223 -319q-139 -213 -176 -377q-8 -37 -8 -98t11 -196.5t11 -186.5q-14 82 -69 321q-47 197 -47 221q0 6 155 222q184 256 260 370 q14 20 187 209q110 120 110 206v7q-53 45 -149 53q4 0 -160 0q-270 0 -346 -14q-192 -37 -192 -171q0 -9 1 -19q0 90 -22 262zM184 354l2 414q8 209 27 496l76 -19l4 -264q-14 -172 -29 -342q-20 -213 -80 -285z" />
<glyph unicode="E" horiz-adv-x="1173" d="M-2 39q0 139 143 291q106 111 316 248q154 98 305 194q-14 4 -33 4q-31 0 -161 -25.5t-228 -25.5q-33 0 -68 2q0 98 129 205q84 68 281 180q209 121 272 168v-193q-12 0 -82 70q-133 -72 -266 -145q-178 -104 -239 -211q12 -12 19 -14.5t24 -2.5q27 2 45 2q65 0 283 56 q210 55 350 55h10q-90 -84 -377 -258q-315 -190 -428 -277q-201 -160 -197 -280q480 145 1086 385q-8 -76 -15 -369t-22 -411q-2 20 -8 278q-4 137 -43 193q-50 71 -193 71h-4q-141 0 -456.5 -113.5t-440.5 -115.5q-2 20 -2 39z" />
<glyph unicode="F" horiz-adv-x="1056" d="M0 958v224q254 63 635 180q320 96 639 194q0 -156 -6 -264q-6 -74 -13 -122t-6 -46q-14 27 -19 113t-22 121q-29 55 -106 55q-123 0 -457 -110q-297 -98 -340 -129q31 -143 31 -316q78 -8 147 -8q199 0 273 63l4 -233q-47 133 -133 133q-225 0 -285 -82q-37 -49 -37 -227 q0 -174 60 -707q-16 33 -48 148q-33 129 -57 190q-41 104 -100 150q96 104 96 561q0 123 -10 334q-12 2 -23 2q-96 0 -223 -224z" />
<glyph unicode="G" horiz-adv-x="894" d="M47 319v195v6q0 159 113 436q129 315 270 396q27 16 117 37q104 25 147 41q-68 -133 -86 -285q-14 8 -30 57q-23 72 -31 86q-193 -47 -324 -313q-114 -234 -114 -471q0 -45 4 -80q96 76 307 194q246 139 328 197q20 12 34 51q12 31 25 64h-9q-85 0 -192 -35 q-112 -37 -186 -86q-2 35 -2 57t2 31q63 25 213 55q157 35 233 62q-170 -483 -170 -858q0 -4 25 -228q23 -229 24 -352q-25 33 -34 135q-12 131 -29 185q-31 106 -113 165q113 338 131 639q-119 -37 -284 -139q-78 -47 -369 -242z" />
<glyph unicode="H" horiz-adv-x="1173" d="M137 236q0 6 43 90t49 221q8 160 9 289q0 186 -15.5 309t-15.5 115q0 35 86 126q70 68 139 136q-43 -94 -86 -287q-47 -205 -47 -334q0 -104 16 -139q57 12 181.5 48t181.5 48q20 135 20 246q0 125 -26 172q23 49 90 121q76 80 133 104q-133 -217 -133 -459 q0 -86 20 -168q25 -8 64 -8q94 1 323 58q-37 -117 -102 -291q10 41 10 72q0 120 -133 120h-2q-80 0 -182 -39q8 -57 8 -131q1 -24 1 -58.5t-1 -80.5q-2 -106 -2 -156q0 -102 26.5 -315t26.5 -315q-20 84 -45 153q-59 172 -123 252q2 10 11 103q6 70 28 102l-31 438 q-18 1 -35 1q-199 0 -288 -85q-80 -76 -80 -237q0 -96 39 -314.5t39 -318.5q0 -66 -10 -119q-16 135 -39 238q-55 246 -148 293z" />
<glyph unicode="I" horiz-adv-x="1038" d="M20 131q229 33 357 100l86 867q0 119 -41 119q-27 0 -167 -70t-150.5 -92.5t-57.5 -210.5q0 2 -7 38t-13 93q-6 84 -7 211q367 88 1051 231q-6 -14 -227 -67q-242 -55 -322 -121q-25 -307 -59 -963q25 -33 96 -33q39 0 221 27q134 20 231 20q23 0 44 -1q-29 -10 -365 -64 q-276 -43 -416 -137q-201 -137 -206 -410q-14 160 -48 463z" />
<glyph unicode="J" horiz-adv-x="606" d="M41 -530q14 115 16 235q1 43 1 97t-1 120q-2 168 -2 213q12 0 55.5 -8t65.5 -8q41 0 94 16q66 20 78 51q53 117 101 449q66 457 96 598q-84 -39 -166 -78q-102 -53 -150 -121q-54 -79 -54 -200q0 -19 1 -39q-6 74 -24 344q282 10 454 233q-45 -332 -90 -663 q-53 -389 -133 -584q-8 -23 -102.5 -56.5t-118.5 -86.5q-55 -121 -74.5 -290t-46.5 -222z" />
<glyph unicode="K" horiz-adv-x="731" d="M16 383q0 18 30 68.5t30 76.5q2 68 18 244q16 164 17 234q0 109 -29 137q55 59 158 149q-45 -70 -58 -213q-20 -240 -24 -254q131 86 317 355q37 14 72 30q84 44 145 99q-59 -121 -229 -281q-160 -137 -318 -272q70 -66 131 -213q55 -125 64 -199q31 -246 51 -328 q66 -266 191 -284q23 -4 55 14q27 16 53 31q-29 -248 -53 -508q-16 51 -19 156q-2 98 -10 116q-33 74 -143 230q-98 139 -129 229t-41 246q-10 170 -27 233q-33 123 -127 207q-41 -137 -41 -293q0 -127 29 -362q-6 23 -113 352z" />
<glyph unicode="L" horiz-adv-x="753" d="M0 -98q8 78 55 307q41 201 43 307q2 143 2 264q0 254 -11 404q-9 127 -11 127v-4q0 -2 51 57q59 72 100 143q-49 -143 -65 -641q-18 -543 -70 -772q123 6 318 53q163 41 325 84q-27 -150 -73 -454q4 39 4 76q0 245 -189 245h-2q-115 0 -283.5 -67.5t-193.5 -128.5z" />
<glyph unicode="M" horiz-adv-x="1161" d="M29 326q43 0 61 4q180 209 281 475q43 117 131 459q25 25 82 79q0 -307 16 -516q8 0 13 -11t12 -17q119 268 196 405q25 45 93.5 128t89 114.5t129.5 60.5q-125 -205 -164 -368q-33 -127 -33 -357q0 -401 96 -686q6 -20 49 -78q37 -53 37 -69q0 -18 -28 -166 q-31 -166 -39 -229q-4 184 -90 559q-84 365 -84 540q0 31 26 248q29 240 53 369q-133 -117 -229 -318q-57 -119 -133 -350q-29 299 -59 469q-16 -33 -175 -399q-102 -240 -225 -416q-35 -51 -47 -211q-12 -201 -25 -248q0 86 -12 226q-16 207 -22 303z" />
<glyph unicode="N" horiz-adv-x="1159" d="M0 184q164 33 272 211q74 121 148 369q80 272 112 340q14 -57 41 -279q25 -195 72 -342q4 -12 8 -12t9 6q16 207 194 549q72 139 318 414q229 256 389 389q-45 -152 -59 -471q-18 96 -44 139t-82 43q-43 0 -125 -72q-66 -57 -102 -106q-260 -344 -358 -748 q-76 -303 -76 -745q-84 332 -205 979q-51 -147 -174 -387q-125 -248 -172 -371q-80 -219 -90 -444q1 10 1 21q0 76 -24 214q-27 152 -53 303z" />
<glyph unicode="O" horiz-adv-x="688" d="M20 489q0 68 41 248q51 236 127 383q100 199 226 199q143 0 215 -154q51 -111 51 -250q0 -96 -47 -299q-59 -250 -141 -409q-109 -207 -238 -207q-141 0 -203 240q-31 129 -31 249zM127 500q0 -119 33 -244q45 -170 127 -170q152 0 243 365q64 253 64 411q0 373 -137 373 q-88 0 -174 -178q-63 -133 -115 -340q-41 -168 -41 -217z" />
<glyph unicode="P" horiz-adv-x="1433" d="M10 688v457q66 74 470.5 173t631.5 99q84 0 160 -20q106 -31 106 -86q0 -49 -194 -168q-172 -106 -275 -142q-145 -49 -264 -124q-31 -18 -74 -111q-33 -70 -63 -141l2 254q88 55 287.5 125.5t273.5 115.5q127 80 148 199q-88 59 -226 59q-145 0 -471 -106 q-66 -281 -69 -469q-6 -276 -13 -465q-4 -145 -4 -150q0 -168 53 -534q-43 250 -131 469q-18 16 -34 35q-31 31 -31 57q0 18 49 97t51 118q18 268 19 340q0 215 -47 391q4 6 47 19q35 8 34 41q0 16 -6 36q-221 -31 -323 -210q-75 -130 -75 -302q0 -17 1 -34z" />
<glyph unicode="Q" horiz-adv-x="600" d="M100 772q96 395 265 395q131 0 184 -206q26 -109 26 -234q0 -47 -20 -182q-25 -166 -53 -252q-8 -20 -56 -84q-41 -53 -40 -74q0 -31 50 -91t103 -97q-31 -117 -59 -234q-35 -145 -41 -235q-2 20 -2 100v27q0 373 -78 479q-160 -84 -193 -84q-151 0 -151 341 q0 163 65 431zM119 440q0 -143 12 -192q29 -102 131 -164q76 39 76 86l-68 143q12 49 49 127q33 -84 76 -237q57 59 105 229q43 153 43 262q0 113 -23 213q-39 193 -139 193q-133 0 -211 -314q-51 -211 -51 -346z" />
<glyph unicode="R" horiz-adv-x="841" d="M-4 1159q254 82 678 148l149 -15q1 -4 1 -8q0 -56 -105 -133q-94 -61 -187 -125q-23 -18 -66.5 -75.5t-78.5 -86.5q70 -111 119 -250q0 -4 78 -249q82 -266 108 -328q102 -236 219 -236q18 0 35 9q29 14 37 16q-10 -137 -45 -395q-4 70 -25 202q-12 51 -73 119 q-92 106 -103 117q-45 63 -80 162q-70 217 -141 434q-94 268 -205 414q6 6 217 170q178 139 179 165q0 53 -105 54q-49 0 -184 -29q-176 -35 -242 -80q-86 -61 -127 -207q-29 -104 -29 -223v-29q-10 45 -14 82q-10 109 -10 377zM193 371q0 10 30.5 81.5t34.5 108.5 q0 166 -2 330q2 268 37 317q-5 -251 -5 -464q0 -160 3 -298q2 -215 2 -217q-8 -76 -29 -229v11q0 111 -37 284q-2 10 -18 33.5t-16 42.5z" />
<glyph unicode="S" horiz-adv-x="886" d="M0 741q0 121 100 205q72 59 205 107q82 27 164 55q125 55 371 170q-80 -143 -92 -371q1 7 1 15q0 34 -20 92q-29 90 -80 90q-37 0 -203 -53q-184 -59 -274 -111q-31 -16 -53.5 -65.5t-22.5 -83.5q0 -86 92 -111q29 -8 117 -8q18 0 167 10t169 10q88 0 152 -74 q57 -67 57 -141q0 -125 -131 -205q-92 -57 -250 -90q-78 -12 -154 -26q-80 -27 -141 -99q-72 -84 -90 -198q-10 -63 -47 -283q0 291 -27 606l-6 60q29 -39 100 -39q20 0 60.5 -10.5t60.5 -10.5q117 0 287 56q242 76 242 200q0 195 -265 195q-18 0 -156 -19.5t-157 -19.5 q-86 0 -121 20q-55 31 -55 127z" />
<glyph unicode="T" horiz-adv-x="1110" d="M0 1047q119 43 414 118q289 74 432 127q231 84 366 199q-10 -57 -36 -158q-100 -20 -338 -98q-123 -39 -244 -78q-12 -555 -19 -758q-16 -432 -43 -702q0 174 -94 500q0 20 31 53t31 49q32 487 32 603v7q0 121 -10 228q-102 -16 -207 -33q-104 -29 -194 -150 q-35 -47 -55 -163q-12 -98 -25 -197q0 210 1 210l1 -7q-6 133 -43 250z" />
<glyph unicode="U" horiz-adv-x="991" d="M-119 903q80 6 182 115q80 86 158 172q33 -305 64 -610q37 -369 80 -408q1 -1 2 -1q23 0 198 382q266 580 305 655q-69 -574 -69 -790v-6q0 -166 61 -318q6 -14 51 -96q-33 -156 -84 -479q-10 137 -49 448q-35 285 -35 303q0 16 25 271q27 291 39 463 q-111 -303 -219 -605q-156 -401 -225 -401q-66 0 -117 436q-31 295 -62 588q-168 -72 -168 -395q0 -53 5 -131q-41 184 -142 407z" />
<glyph unicode="V" horiz-adv-x="1132" d="M0 852q51 70 76 109q45 76 71 159v-9q0 -385 170 -937q80 618 644 1208q43 54 135 152q0 -328 -11 -551q-6 82 -14 162q-10 88 -92 88q-59 0 -162 -109q-254 -274 -366 -581q-57 -160 -142 -592q-53 256 -108 514q-78 324 -201 387z" />
<glyph unicode="W" horiz-adv-x="1413" d="M-45 807q70 23 164 151q74 109 145 218q20 -469 64 -725q61 133 194 522q98 -537 211 -969q20 61 21 201q2 309 198 706q168 343 457 705l-53 -463q-6 12 -10 98q-2 66 -26 66h-1q-31 -6 -47.5 -26.5t-32.5 -41.5q-244 -287 -358 -780q-47 -197 -119 -793 q-66 197 -123 482q-102 500 -119 575q-106 -168 -137 -364q-6 -41 -25 -365q-78 182 -112 469q-27 256 -53 510q-113 -117 -130 -289q-2 -135 -2 -268q-37 139 -106 381z" />
<glyph unicode="X" horiz-adv-x="872" d="M0 1118q188 135 344 291q-1 -29 -1 -58q0 -365 95 -626q121 94 207 311q51 145 100 291q88 37 166 172q-53 -133 -155 -371q-41 -86 -164 -268q-104 -156 -105 -176q0 -123 166 -307q82 -84 166 -166q-2 -19 -2 -60q0 -109 12 -372q-23 10 -57 172q-39 188 -63 239 q-33 70 -138 218q-100 139 -137 223q-260 -190 -260 -520q0 -61 10 -123q-31 160 -90 448q90 57 180 115q137 92 138 135q0 16 -34 113.5t-42 140.5q-6 115 -31 375q-160 -133 -205 -277q-23 -125 -47 -247v9q0 47 -18 138q-33 172 -35 180z" />
<glyph unicode="Y" horiz-adv-x="724" d="M0 991q0 16 98 148q111 147 140 202q6 -197 38 -641q154 273 441 762q-18 -238 -37 -473q-27 -287 -76 -469q-16 -68 -96 -241q-86 -190 -113 -275q-29 -92 -49 -539q-39 186 -94 654q182 94 272 323q61 160 88 430q31 324 41 363q-63 -35 -192 -297q-143 -295 -236 -393 q-4 215 -30 624q-31 -57 -68 -235q-39 -188 -66 -248q4 31 5 59q0 84 -33 164t-33 82z" />
<glyph unicode="Z" horiz-adv-x="1107" d="M-18 1063q406 291 718 569l82 -10q-172 -408 -358 -909q-215 -573 -215 -660q532 305 917 498q-66 -111 -77 -283q-18 -276 -25 -307q-4 70 -6 141q-8 98 -35 152q-39 70 -121 70q-104 0 -438 -213q-293 -186 -328 -228q-37 33 -33 47q31 78 271 779q166 485 317 735 q8 10 -10 29q-119 -90 -240 -181q-137 -113 -204 -221q-88 -141 -88 -315q0 -51 -43 -164q-14 203 -21 248q-18 137 -63 223z" />
<glyph unicode="[" horiz-adv-x="753" d="M16 -297q23 203 47 408q33 289 35 405q4 291 4 569q-2 197 -4 385q-4 180 -4 168l264 60q285 61 363 90q-342 -158 -445 -418q-63 -162 -73 -606q-14 -518 -92 -868q123 6 317 53q162 41 326 84q-29 -150 -76 -455q6 39 6 76q0 246 -190 246q-117 0 -285 -68t-193 -129z " />
<glyph unicode="\" horiz-adv-x="593" d="M-2 1393q51 70 74 106q47 78 73 162q-2 -170 150 -608q109 -311 219 -625l-47 -135l43 -354q-104 395 -211 790q-178 598 -301 664z" />
<glyph unicode="]" horiz-adv-x="753" d="M16 1333q27 150 74 455q-4 -39 -4 -76q0 -246 190 -246q115 0 284 68t194 129q-23 -203 -47 -408q-33 -289 -35 -405q-4 -291 -4 -569q0 -197 4 -385q4 -180 4 -168l-264 -60q-285 -61 -363 -90q342 158 445 418q61 162 73 606q12 518 92 868q-123 -6 -317 -53 q-164 -41 -326 -84z" />
<glyph unicode="^" horiz-adv-x="671" d="M68 1272l256 248l102 -154l145 -147l-204 147l-43 66z" />
<glyph unicode="`" horiz-adv-x="172" d="M20 1260q-10 -46 86 -101q-2 29 0.5 201t-0.5 201q-14 -131 -47 -215q-20 -43 -39 -86z" />
<glyph unicode="a" horiz-adv-x="671" d="M-6 569q240 14 434 170v-22q0 -437 238 -572q-102 -389 -115 -542q-6 39 -6 92q0 37 4 119t4 125q0 207 -88 340q-23 -14 -86.5 -94.5t-108.5 -116.5q-70 -54 -140 -54h-7q-20 0 -44 31t-24 64q0 147 381 288q-10 63 -45 230q-156 -6 -260 -116t-108 -255q0 184 -29 313z M96 98q0 -49 31 -53q84 59 168 119q95 75 95 132q0 6 -1 11q-5 1 -11 1q-55 0 -163 -70q-119 -78 -119 -140z" />
<glyph unicode="b" horiz-adv-x="645" d="M14 825q156 125 308 316q-23 -125 -33 -310q-12 -233 -19 -280l-6 -137q12 10 56.5 77.5t85.5 102.5q63 51 141 51q32 0 65 -8q-8 -166 -111.5 -342t-267.5 -295q-16 129 -16 305q0 109 9.5 332t9.5 330q-115 -117 -183 -396q-35 90 -39 254zM268 248q0 -25 13.5 -77 t13.5 -69q129 174 164 234q78 135 82 254q-106 -16 -193 -139q-80 -111 -80 -203z" />
<glyph unicode="c" horiz-adv-x="483" d="M6 76q0 82 107 555q31 49 129 69l4 -305q-12 10 -34 67.5t-40 82.5q-100 -283 -100 -404q0 -14 -4 -37q-2 -16 0 -28q4 -16 18 -45q68 41 178 133q90 73 178 147q-4 -201 -10 -377q-8 -152 -8 -157q-18 127 -57 387q-231 -198 -321 -198q-7 0 -13 1q0 4 -13.5 42 t-13.5 67z" />
<glyph unicode="d" horiz-adv-x="618" d="M0 109q0 115 94 292q102 195 215 232l64 -10q47 53 47 135q0 33 -11.5 108.5t-11.5 118.5q0 63 21 119l227 248q-51 -102 -102 -205q-66 -137 -78 -211q-29 -201 -29 -471q0 -129 29 -285q8 -45 88 -141q-35 -41 -59 -102q-61 -147 -68 -369l-4 356q-8 227 -45 357 q-80 -84 -187 -175q-123 -100 -156 -100h-1q-33 33 -33 103zM51 76q106 70 217 186q123 133 123 203q0 41 -34.5 66.5t-73.5 25.5q-109 -117 -158 -209q-63 -119 -74 -272z" />
<glyph unicode="e" horiz-adv-x="692" d="M-10 496q41 14 248 32q27 78 43 111q25 61 55 106q12 4 24 5q84 0 160 -250q-158 -4 -221 -68q-20 -55 -23 -145q-2 -76 -2 -152q-4 -55 -20 -119q96 49 221 134q61 43 180 120q29 -78 29 -219q0 -122 -14 -188q-18 -80 -78 -232q25 125 39 174l10 156l-10 86 q-4 37 -39 39q-8 0 -31.5 -2t-40.5 -2q-53 0 -307 -129q0 332 25 516q-10 -12 -11 -8v-2q0 10 -8 2q4 0 2 8q-6 -2 -20 0q-7 1 -14 1q-117 0 -158 -218q-10 -63 -19 -164l-2 -61q-2 -27 -4 -35l19 -2zM307 522l156 13q-14 33 -45 92q-25 45 -70 67q-41 -127 -41 -172z" />
<glyph unicode="f" horiz-adv-x="579" d="M0 944q16 2 266 60q4 18 4 57q0 29 -4 120t-4 142q0 238 90 244h5q46 0 73 -66q14 -41 27 -82l-25 -293q0 139 -76 277q8 29 31 90q-20 16 -35 16q-43 0 -51 -100q-2 -12 -2 -125q0 -106 33 -248q49 0 149 25q131 33 164 39l-39 -74q-156 -10 -219 -49q-51 -31 -51 -94 q0 -31 17.5 -109t17.5 -125q0 -20 -15 -80q-14 -66 -18 -90q-12 -114 -12 -328q0 -195 10 -473q-31 215 -62 326q-51 180 -133 246q88 111 135 280q41 143 41 277q0 45 -30 151q-121 -33 -140 -38q-96 -41 -102 -113q-14 51 -45 137z" />
<glyph unicode="g" horiz-adv-x="550" d="M-12 -590q199 76 280 205q55 88 72 252q23 207 43 270l-12 135q-37 -90 -99 -168q-82 -104 -149 -104q-66 0 -96 70q-18 41 -19 75q0 106 109.5 252t193.5 146q25 0 45.5 -11.5t53.5 -11.5q37 117 116 191v-140q2 -20 -45 -82.5t-51 -103.5q-3 -35 -3 -100.5t3 -161.5 q1 -33 1 -64q0 -121 -13 -196q-20 -113 -113 -295q-147 -285 -158 -309q-77 -176 -77 -312q0 -51 10 -96q-14 141 -27 281q-20 176 -65 278zM84 145q23 -6 43 -6q96 0 162 119q12 20 94 219h-117q-96 -53 -144 -143q-40 -74 -40 -155q0 -17 2 -34z" />
<glyph unicode="h" horiz-adv-x="602" d="M20 1145q0 111 58 160q135 115 178 170q0 -281 23 -988q158 211 288 285q-8 -63 -8 -164q0 -43 4 -221q2 -70 2 -124.5t-2 -94.5q0 -31 -12 -137q-8 -88 -8 -150q0 -149 43 -317q-37 88 -94 260q-72 211 -95 276q-4 12 29 33q41 29 51 43q51 66 51 203q0 117 -36 264 q-301 -225 -302 -647q0 -82 12.5 -224.5t12.5 -193.5v-125q-35 199 -68 395q-43 240 -81 277q41 43 102 137q51 119 51 359q0 47 -20 292q-20 262 -35 385q-35 -94 -70 -303q-33 -197 -42 -331q0 43 -16 249.5t-16 231.5z" />
<glyph unicode="i" d="M20 18q57 43 93 150l-13 281q-14 -4 -31.5 -29t-27.5 -25v123q35 16 125 60q0 -184 3 -396.5t3 -255.5q0 -154 -14 -222.5t-58 -160.5q14 80 15 150q0 178 -95 325zM94 774q0 47 109 100q-8 -29 -29.5 -92t-30.5 -92q-49 49 -49 84z" />
<glyph unicode="j" horiz-adv-x="299" d="M-18 -244q102 37 153 164q27 98 55 199l-14 411q-47 -6 -72 -94q-14 -59 -26 -119q-14 59 -45 172q68 51 188 144l23 -500q-14 -72 -62 -215q-39 -113 -76 -223q-43 -141 -45 -340q-2 -209 -20 -279q0 106 -25 326q-29 272 -34 354zM127 793q0 39 42 56.5t83 31.5 q-12 -39 -26.5 -102.5t-28.5 -104.5l-45 45q-25 33 -25 74z" />
<glyph unicode="k" horiz-adv-x="493" d="M0 0q113 104 131 221q2 104 4 207l27 866q-31 -47 -60 -209q-18 -119 -36 -235q-14 25 -27 149q-12 109 -12 158q0 27 75 133q104 145 120 168q0 -41 -16 -143.5t-16 -118.5l-8 -551q51 6 99 68q29 41 57 82q63 -63 63 -117v-135q-20 -23 -47 -23q-10 0 -31.5 5t-29.5 5 q-10 0 -19 -4q92 -154 121 -307q23 -117 43 -328q19 -184 19 -231q0 -86 -47 -182v10q0 131 -52 381q-23 63 -61 199q53 51 53 143q0 86 -44 182t-111 164q-16 -252 -35 -506q-20 -309 -21 -518q-23 106 -45 211q-35 170 -94 256zM258 596q10 0 44 -9t42 -9v124 q-86 -82 -86 -106z" />
<glyph unicode="l" horiz-adv-x="329" d="M23 207q108 219 108 537v6q0 76 -8 241q-6 156 -6 242q0 31 55 104q49 60 96 119q-37 -162 -63 -461q-16 -242 -35 -483q-1 -12 -1 -31q0 -74 13 -250q18 -248 19 -358q0 -180 -37 -248q-8 145 -17 293q-25 184 -124 289z" />
<glyph unicode="m" horiz-adv-x="911" d="M-25 459q47 16 131 78l140 106q20 -31 20 -90q0 -16 -2 -54t-2 -59q0 -45 8 -78q31 29 125 127.5t133 139.5q29 -43 35 -121q6 -94 15 -121q84 55 258 229q-2 -4 -7 -12v5q2 0 9 -66q8 -98 12 -299q8 -285 10 -748q-10 29 -49 228q-31 152 -94 221q0 -4 51 120.5 t51 174.5q0 111 -37 219q-245 -138 -245 -379q0 -70 23.5 -208t23.5 -208q0 -27 -2 -51q-37 41 -56 133q-25 137 -34 166q-33 96 -107 162q25 14 67 65t62 90l-22 289q-274 -195 -275 -489q0 -61 19 -232q11 -120 11 -204q0 -24 -1 -46q-25 100 -49 203q-33 115 -119 193 q47 72 108 315l-2 285q-51 -47 -102 -92q-51 -51 -64 -111q0 6 -21.5 48t-21.5 71z" />
<glyph unicode="n" horiz-adv-x="587" d="M4 532q72 39 217 103q14 -29 25 -107q12 -102 24 -145q144 156 279 252v8q1 -1 4 -83q4 -108 4 -310q0 -287 -12 -746q-35 137 -70 277q-43 172 -96 201q35 43 92 139q20 53 25 153q4 141 14 213q-193 -45 -260 -208q-43 -109 -47 -338q-4 -254 -25 -336q-16 98 -33 198 q-29 117 -129 197q76 8 113 63q23 37 41 114t35 97l-21 263q-76 -45 -123 -191q-16 4 -57 186z" />
<glyph unicode="o" horiz-adv-x="487" d="M4 203q0 121 59 243q86 174 250 175q41 0 72 -21q13 -8 64 -57q4 -6 4 -31q0 -176 -58 -348q-82 -252 -239 -252q-152 0 -152 291zM55 188q0 -184 115 -200q84 55 157.5 184t73.5 209q0 37 -14 95.5t-14 64.5q-180 -16 -264 -152q-53 -90 -54 -201z" />
<glyph unicode="p" horiz-adv-x="641" d="M-39 -340q152 168 195 397q22 111 22 320q0 65 -2 139q-39 -18 -108 -98q-84 -100 -101 -113v152q59 2 129 65.5t117 149.5q12 -53 13 -158.5t16 -157.5q53 41 118.5 121t100.5 105q61 47 151 57q-43 -59 -43 -147q0 -55 21 -156q24 -113 26 -152l-2 -194q-16 -2 -32 -2 q-78 0 -179 69q-80 57 -161 117q-70 -571 -70 -618q0 -57 27 -263q33 -227 67 -407q-45 111 -92 295q-51 193 -78 264q-53 133 -135 215zM250 238q61 -61 153.5 -121t131.5 -60q0 297 -31 457q-41 -41 -132 -143.5t-122 -132.5z" />
<glyph unicode="q" horiz-adv-x="626" d="M4 207q0 115 113 301q125 205 243 205q49 0 95 -92q43 29 90 79q37 41 71 82q0 -6 13.5 -62t13.5 -95q-12 2 -25 2q-178 0 -178 -465q0 -33 -2 -79t-2 -63q0 -123 125 -395q6 -16 74 -92q59 -67 59 -96q0 -35 -71 -217q-94 -244 -105 -279q29 109 29 248q0 408 -211 948 q-37 -47 -113 -96q-66 -41 -82 -41q-80 0 -116 98q-20 57 -21 109zM127 47q68 27 172 172q119 166 119 287q0 61 -56 115q-133 -27 -217 -172q-73 -127 -73 -261q0 -67 55 -141z" />
<glyph unicode="r" horiz-adv-x="591" d="M-25 500q59 29 150 98q76 59 151 119q0 -23 13.5 -75t13.5 -83q47 6 122 78t91 78q0 -55 23.5 -124t23.5 -89q0 6 -6 -80t-6 -277q0 -23 -51 -153q0 369 -86 465l90 6q0 53 -4 64.5t-41 70.5q-53 -43 -106.5 -86t-63.5 -96q-45 -215 -111 -983q4 25 4 53q0 147 -110 514 q94 31 145 139v461q-129 -90 -209 -252q-34 55 -34 124q0 14 1 28z" />
<glyph unicode="s" horiz-adv-x="612" d="M6 172q53 -45 156 -74q82 -22 142 -22h5q104 0 201 65v20q0 114 -66 144q-18 8 -176 19q-137 10 -229 79q-2 23 -2 43q0 113 100 170q51 31 211 70q137 35 180 78q-25 -76 -73 -268q-35 104 -119 104q-66 0 -132.5 -32.5t-99.5 -84.5q63 -88 197 -112q98 -16 197 -33 q90 -33 90 -150q0 -45 -70 -114q-82 -80 -172 -80q-25 0 -49 6q-35 6 -64 6q-98 0 -145 -86q-16 -27 -82 -229v481z" />
<glyph unicode="t" horiz-adv-x="622" d="M4 526v176q143 4 205 25q108 37 108 135q0 27 -39.5 206t-39.5 204q0 27 61 98q84 98 92 109q-25 -92 -35 -242q-14 -213 -18 -244l16 -200q47 2 144 41q147 59 174 67q0 -8 -9.5 -46t-9.5 -48q-217 -37 -317 -96v-674q2 -96 2 -195q4 -176 24 -288q-31 31 -75 194 q-47 172 -109 252q61 55 86 166q16 96 33 192l-14 369q-158 -76 -279 -201z" />
<glyph unicode="u" horiz-adv-x="778" d="M-25 510q43 27 82 53q94 63 146 115q68 -37 73 -207q8 -236 43 -338q285 285 326 576q31 -68 31 -547q0 -23 100 -150q-47 -61 -131 -401q-14 127 -29 389q-14 274 -28 408q-72 -137 -168 -265q-110 -144 -160 -144q-4 0 -8 1q-23 6 -23 72q0 29 7.5 127t7.5 157 q0 147 -37 238q-37 -18 -72 -53q-80 -80 -125 -215q-6 72 -35 184z" />
<glyph unicode="v" horiz-adv-x="624" d="M-94 432q-1 3 -1 6q0 60 199 320q6 -31 31 -293q16 -188 49 -313q39 68 113 233q76 178 125 264q84 148 184 240q8 -29 8 -80q0 -111 -20 -217l-37 86q-137 -78 -235 -305q-70 -190 -142 -379q-84 256 -157 553q-20 -31 -35 -101q-16 -80 -19 -86z" />
<glyph unicode="w" horiz-adv-x="636" d="M-160 440q0 59 66 119q90 72 180 146q0 -350 23 -506q20 43 57 164.5t67 177.5q47 86 119 112q6 -100 13 -200q8 -125 32 -203q35 113 181 356q165 283 292 402q0 -117 -14 -185q-203 -72 -328 -381q-98 -246 -104 -495q-33 92 -74 260q-53 213 -69 270q-31 -63 -95 -223 q-70 -176 -108 -256q-12 88 -25.5 278.5t-27.5 278.5q-33 -31 -72 -104q-29 -61 -59 -125q-53 37 -54 114z" />
<glyph unicode="x" horiz-adv-x="589" d="M6 109q80 70 162 143.5t82 112.5q0 37 -23 104q-20 57 -41 115l-170 -170q-8 23 -8 43q0 63 88 125q106 76 119 98q10 -45 80 -254l295 236q-119 -145 -246 -330q0 -37 94 -170q78 -109 127 -162q-16 -27 -18 -109q2 -59 2 -116q-2 -33 -8 -62q-16 303 -256 553 q-45 -41 -113 -133q-61 -80 -123 -160q0 23 -13 71t-30 65z" />
<glyph unicode="y" horiz-adv-x="559" d="M-49 430q25 12 80 64q63 57 96 79q12 -70 33.5 -218t34.5 -218q180 242 299 484q0 -57 8 -230q6 -145 6 -233q0 -223 -37 -379q-14 -53 -94 -152q-94 -115 -123 -174q-51 -102 -74 -284q-18 -172 -35 -343q0 219 -55 779h12q211 0 285 141q51 98 51 332v53v53 q0 133 13 207q-102 -133 -310 -391v23q0 200 -65 413q-14 -23 -72 -160q0 20 -26.5 77t-26.5 77z" />
<glyph unicode="z" horiz-adv-x="602" d="M12 399q74 0 203 41q162 51 213 60q-72 -238 -190 -385q51 0 129 35q72 37 145 73q35 -4 35 -63q0 -135 -187.5 -524.5t-187.5 -532.5q0 -23 6 -61.5t6 -61.5q0 -86 -34 -264q-45 371 -113 735q139 41 268 283q119 225 119 391q-16 -6 -139 -64q-102 -51 -170 -61 q125 180 133 193q66 109 69 190q4 4 5 8q0 12 -43 12q-27 0 -116 -77.5t-118 -126.5z" />
<glyph unicode="~" horiz-adv-x="671" d="M-23 817l269 254q6 -29 99 -81t132 -50t215 131l-198 -240q18 124 -209 132q-106 4 -308 -146z" />
<glyph unicode="&#xa1;" d="M4 -299q33 113 57 324q14 168 31 335q4 43 -8 269q-14 262 -14 385q0 219 34 268q6 -102 15 -205q23 -129 112 -203q-100 -162 -100 -571q0 -90 4 -248q6 -145 4 -198q0 -23 -46 -69t-89 -87zM66 1554q-1 -45 108 -100q-8 29 -28.5 92.5t-30.5 91.5q-49 -49 -49 -84z" />
<glyph unicode="&#xa2;" horiz-adv-x="483" d="M6 76q0 35 62 270q76 283 77 291q43 -14 64 115q23 137 43 141l-59 -1223q-8 8 -9 166q0 57 2 207t2 223q0 258 -16 279q-100 -283 -100 -404q0 -14 -4 -37q-2 -16 0 -28q4 -16 18 -45q68 41 178 133q90 73 178 147q-4 -201 -10 -377q-8 -152 -8 -157q-18 127 -57 387 q-248 -213 -334 -197q0 4 -13.5 42t-13.5 67z" />
<glyph unicode="&#xa3;" horiz-adv-x="866" d="M-119 705q147 0 317.5 3t204.5 3q121 0 176.5 -13.5t129.5 -60.5q-63 14 -121 14q-141 0 -260 -92q-35 57 -119 92l-225 -12q4 -14 23.5 -32.5t19.5 -26.5h-99q-12 35 -47 125zM0 -98q8 78 55 307q41 201 43 307q2 143 2 264q0 254 -11 403.5t-11 123.5l125 24 q145 31 241 64q139 47 168 100q-2 -37 -82 -76q-127 -63 -163 -90q-102 -76 -152 -188q-68 -156 -84 -537q-20 -438 -37 -510q123 6 318 53q163 41 325 84q-27 -150 -73 -454q4 39 4 76q0 246 -191 245q-115 0 -283.5 -67.5t-193.5 -128.5z" />
<glyph unicode="&#xa5;" horiz-adv-x="1030" d="M-25 205q176 0 375 2q16 84 27 196l-248 -10q4 -14 28.5 -32.5t24.5 -26.5h-123q-16 33 -59 125q180 0 383 2q2 18 8 92l-2 -2q-4 215 -29 627q-31 -59 -67 -236q-41 -190 -66 -250q4 31 4 60q0 84 -32.5 163.5t-32.5 81.5q0 16 98 148q111 150 137 203q8 -197 41 -641 q119 197 441 761q0 -104 6 -227h2q-2 -2 -2 0q-74 -10 -152 -119q-47 -68 -139 -237q-94 -178 -143 -252q-8 -82 -19 -172q281 4 305 2q168 -8 293 -72q-80 14 -149 15q-178 0 -326 -95q-37 49 -131 86q-12 -106 -27 -190q287 4 310 4q174 -10 299 -74q-80 14 -150 15 q-178 0 -325 -95q-41 55 -144 93q-10 -49 -18 -84q-18 -68 -99 -242q-84 -188 -112 -275q-29 -92 -49 -536q-39 184 -95 651q240 123 320 486l-234 -11q4 -14 29 -32.5t25 -26.5h-123q-16 33 -60 125z" />
<glyph unicode="&#xa7;" horiz-adv-x="843" d="M43 705q0 53 27 163q31 129 34 170q14 121 105 205q63 59 178 107q70 29 141 55q111 55 332 170q-39 -78 -57 -182q-12 -94 -27 -187v8q2 47 -18 109q-27 78 -70 78q-31 0 -180 -53q-168 -59 -250 -109q-27 -18 -47.5 -66.5t-20.5 -85.5q0 -86 84 -110q27 -6 105 -6 q18 0 151.5 9t151.5 9q84 0 144.5 -58t52.5 -126q-31 -289 -71 -385t-151 -146q-164 -59 -327 -118q-72 -27 -127 -99q-63 -84 -82 -198q-8 -63 -43 -283q0 291 -23 606l-4 60q25 -39 88 -39q18 0 54 -10.5t55 -10.5q106 0 260 56q217 76 217 200q0 195 -240 195 q-16 0 -140 -19.5t-140 -19.5q-162 0 -162 111zM133 791q0 -86 84 -111q25 -8 102 -8q18 0 151.5 10t152.5 10q84 0 141 -82q18 37 18 125q0 197 -237 197q-16 0 -141 -19.5t-140 -19.5q-66 0 -96 12q-35 -59 -35 -114zM655 641q3 -2 13 -14q-8 10 -13 14z" />
<glyph unicode="&#xa8;" horiz-adv-x="487" d="M102 1374q0 48 109 101q-8 -29 -29.5 -92.5t-29.5 -92.5q-49 49 -50 84zM291 1360q-1 47 108 100q-10 -29 -30.5 -92t-28.5 -92q-49 49 -49 84z" />
<glyph unicode="&#xa9;" horiz-adv-x="1036" d="M-70 285q84 193 254 462t207 267q154 -10 383 -84q168 -56 205 -76q-8 -31 -43 -463q-33 -422 -33 -467q-39 -39 -82 -74q-104 -84 -207 -131q276 182 277 674q0 92 -10 215q-12 143 -13 158q10 25 -163 86q-156 55 -263 76q-35 8 -194 -215q-156 -215 -250 -394 q-2 -6 -2 -12q0 -63 220 -241.5t226 -165.5q-2 -6 -268 163.5t-244 221.5zM301 115q0 82 107 555q31 49 129 69l4 -305q-10 10 -33 67.5t-39 82.5q-100 -283 -100 -404q0 -14 -4 -37q-2 -16 0 -28q2 -16 18 -45q68 41 178 133q88 73 178 147q-4 -199 -12 -377 q-6 -152 -6 -157q-18 127 -59 387q-248 -213 -332 -197q0 4 -14.5 42t-14.5 67z" />
<glyph unicode="&#xaa;" horiz-adv-x="671" d="M2 1544q240 16 436 172q-8 -455 236 -596q-102 -389 -115 -540q-6 39 -6 90q0 37 5 118.5t5 126.5q0 205 -90 338q-23 -14 -86 -94t-108 -117q-74 -57 -148 -53q-20 0 -44 32t-24 64q0 145 381 289q-8 63 -45 230q-154 -8 -258 -117t-108 -254q0 182 -31 311zM53 911h619 l-568 -71zM106 1075q0 -49 29 -53q84 59 168 119q104 82 94 141q-55 8 -173 -68.5t-118 -138.5z" />
<glyph unicode="&#xad;" horiz-adv-x="1148" d="M20 727q182 0 395.5 3t256.5 3q154 0 222.5 -13.5t160.5 -60.5q-80 14 -150 15q-178 0 -327 -92q-41 57 -148 92l-280 -12q4 -14 28.5 -33t24.5 -27h-125q-14 35 -58 125z" />
<glyph unicode="&#xae;" horiz-adv-x="1036" d="M-70 285q84 193 254 462t207 267q154 -10 383 -84q168 -56 205 -76q-8 -31 -43 -463q-33 -422 -33 -467q-39 -39 -82 -74q-104 -84 -207 -131q276 182 277 674q0 92 -10 215q-12 143 -13 158q10 25 -163 86q-156 55 -263 76q-35 8 -194 -215q-156 -215 -250 -394 q-2 -6 -2 -12q0 -63 220 -241.5t226 -165.5q-2 -6 -268 163.5t-244 221.5zM215 500q59 27 152 98q76 59 149 117q0 -23 13.5 -74t13.5 -82q49 6 122.5 78t92.5 78q0 -55 23.5 -125t23.5 -88q0 4 -7 -81t-7 -278q0 -20 -50 -151q0 369 -86 463l90 8q0 51 -4 65q-4 8 -43 70 q-53 -43 -105 -87t-65 -95q-45 -215 -108 -983q2 25 2 51q0 150 -111 516q96 29 148 139v459q-129 -88 -209 -252q-43 68 -35 154z" />
<glyph unicode="&#xb0;" horiz-adv-x="397" d="M147 1382q0 53 19.5 92t46.5 39t47.5 -38.5t20.5 -92.5q0 -55 -20.5 -94t-47.5 -39t-46.5 39t-19.5 94zM188 1405q0 -100 31 -100q12 0 25.5 34.5t13.5 65.5q0 70 -35 70t-35 -70z" />
<glyph unicode="&#xb1;" horiz-adv-x="1148" d="M41 0q184 0 396 2t255 2q154 0 222.5 -13.5t160.5 -58.5q-80 14 -149 15q-178 0 -326 -94q-43 59 -149 94l-281 -13q4 -14 28.5 -32.5t24.5 -26.5h-123q-16 33 -59 125zM61 682q78 0 187.5 6t148.5 6q0 39 10.5 140.5t10.5 169.5q45 -23 125 -60v-123q-8 0 -26.5 23.5 t-33.5 29.5l-6 -182q268 4 316 0q172 -12 303 -78q-80 14 -150 15q-178 0 -328 -94q-25 35 -155 79l8 -22q35 -104 92 -148q-92 -150 -92 -325q0 -70 14 -150q-70 139 -82 312q-4 39 0 327l-213 6q4 -14 29 -31.5t25 -27.5h-125q-14 35 -58 127z" />
<glyph unicode="&#xb4;" horiz-adv-x="358" d="M51 1307q80 106 107 186l24 86q23 39 144 31q-20 -18 -136 -150.5t-139 -152.5z" />
<glyph unicode="&#xb6;" horiz-adv-x="1433" d="M-27 1499q0 -49 195 -168q174 -106 274 -139q145 -51 267 -125q31 -18 73 -111q31 -72 64 -141l-4 254q-86 55 -287 126t-274 116q-127 78 -148 196q90 61 225 62q147 0 473 -109q63 -279 68 -467q10 -432 10 -809q0 -170 -55 -534q43 250 131 469q18 16 35 35 q31 31 31 57q0 18 -44 195.5t-46 211.5q-20 270 -21 343q0 215 49 389q-6 8 -49 18q-33 10 -33 43q0 14 6 37q184 -27 261 -313q70 -254 69 -791q0 -244 -14 -600l33 -23l79 1612q-63 76 -468.5 175.5t-630.5 99.5q-84 0 -162 -23q-107 -29 -107 -86z" />
<glyph unicode="&#xba;" horiz-adv-x="487" d="M0 889h487l-407 -49zM41 1208q0 121 59 242q86 176 250 176q41 0 74 -20q10 -9 63 -58q2 -6 2 -30q0 -176 -57 -349q-82 -252 -239 -251q-152 0 -152 290zM92 1194q0 -184 117 -201q82 55 155.5 184t73.5 209q0 37 -14 95.5t-14 64.5q-180 -16 -263 -151 q-55 -90 -55 -201z" />
<glyph unicode="&#xbf;" horiz-adv-x="886" d="M4 -45q0 297 438 506q29 358 29 569q10 -135 27 -233q39 -238 96 -256q33 -13 158 -9q-190 -102 -326 -200q-326 -238 -326 -426q0 -35 22.5 -84t53.5 -66q66 -37 193 -37q74 0 173 13l99 14q70 0 94 145q0 29 2 50q4 -12 -2 -50q-4 -174 109 -264q-78 20 -207 27 q-139 8 -178 14q-82 12 -166 25q-127 23 -195 74q-94 68 -94 188zM442 1153q8 27 29 91.5t31 90.5q49 -49 49 -84q0 -45 -109 -98z" />
<glyph unicode="&#xc0;" horiz-adv-x="817" d="M-41 760q0 31 10 51q80 -6 172 12q111 23 146 68q68 90 116 283q59 236 78 278q16 -129 33 -260q20 -158 49 -260q86 12 295 26q223 17 313 27q-213 -49 -598 -139q14 -47 99 -234q68 -156 67 -188q0 -35 -61 -381q-86 -494 -96 -549q35 217 34 594q0 -8 13 119 q12 115 6 207q-10 168 -51 286q-45 135 -115 136q-119 0 -176 -252q-43 -182 -53 -492l-4 -332l-54 -53q0 356 -16 529q-6 66 -62 247q164 145 158 318q-150 -55 -293 -152q0 14 -5 52t-5 59zM297 1769q20 -18 136 -150t138 -153q-80 106 -106 187q-12 43 -25 86 q-22 38 -143 30zM393 903l68 -8q14 29 14 66t-14 83q-8 25 -17 52q0 -33 -28.5 -102.5t-22.5 -90.5z" />
<glyph unicode="&#xc1;" horiz-adv-x="817" d="M-41 760q0 31 10 51q80 -6 172 12q111 23 146 68q68 90 116 283q59 236 78 278q16 -129 33 -260q20 -158 49 -260q86 12 295 26q223 17 313 27q-213 -49 -598 -139q14 -47 99 -234q68 -156 67 -188q0 -35 -61 -381q-86 -494 -96 -549q35 217 34 594q0 -8 13 119 q12 115 6 207q-10 168 -51 286q-45 135 -115 136q-119 0 -176 -252q-43 -182 -53 -492l-4 -332l-54 -53q0 356 -16 529q-2 33 -32 125t-30 122q0 41 43 86q74 74 80 84q41 57 37 133q-203 -76 -295 -137q0 14 -5 52t-5 59zM393 903l68 -8q14 29 14 66t-14 83q-8 25 -17 52 q0 -33 -28.5 -102.5t-22.5 -90.5zM467 1503q78 106 104 187q12 41 27 84q22 40 143 32q-23 -20 -138.5 -152t-135.5 -151z" />
<glyph unicode="&#xc2;" horiz-adv-x="817" d="M-41 760q0 31 10 51q80 -6 172 12q111 23 146 68q68 90 116 283q59 236 78 278q16 -129 33 -260q20 -158 49 -260q86 12 295 26q223 17 313 27q-213 -49 -598 -139q14 -47 99 -234q68 -156 67 -188q0 -35 -61 -381q-86 -494 -96 -549q35 217 34 594q0 -8 13 119 q12 115 6 207q-10 168 -51 286q-45 135 -115 136q-119 0 -176 -252q-43 -182 -53 -492l-4 -332l-54 -53q0 356 -16 529q-2 33 -32 125t-30 122q0 41 58.5 125t52.5 183q-76 -29 -246 -142q0 14 -5 52t-5 59zM252 1425l256 248l102 -153l146 -148l-205 148l-43 65zM393 903 l68 -8q14 29 14 66t-14 83q-8 25 -17 52q0 -33 -28.5 -102.5t-22.5 -90.5z" />
<glyph unicode="&#xc3;" horiz-adv-x="817" d="M-41 760q0 31 10 51q80 -6 172 12q111 23 146 68q68 90 116 283q59 236 78 278q16 -129 33 -260q20 -158 49 -260q86 12 295 26q223 17 313 27q-213 -49 -598 -139q14 -47 99 -234q68 -156 67 -188q0 -35 -61 -381q-86 -494 -96 -549q35 217 34 594q0 -8 13 119 q12 115 6 207q-10 168 -51 286q-45 135 -115 136q-119 0 -176 -252q-43 -182 -53 -492l-4 -332l-54 -53q0 356 -16 529q-2 33 -32 125t-30 122q172 145 162 310q-186 -70 -297 -144q0 14 -5 52t-5 59zM137 1464l269 254q6 -29 99 -81t132 -50t215 131l-199 -239 q18 123 -209 131q-106 4 -307 -146zM393 903l68 -8q14 29 14 66t-14 83q-8 25 -17 52q0 -33 -28.5 -102.5t-22.5 -90.5z" />
<glyph unicode="&#xc4;" horiz-adv-x="817" d="M-41 760q0 31 10 51q80 -6 172 12q111 23 146 68q68 90 116 283q59 236 78 278q16 -129 33 -260q20 -158 49 -260q86 12 295 26q223 17 313 27q-213 -49 -598 -139q14 -47 99 -234q68 -156 67 -188q0 -35 -61 -381q-86 -494 -96 -549q35 217 34 594q0 -8 13 119 q12 115 6 207q-10 168 -51 286q-45 135 -115 136q-119 0 -176 -252q-43 -182 -53 -492l-4 -332l-54 -53q0 356 -16 529q-2 33 -32 125t-30 122q0 41 58.5 125t52.5 183q-76 -29 -246 -142q0 14 -5 52t-5 59zM344 1589q0 48 109 101q-8 -29 -30 -92.5t-30 -92.5 q-49 49 -49 84zM393 903l68 -8q14 29 14 66t-14 83q-8 25 -17 52q0 -33 -28.5 -102.5t-22.5 -90.5zM532 1575q0 47 109 100q-10 -29 -30.5 -92t-28.5 -92q-49 49 -50 84z" />
<glyph unicode="&#xc5;" horiz-adv-x="817" d="M-41 760q0 31 10 51q80 -6 172 12q111 23 146 68q68 90 116 283q59 236 78 278q16 -129 33 -260q20 -158 49 -260q86 12 295 26q223 17 313 27q-213 -49 -598 -139q14 -47 99 -234q68 -156 67 -188q0 -35 -61 -381q-86 -494 -96 -549q35 217 34 594q0 -8 13 119 q12 115 6 207q-10 168 -51 286q-45 135 -115 136q-119 0 -176 -252q-43 -182 -53 -492l-4 -332l-54 -53q0 356 -16 529q-2 33 -32 125t-30 122q0 41 58.5 125t52.5 183q-76 -29 -246 -142q0 14 -5 52t-5 59zM393 903l68 -8q14 29 14 66t-14 83q-8 25 -17 52 q0 -33 -28.5 -102.5t-22.5 -90.5zM420 1661q0 53 19 92t46 39t47.5 -39t20.5 -92q0 -55 -20.5 -94t-47.5 -39t-46 39t-19 94zM461 1683q0 -100 31 -100q12 0 25 35t13 65q1 70 -34 70t-35 -70z" />
<glyph unicode="&#xc6;" horiz-adv-x="1482" d="M-41 760q0 31 10 51q80 -6 172 12q111 23 146 68q68 90 116 283q59 236 78 278q6 -45 15 -121q559 58 790 150l-55 -256q4 70 -19 110q-18 25 -36 49q-141 -43 -672 -110q27 -225 59 -342q86 12 295 26q223 16 313 27q-213 -49 -598 -139q14 -47 99 -234q68 -156 67 -188 q0 -33 -57 -358q25 0 55 -17q174 63 699 266q-8 -76 -16.5 -368.5t-20.5 -411.5q-2 20 -8 279q-4 137 -43 192q-53 72 -197 72q-141 0 -260 -53.5t-225 -57.5l-84 -473q35 217 34 594q0 -8 13 119q12 115 6 207q-10 168 -51 286q-45 135 -115 136q-119 0 -176 -252 q-43 -182 -53 -492l-4 -332l-54 -53q0 356 -16 529q-2 33 -32 125t-30 122q0 41 58.5 125t52.5 183q-76 -29 -246 -142q0 14 -5 52t-5 59zM393 903l68 -8q14 29 14 66t-14 83q-8 25 -17 52q0 -33 -28.5 -102.5t-22.5 -90.5z" />
<glyph unicode="&#xc7;" horiz-adv-x="800" d="M20 37l13 391q-4 49 26 324q37 309 76 491q14 59 62.5 98t107.5 39q80 0 166 -80.5t82 -132.5v-546q-57 211 -129 340q20 47 41.5 95t21.5 85q0 104 -194 188q-135 -147 -178 -749q-12 -176 -19 -744q201 242 340 373q74 68 289 235q39 -76 63 -473q-18 80 -36 162 q-43 133 -117 133q-39 0 -258 -221q0 -327 0 -321q-96 53 -88 100q25 35 73 207q-113 -119 -311 -320z" />
<glyph unicode="&#xc8;" horiz-adv-x="1173" d="M-2 39q0 139 143 291q106 111 316 248q154 98 305 194q-14 4 -33 4q-31 0 -161 -25.5t-228 -25.5q-33 0 -68 2q0 98 129 205q84 68 281 180q209 121 272 168v-193q-12 0 -82 70q-133 -72 -266 -145q-178 -104 -239 -211q12 -12 19 -14.5t24 -2.5q27 2 45 2 q66 0 283.5 56.5t359.5 54.5q-90 -84 -377 -258q-315 -190 -428 -277q-201 -160 -197 -280q480 145 1086 385q-8 -76 -15.5 -369t-21.5 -411q-2 20 -8 278q-4 137 -43 193q-51 72 -197 71q-141 0 -456.5 -113.5t-440.5 -115.5q-2 20 -2 39zM428 1581q20 -18 136 -150.5 t138 -152.5q-80 106 -106 186q-12 43 -25 86q-22 39 -143 31z" />
<glyph unicode="&#xc9;" horiz-adv-x="1173" d="M-2 39q0 139 143 291q106 111 316 248q154 98 305 194q-14 4 -33 4q-31 0 -161 -25.5t-228 -25.5q-33 0 -68 2q0 98 129 205q84 68 281 180q209 121 272 168v-193q-12 0 -82 70q-133 -72 -266 -145q-178 -104 -239 -211q12 -12 19 -14.5t24 -2.5q27 2 45 2 q66 0 283.5 56.5t359.5 54.5q-90 -84 -377 -258q-315 -190 -428 -277q-201 -160 -197 -280q480 145 1086 385q-8 -76 -15.5 -369t-21.5 -411q-2 20 -8 278q-4 137 -43 193q-51 72 -197 71q-141 0 -456.5 -113.5t-440.5 -115.5q-2 20 -2 39zM526 1272q80 106 107 186l24 86 q23 39 144 31q-20 -18 -136 -150.5t-139 -152.5z" />
<glyph unicode="&#xca;" horiz-adv-x="1173" d="M-2 39q0 139 143 291q106 111 316 248q154 98 305 194q-14 4 -33 4q-31 0 -161 -25.5t-228 -25.5q-33 0 -68 2q0 98 129 205q84 68 281 180q209 121 272 168v-193q-12 0 -82 70q-133 -72 -266 -145q-178 -104 -239 -211q12 -12 19 -14.5t24 -2.5q27 2 45 2 q66 0 283.5 56.5t359.5 54.5q-90 -84 -377 -258q-315 -190 -428 -277q-201 -160 -197 -280q480 145 1086 385q-8 -76 -15.5 -369t-21.5 -411q-2 20 -8 278q-4 137 -43 193q-51 72 -197 71q-141 0 -456.5 -113.5t-440.5 -115.5q-2 20 -2 39zM438 1389l256 247l103 -153 l145 -148l-205 148l-43 65z" />
<glyph unicode="&#xcb;" horiz-adv-x="1173" d="M-2 39q0 139 143 291q106 111 316 248q154 98 305 194q-14 4 -33 4q-31 0 -161 -25.5t-228 -25.5q-33 0 -68 2q0 98 129 205q84 68 281 180q209 121 272 168v-193q-12 0 -82 70q-133 -72 -266 -145q-178 -104 -239 -211q12 -12 19 -14.5t24 -2.5q27 2 45 2 q66 0 283.5 56.5t359.5 54.5q-90 -84 -377 -258q-315 -190 -428 -277q-201 -160 -197 -280q480 145 1086 385q-8 -76 -15.5 -369t-21.5 -411q-2 20 -8 278q-4 137 -43 193q-51 72 -197 71q-141 0 -456.5 -113.5t-440.5 -115.5q-2 20 -2 39zM469 1389q0 47 109 100 q-8 -29 -30 -92.5t-30 -91.5q-49 49 -49 84zM657 1374q0 48 109 101q-10 -29 -30.5 -92.5t-28.5 -92.5q-49 49 -50 84z" />
<glyph unicode="&#xcc;" horiz-adv-x="1038" d="M20 131q229 33 357 100l86 867q0 119 -41 119q-27 0 -167 -70t-150.5 -92.5t-57.5 -210.5q0 2 -7 38t-13 93q-6 84 -7 211q367 88 1051 231q-6 -14 -227 -67q-242 -55 -322 -121q-25 -307 -59 -963q25 -33 96 -33q39 0 221 27q166 25 275 19q-29 -10 -365 -64 q-276 -43 -416 -137q-201 -137 -206 -410q-14 160 -48 463zM260 1696q23 -18 138.5 -150.5t138.5 -152.5q-80 106 -107 186l-24 86q-23 39 -146 31z" />
<glyph unicode="&#xcd;" horiz-adv-x="1038" d="M20 131q229 33 357 100l86 867q0 119 -41 119q-27 0 -167 -70t-150.5 -92.5t-57.5 -210.5q0 2 -7 38t-13 93q-6 84 -7 211q367 88 1051 231q-6 -14 -227 -67q-242 -55 -322 -121q-25 -307 -59 -963q25 -33 96 -33q39 0 221 27q166 25 275 19q-29 -10 -365 -64 q-276 -43 -416 -137q-201 -137 -206 -410q-14 160 -48 463zM440 1393q80 106 107 186l24 86q23 39 144 31q-20 -18 -136 -150.5t-139 -152.5z" />
<glyph unicode="&#xce;" horiz-adv-x="1038" d="M20 131q229 33 357 100l86 867q0 119 -41 119q-27 0 -167 -70t-150.5 -92.5t-57.5 -210.5q0 2 -7 38t-13 93q-6 84 -7 211q367 88 1051 231q-6 -14 -227 -67q-242 -55 -322 -121q-25 -307 -59 -963q25 -33 96 -33q39 0 221 27q166 25 275 19q-29 -10 -365 -64 q-276 -43 -416 -137q-201 -137 -206 -410q-14 160 -48 463zM199 1479l256 247l102 -153l145 -148l-204 148l-43 65z" />
<glyph unicode="&#xcf;" horiz-adv-x="1038" d="M20 131q229 33 357 100l86 867q0 119 -41 119q-27 0 -167 -70t-150.5 -92.5t-57.5 -210.5q0 2 -7 38t-13 93q-6 84 -7 211q367 88 1051 231q-6 -14 -227 -67q-242 -55 -322 -121q-25 -307 -59 -963q25 -33 96 -33q39 0 221 27q166 25 275 19q-29 -10 -365 -64 q-276 -43 -416 -137q-201 -137 -206 -410q-14 160 -48 463zM303 1477q0 45 109 100q-8 -29 -29 -92.5t-31 -91.5q-49 49 -49 84zM492 1462q-1 46 108 101q-8 -29 -28.5 -92.5t-30.5 -92.5q-49 49 -49 84z" />
<glyph unicode="&#xd0;" horiz-adv-x="978" d="M-6 1358q51 -31 160 -31q72 0 221 18.5t203 18.5q135 0 178 -6q88 -15 221 -74q-14 -80 -141 -213q-160 -166 -185 -203q-111 -160 -223 -319q-139 -213 -176 -377q-8 -37 -8 -98t11 -196.5t11 -186.5q-14 82 -69 321q-47 197 -47 221q0 6 155 222q184 256 260 370 q14 20 187 209q115 125 110 213q-53 45 -149 53q4 0 -160 0q-270 0 -346 -14q-205 -39 -191 -190q0 90 -22 262zM0 954h530l-483 -75zM184 354l2 414q8 209 27 496l76 -19l4 -264q-14 -172 -29 -342q-20 -213 -80 -285z" />
<glyph unicode="&#xd1;" horiz-adv-x="1159" d="M0 184q164 33 272 211q74 121 148 369q80 272 112 340q14 -57 41 -279q25 -195 72 -342q4 -12 8 -12t9 6q16 207 194 549q72 139 318 414q229 256 389 389q-45 -152 -58 -471q-18 96 -44.5 139t-82.5 43q-43 0 -125 -72q-66 -57 -102 -106q-260 -344 -358 -748 q-76 -303 -76 -745q-84 332 -205 979q-51 -147 -174 -387q-125 -248 -172 -371q-80 -219 -90 -444q4 76 -23 235q-27 152 -53 303zM242 1255l268 254q6 -29 99 -81t132 -50t215 131l-198 -239q18 123 -209 131q-106 4 -307 -146z" />
<glyph unicode="&#xd2;" horiz-adv-x="688" d="M20 489q0 68 41 248q51 236 127 383q100 199 226 199q143 0 215 -154q51 -111 51 -250q0 -96 -47 -299q-59 -250 -141 -409q-109 -207 -238 -207q-141 0 -203 240q-31 129 -31 249zM127 500q0 -119 33 -244q45 -170 127 -170q152 0 243 365q64 253 64 411q0 373 -137 373 q-88 0 -174 -178q-63 -133 -115 -340q-41 -168 -41 -217zM246 1669q20 -18 136 -150.5t138 -152.5q-80 106 -106 186q-12 43 -25 86q-22 39 -143 31z" />
<glyph unicode="&#xd3;" horiz-adv-x="688" d="M20 489q0 68 41 248q51 236 127 383q100 199 226 199q143 0 215 -154q51 -111 51 -250q0 -96 -47 -299q-59 -250 -141 -409q-109 -207 -238 -207q-141 0 -203 240q-31 129 -31 249zM127 500q0 -119 33 -244q45 -170 127 -170q152 0 243 365q64 253 64 411q0 373 -137 373 q-88 0 -174 -178q-63 -133 -115 -340q-41 -168 -41 -217zM344 1401q80 106 107 186l24 86q22 39 143 31q-20 -18 -135.5 -150.5t-138.5 -152.5z" />
<glyph unicode="&#xd4;" horiz-adv-x="688" d="M20 489q0 68 41 248q51 236 127 383q100 199 226 199q143 0 215 -154q51 -111 51 -250q0 -96 -47 -299q-59 -250 -141 -409q-109 -207 -238 -207q-141 0 -203 240q-31 129 -31 249zM127 500q0 -119 33 -244q45 -170 127 -170q152 0 243 365q64 253 64 411q0 373 -137 373 q-88 0 -174 -178q-63 -133 -115 -340q-41 -168 -41 -217zM147 1401l256 248l103 -154l145 -147l-205 147l-43 66z" />
<glyph unicode="&#xd5;" horiz-adv-x="688" d="M20 489q0 68 41 248q51 236 127 383q100 199 226 199q143 0 215 -154q51 -111 51 -250q0 -96 -47 -299q-59 -250 -141 -409q-109 -207 -238 -207q-141 0 -203 240q-31 129 -31 249zM33 1386l268 254q6 -29 99.5 -81t131.5 -50q39 2 216 131l-199 -239q18 123 -209 131 q-106 4 -307 -146zM127 500q0 -119 33 -244q45 -170 127 -170q152 0 243 365q64 253 64 411q0 373 -137 373q-88 0 -174 -178q-63 -133 -115 -340q-41 -168 -41 -217z" />
<glyph unicode="&#xd6;" horiz-adv-x="688" d="M20 489q0 68 41 248q51 236 127 383q100 199 226 199q143 0 215 -154q51 -111 51 -250q0 -96 -47 -299q-59 -250 -141 -409q-109 -207 -238 -207q-141 0 -203 240q-31 129 -31 249zM127 500q0 -119 33 -244q45 -170 127 -170q152 0 243 365q64 253 64 411q0 373 -137 373 q-88 0 -174 -178q-63 -133 -115 -340q-41 -168 -41 -217zM295 1503q-1 48 108 101q-8 -29 -29.5 -92.5t-29.5 -92.5q-49 49 -49 84zM483 1489q0 47 109 100q-10 -29 -30.5 -92t-29.5 -92q-49 49 -49 84z" />
<glyph unicode="&#xd8;" horiz-adv-x="688" d="M25 915q0 137 51 248q70 152 211 152q106 0 205 -168q23 96 32 153q33 -70 94 -151q-37 -33 -77 -105q59 -147 102 -346q31 -154 31 -209q0 -121 -31 -247q-59 -236 -197 -236q-106 0 -206 156l-29 -111l-45 127q10 33 24 76q-74 160 -124 389q-41 186 -41 272zM100 862 q0 -59 23 -207q33 -203 86 -350q84 229 240 690q-99 244 -205 244q-104 0 -133 -178q-10 -61 -11 -199zM252 209q72 -129 162 -129q84 0 131 174q33 125 33 246q0 33 -25 147q-33 142 -76 271q-100 -244 -225 -709z" />
<glyph unicode="&#xd9;" horiz-adv-x="944" d="M-119 903q80 6 182 115q80 86 158 172q33 -305 64 -610q37 -369 80 -408q18 -16 200 381q266 580 305 655q-70 -582 -69 -796q0 -166 61 -318q6 -14 51 -96q-33 -156 -84 -479q-10 137 -49 448q-35 285 -35 303q0 16 25 271q27 291 39 463q-111 -303 -219 -605 q-156 -401 -225 -401q-66 0 -117 436q-31 295 -62 588q-168 -72 -168 -395q0 -53 5 -131q-41 184 -142 407zM246 1669q20 -18 136 -150.5t138 -152.5q-80 106 -106 186q-12 43 -25 86q-22 39 -143 31z" />
<glyph unicode="&#xda;" horiz-adv-x="933" d="M-119 903q80 6 182 115q80 86 158 172q33 -305 64 -610q37 -369 80 -408q18 -16 200 381q266 580 305 655q-70 -582 -69 -796q0 -166 61 -318q6 -14 51 -96q-33 -156 -84 -479q-10 137 -49 448q-35 285 -35 303q0 16 25 271q27 291 39 463q-111 -303 -219 -605 q-156 -401 -225 -401q-66 0 -117 436q-31 295 -62 588q-168 -72 -168 -395q0 -53 5 -131q-41 184 -142 407zM344 1401q80 106 107 186l24 86q22 39 143 31q-20 -18 -135.5 -150.5t-138.5 -152.5z" />
<glyph unicode="&#xdb;" horiz-adv-x="933" d="M-119 903q80 6 182 115q80 86 158 172q33 -305 64 -610q37 -369 80 -408q18 -16 200 381q266 580 305 655q-70 -582 -69 -796q0 -166 61 -318q6 -14 51 -96q-33 -156 -84 -479q-10 137 -49 448q-35 285 -35 303q0 16 25 271q27 291 39 463q-111 -303 -219 -605 q-156 -401 -225 -401q-66 0 -117 436q-31 295 -62 588q-168 -72 -168 -395q0 -53 5 -131q-41 184 -142 407zM293 1405l256 248l102 -154l146 -147l-205 147l-43 66z" />
<glyph unicode="&#xdc;" horiz-adv-x="935" d="M-119 903q80 6 182 115q80 86 158 172q33 -305 64 -610q37 -369 80 -408q18 -16 200 381q266 580 305 655q-70 -582 -69 -796q0 -166 61 -318q6 -14 51 -96q-33 -156 -84 -479q-10 137 -49 448q-35 285 -35 303q0 16 25 271q27 291 39 463q-111 -303 -219 -605 q-156 -401 -225 -401q-66 0 -117 436q-31 295 -62 588q-168 -72 -168 -395q0 -53 5 -131q-41 184 -142 407zM369 1380q-1 46 108 101q-8 -29 -28.5 -92.5t-30.5 -92.5q-49 49 -49 84zM557 1366q0 45 109 100q-8 -29 -29 -92t-31 -92q-49 49 -49 84z" />
<glyph unicode="&#xde;" horiz-adv-x="1433" d="M219 74q0 16 49 96t51 117q20 270 21 342q0 215 -49 389q6 6 49 18q33 10 33 43q0 14 -6 37q-2 68 -2 150q0 195 10 348q12 166 31 166q31 0 61 -506q41 -16 166 -17q86 0 236.5 9.5t168.5 9.5q84 0 162 -23q107 -29 107 -86q0 -49 -195 -168q-174 -106 -274 -139 q-145 -51 -267 -125q-31 -18 -73 -110q-31 -72 -64 -142l4 252q86 57 287 128t274 116q127 78 148 197q-90 61 -225 61q-147 0 -473 -109q-63 -279 -68 -469q-6 -276 -12 -464q-6 -143 -7 -148q0 -170 56 -534q-43 250 -133 469q-16 16 -35 32q-31 33 -31 60z" />
<glyph unicode="&#xdf;" horiz-adv-x="1185" d="M-143 1137q199 45 555 96q315 45 374 45q68 0 125 -29q-10 -66 -159 -168q-225 -154 -230 -155q35 -6 90 -6q23 0 70 2h74q197 0 282 -70q8 -73 0 -102q-166 -145 -344 -334q-182 -199 -364 -396q-63 -68 -76 -219q-2 -16 -6 -290q-70 424 -70 704q0 109 -16 379 q-20 365 -49 526q-131 -29 -131 -289q0 -182 75.5 -568t75.5 -462q0 -27 -4 -43q0 33 -122 548t-122 538zM205 866q123 41 276 140q113 73 226 149q-102 14 -197 14q-158 0 -295 -39zM227 88q190 127 406 344q266 267 276 406q-35 0 -128 13t-122 13q-102 0 -215 -24 q-150 -33 -217 -97v-655z" />
<glyph unicode="&#xe0;" horiz-adv-x="671" d="M-6 569q240 14 434 170q-6 -455 238 -594q-102 -389 -115 -542q-6 39 -6 92q0 37 4 119t4 125q0 207 -88 340q-23 -14 -86.5 -94.5t-108.5 -116.5q-74 -57 -147 -54q-20 0 -44 31t-24 64q0 147 381 288q-10 63 -45 230q-156 -6 -260 -116t-108 -255q0 184 -29 313zM96 98 q0 -49 31 -53q84 59 168 119q104 82 94 143q-55 8 -174 -69.5t-119 -139.5zM176 1163q20 -18 136 -150t139 -153q-80 106 -107 187q-12 43 -25 86q-22 38 -143 30z" />
<glyph unicode="&#xe1;" horiz-adv-x="671" d="M-6 569q240 14 434 170q-6 -455 238 -594q-102 -389 -115 -542q-6 39 -6 92q0 37 4 119t4 125q0 207 -88 340q-23 -14 -86.5 -94.5t-108.5 -116.5q-74 -57 -147 -54q-20 0 -44 31t-24 64q0 147 381 288q-10 63 -45 230q-156 -6 -260 -116t-108 -255q0 184 -29 313zM96 98 q0 -49 31 -53q84 59 168 119q104 82 94 143q-55 8 -174 -69.5t-119 -139.5zM238 823q80 106 106 187q12 43 25 86q22 38 143 30q-20 -18 -136 -150t-138 -153z" />
<glyph unicode="&#xe2;" horiz-adv-x="671" d="M-6 569q240 14 434 170q-6 -455 238 -594q-102 -389 -115 -542q-6 39 -6 92q0 37 4 119t4 125q0 207 -88 340q-23 -14 -86.5 -94.5t-108.5 -116.5q-74 -57 -147 -54q-20 0 -44 31t-24 64q0 147 381 288q-10 63 -45 230q-156 -6 -260 -116t-108 -255q0 184 -29 313z M55 885l256 248l103 -154l145 -148l-205 148l-43 65zM96 98q0 -49 31 -53q84 59 168 119q104 82 94 143q-55 8 -174 -69.5t-119 -139.5z" />
<glyph unicode="&#xe3;" horiz-adv-x="671" d="M-23 817l269 254q6 -29 99 -81t132 -50t215 131l-198 -240q18 124 -209 132q-106 4 -308 -146zM-6 569q240 14 434 170q-6 -455 238 -594q-102 -389 -115 -542q-6 39 -6 92q0 37 4 119t4 125q0 207 -88 340q-23 -14 -86.5 -94.5t-108.5 -116.5q-74 -57 -147 -54 q-20 0 -44 31t-24 64q0 147 381 288q-10 63 -45 230q-156 -6 -260 -116t-108 -255q0 184 -29 313zM96 98q0 -49 31 -53q84 59 168 119q104 82 94 143q-55 8 -174 -69.5t-119 -139.5z" />
<glyph unicode="&#xe4;" horiz-adv-x="671" d="M-6 569q240 14 434 170q-6 -455 238 -594q-102 -389 -115 -542q-6 39 -6 92q0 37 4 119t4 125q0 207 -88 340q-23 -14 -86.5 -94.5t-108.5 -116.5q-74 -57 -147 -54q-20 0 -44 31t-24 64q0 147 381 288q-10 63 -45 230q-156 -6 -260 -116t-108 -255q0 184 -29 313zM96 98 q0 -49 31 -53q84 59 168 119q104 82 94 143q-55 8 -174 -69.5t-119 -139.5zM176 893q0 47 109 100q-8 -29 -30 -92t-30 -92q-49 49 -49 84zM365 879q-1 47 108 100q-10 -29 -30.5 -92.5t-28.5 -91.5q-49 49 -49 84z" />
<glyph unicode="&#xe5;" horiz-adv-x="671" d="M-6 569q240 14 434 170q-6 -455 238 -594q-102 -389 -115 -542q-6 39 -6 92q0 37 4 119t4 125q0 207 -88 340q-23 -14 -86.5 -94.5t-108.5 -116.5q-74 -57 -147 -54q-20 0 -44 31t-24 64q0 147 381 288q-10 63 -45 230q-156 -6 -260 -116t-108 -255q0 184 -29 313zM96 98 q0 -49 31 -53q84 59 168 119q104 82 94 143q-55 8 -174 -69.5t-119 -139.5zM258 928q0 53 19.5 92t48.5 39q27 0 46 -39t19 -92q0 -55 -19.5 -94t-45.5 -39q-29 0 -48.5 38.5t-19.5 94.5zM299 950q0 -100 31 -100q14 0 26.5 35t12.5 65q0 70 -35 70t-35 -70z" />
<glyph unicode="&#xe6;" horiz-adv-x="759" d="M-6 569q240 14 434 170l21 -264q2 14 2 31q27 78 43 110q25 61 55 107q12 4 24 4q84 0 160 -250q-158 -2 -221 -67q-20 -55 -23 -146q-2 -76 -2 -149q-4 -55 -20 -119q96 47 221 131q61 43 180 121q29 -76 29 -219q0 -123 -14 -187q-18 -82 -78 -233q25 127 39 174 l10 156l-10 88q-4 35 -39 36q-8 0 -31.5 -2t-40.5 -2q-53 0 -307 -129q0 201 6 318q-63 -74 -127 -148q-92 -90 -182 -86q-20 0 -44 32t-24 63q0 147 381 288q-10 63 -45 230q-156 -6 -260 -116t-108 -255q0 184 -29 313zM96 98q0 -49 31 -53q84 59 168 119q104 82 94 143 q-55 8 -174 -69.5t-119 -139.5zM451 444v2v-2zM520 500l156 12q-14 33 -45 92q-25 45 -70 68q-41 -127 -41 -172z" />
<glyph unicode="&#xe7;" horiz-adv-x="483" d="M6 76q0 82 107 555q31 49 129 69l4 -305q-12 10 -34 67.5t-40 82.5q-100 -283 -100 -404q0 -14 -4 -37q-2 -16 0 -28q4 -16 18 -45q23 14 97.5 67.5t74.5 61.5v-2q63 53 184 153q-4 -201 -10 -377q-8 -152 -8 -157q-18 127 -57 387q-55 -45 -107 -84q0 -328 0 -322 q-96 53 -88 101q2 4 30.5 65.5t43.5 143.5q-154 -113 -213 -101q0 4 -13.5 42t-13.5 67z" />
<glyph unicode="&#xe8;" horiz-adv-x="692" d="M-10 496q41 14 248 32q27 78 43 111q25 61 55 106q12 4 24 5q84 0 160 -250q-158 -4 -221 -68q-20 -55 -23 -145q-2 -76 -2 -152q-4 -55 -20 -119q96 49 221 134q61 43 180 120q29 -78 29 -219q0 -122 -14 -188q-18 -80 -78 -232q25 125 39 174l10 156l-10 86 q-4 37 -39 39q-8 0 -31.5 -2t-40.5 -2q-53 0 -307 -129q0 332 25 516q-10 -12 -11 -8v-2q0 10 -8 2q4 0 2 8q-6 -2 -20 0q-129 14 -172 -217q-10 -63 -19 -164l-2 -61q-2 -27 -4 -35l19 -2zM176 1163q20 -18 136 -150t139 -153q-80 106 -107 187q-12 43 -25 86 q-22 38 -143 30zM307 522l156 13q-14 33 -45 92q-25 45 -70 67q-41 -127 -41 -172z" />
<glyph unicode="&#xe9;" horiz-adv-x="692" d="M-10 496q41 14 248 32q27 78 43 111q25 61 55 106q12 4 24 5q84 0 160 -250q-158 -4 -221 -68q-20 -55 -23 -145q-2 -76 -2 -152q-4 -55 -20 -119q96 49 221 134q61 43 180 120q29 -78 29 -219q0 -122 -14 -188q-18 -80 -78 -232q25 125 39 174l10 156l-10 86 q-4 37 -39 39q-8 0 -31.5 -2t-40.5 -2q-53 0 -307 -129q0 332 25 516q-10 -12 -11 -8v-2q0 10 -8 2q4 0 2 8q-6 -2 -20 0q-129 14 -172 -217q-10 -63 -19 -164l-2 -61q-2 -27 -4 -35l19 -2zM270 838q80 106 107 186l24 86q23 39 144 31q-20 -18 -136 -150.5t-139 -152.5z M307 522l156 13q-14 33 -45 92q-25 45 -70 67q-41 -127 -41 -172z" />
<glyph unicode="&#xea;" horiz-adv-x="692" d="M-10 496q41 14 248 32q27 78 43 111q25 61 55 106q12 4 24 5q84 0 160 -250q-158 -4 -221 -68q-20 -55 -23 -145q-2 -76 -2 -152q-4 -55 -20 -119q96 49 221 134q61 43 180 120q29 -78 29 -219q0 -122 -14 -188q-18 -80 -78 -232q25 125 39 174l10 156l-10 86 q-4 37 -39 39q-8 0 -31.5 -2t-40.5 -2q-53 0 -307 -129q0 332 25 516q-10 -12 -11 -8v-2q0 10 -8 2q4 0 2 8q-6 -2 -20 0q-129 14 -172 -217q-10 -63 -19 -164l-2 -61q-2 -27 -4 -35l19 -2zM104 872l256 248l103 -153l145 -148l-205 148l-43 65zM307 522l156 13 q-14 33 -45 92q-25 45 -70 67q-41 -127 -41 -172z" />
<glyph unicode="&#xeb;" horiz-adv-x="692" d="M-10 496q41 14 248 32q27 78 43 111q25 61 55 106q12 4 24 5q84 0 160 -250q-158 -4 -221 -68q-20 -55 -23 -145q-2 -76 -2 -152q-4 -55 -20 -119q96 49 221 134q61 43 180 120q29 -78 29 -219q0 -122 -14 -188q-18 -80 -78 -232q25 125 39 174l10 156l-10 86 q-4 37 -39 39q-8 0 -31.5 -2t-40.5 -2q-53 0 -307 -129q0 332 25 516q-10 -12 -11 -8v-2q0 10 -8 2q4 0 2 8q-6 -2 -20 0q-129 14 -172 -217q-10 -63 -19 -164l-2 -61q-2 -27 -4 -35l19 -2zM211 897q-1 47 108 100q-8 -29 -29.5 -92t-29.5 -92q-49 49 -49 84zM307 522 l156 13q-14 33 -45 92q-25 45 -70 67q-41 -127 -41 -172zM399 883q0 47 109 100q-10 -29 -30.5 -92.5t-28.5 -91.5q-49 49 -50 84z" />
<glyph unicode="&#xec;" d="M-55 1034q20 -18 136 -150t138 -153q-78 106 -104 187q-14 43 -27 86q-22 38 -143 30zM20 18q57 43 93 150l-13 281q-14 -4 -31.5 -29t-27.5 -25v123q35 16 125 60q0 -184 3 -396.5t3 -255.5q0 -154 -13.5 -222.5t-58.5 -160.5q14 80 15 150q0 178 -95 325z" />
<glyph unicode="&#xed;" d="M0 770q80 106 106 186q12 43 25 86q22 39 143 31q-20 -18 -135.5 -150t-138.5 -153zM20 18q57 43 93 150l-13 281q-14 -4 -31.5 -29t-27.5 -25v123q35 16 125 60q0 -184 3 -396.5t3 -255.5q0 -154 -13.5 -222.5t-58.5 -160.5q14 80 15 150q0 178 -95 325z" />
<glyph unicode="&#xee;" d="M-129 702l256 248l102 -153l146 -148l-205 148l-43 65zM20 18q57 43 93 150l-13 281q-14 -4 -31.5 -29t-27.5 -25v123q35 16 125 60q0 -184 3 -396.5t3 -255.5q0 -154 -13.5 -222.5t-58.5 -160.5q14 80 15 150q0 178 -95 325z" />
<glyph unicode="&#xef;" horiz-adv-x="301" d="M-12 778q-1 46 108 101q-8 -29 -28.5 -92.5t-30.5 -92.5q-49 49 -49 84zM20 18q57 43 93 150l-13 281q-14 -4 -31.5 -29t-27.5 -25v123q35 16 125 60q0 -184 3 -396.5t3 -255.5q0 -154 -13.5 -222.5t-58.5 -160.5q14 80 15 150q0 178 -95 325zM176 764q0 45 109 100 q-8 -29 -30 -92t-30 -92q-49 49 -49 84z" />
<glyph unicode="&#xf0;" horiz-adv-x="618" d="M0 109q0 115 94 292q102 195 215 232l64 -10q47 53 47 135q0 33 -11.5 108.5t-11.5 118.5q0 63 21 119l227 248q-51 -102 -102 -205q-66 -137 -78 -211q-12 -92 -18.5 -273.5t-10.5 -197.5q-16 -115 -20 -129q-10 -41 -39 -55q-80 -84 -187 -175q-125 -102 -157 -100 q-33 33 -33 103zM51 76q106 70 217 186q123 133 123 203q0 41 -34.5 66.5t-73.5 25.5q-109 -117 -158 -209q-63 -119 -74 -272zM158 891l499 -68l-477 8z" />
<glyph unicode="&#xf1;" horiz-adv-x="587" d="M-68 758l269 254q6 -29 99 -81t132 -50t215 131l-198 -240q18 123 -209 131q-106 4 -308 -145zM4 532q72 39 217 103q14 -29 25 -107q12 -102 24 -145q144 156 279 252q0 33 4 -74.5t4 -310.5q0 -287 -12 -746q-35 137 -70 277q-43 172 -96 201q35 43 92 139 q20 53 25 153q4 141 14 213q-193 -45 -260 -208q-43 -109 -47 -338q-4 -254 -25 -336q-16 98 -33 198q-29 117 -129 197q76 8 113 63q23 37 41 114t35 97l-21 263q-76 -45 -123 -191q-16 4 -57 186z" />
<glyph unicode="&#xf2;" horiz-adv-x="487" d="M4 203q0 121 59 243q86 174 250 175q41 0 72 -21q13 -8 64 -57q4 -6 4 -31q0 -176 -58 -348q-82 -252 -239 -252q-152 0 -152 291zM55 188q0 -184 115 -200q84 55 157.5 184t73.5 209q0 37 -14 95.5t-14 64.5q-180 -16 -264 -152q-53 -90 -54 -201zM78 1085 q20 -18 136 -150t138 -153q-80 106 -106 187q-12 43 -25 86q-22 38 -143 30z" />
<glyph unicode="&#xf3;" horiz-adv-x="487" d="M4 203q0 121 59 243q86 174 250 175q41 0 72 -21q13 -8 64 -57q4 -6 4 -31q0 -176 -58 -348q-82 -252 -239 -252q-152 0 -152 291zM55 188q0 -184 115 -200q84 55 157.5 184t73.5 209q0 37 -14 95.5t-14 64.5q-180 -16 -264 -152q-53 -90 -54 -201zM166 764 q80 106 106 186q12 43 25 86q22 39 143 31q-20 -18 -136 -150.5t-138 -152.5z" />
<glyph unicode="&#xf4;" horiz-adv-x="487" d="M0 840l256 247l102 -153l146 -148l-205 148l-43 65zM4 203q0 121 59 243q86 174 250 175q41 0 72 -21q13 -8 64 -57q4 -6 4 -31q0 -176 -58 -348q-82 -252 -239 -252q-152 0 -152 291zM55 188q0 -184 115 -200q84 55 157.5 184t73.5 209q0 37 -14 95.5t-14 64.5 q-180 -16 -264 -152q-53 -90 -54 -201z" />
<glyph unicode="&#xf5;" horiz-adv-x="487" d="M-68 758l269 254q6 -29 99 -81t132 -50t215 131l-198 -240q18 123 -209 131q-106 4 -308 -145zM4 203q0 121 59 243q86 174 250 175q41 0 72 -21q13 -8 64 -57q4 -6 4 -31q0 -176 -58 -348q-82 -252 -239 -252q-152 0 -152 291zM55 188q0 -184 115 -200q84 55 157.5 184 t73.5 209q0 37 -14 95.5t-14 64.5q-180 -16 -264 -152q-53 -90 -54 -201z" />
<glyph unicode="&#xf6;" horiz-adv-x="487" d="M4 203q0 121 59 243q86 174 250 175q41 0 72 -21q13 -8 64 -57q4 -6 4 -31q0 -176 -58 -348q-82 -252 -239 -252q-152 0 -152 291zM55 188q0 -184 115 -200q84 55 157.5 184t73.5 209q0 37 -14 95.5t-14 64.5q-180 -16 -264 -152q-53 -90 -54 -201zM94 778q0 48 109 101 q-8 -29 -29.5 -92.5t-30.5 -92.5q-49 49 -49 84zM283 764q-1 47 108 100q-10 -29 -30.5 -92t-28.5 -92q-49 49 -49 84z" />
<glyph unicode="&#xf8;" horiz-adv-x="487" d="M-57 -63l571 716v-125zM4 203q0 121 59 243q86 174 250 175q41 0 72 -21q13 -8 64 -57q4 -6 4 -31q0 -176 -58 -348q-82 -252 -239 -252q-152 0 -152 291zM55 188q0 -184 115 -200q84 55 157.5 184t73.5 209q0 37 -14 95.5t-14 64.5q-180 -16 -264 -152q-53 -90 -54 -201 z" />
<glyph unicode="&#xf9;" horiz-adv-x="778" d="M-25 510q45 27 84 53q92 63 144 115q68 -37 73 -207q8 -236 43 -338q285 285 328 576q29 -68 29 -547q0 -23 100 -150q-45 -61 -131 -401q-14 127 -29 389q-14 274 -28 408q-72 -137 -168 -265q-119 -156 -168 -143q-23 6 -23 72q0 29 8.5 127t8.5 157q0 147 -39 238 q-37 -18 -70 -53q-80 -80 -127 -215q-6 72 -35 184zM176 1163q20 -18 136 -150t139 -153q-80 106 -107 187q-12 43 -25 86q-22 38 -143 30z" />
<glyph unicode="&#xfa;" horiz-adv-x="778" d="M-25 510q45 27 84 53q92 63 144 115q68 -37 73 -207q8 -236 43 -338q285 285 328 576q29 -68 29 -547q0 -23 100 -150q-45 -61 -131 -401q-14 127 -29 389q-14 274 -28 408q-72 -137 -168 -265q-119 -156 -168 -143q-23 6 -23 72q0 29 8.5 127t8.5 157q0 147 -39 238 q-37 -18 -70 -53q-80 -80 -127 -215q-6 72 -35 184zM399 831q78 106 105 187q12 41 26 84q23 41 144 33q-23 -20 -138.5 -152.5t-136.5 -151.5z" />
<glyph unicode="&#xfb;" horiz-adv-x="778" d="M-25 510q45 27 84 53q92 63 144 115q68 -37 73 -207q8 -236 43 -338q285 285 328 576q29 -68 29 -547q0 -23 100 -150q-45 -61 -131 -401q-14 127 -29 389q-14 274 -28 408q-72 -137 -168 -265q-119 -156 -168 -143q-23 6 -23 72q0 29 8.5 127t8.5 157q0 147 -39 238 q-37 -18 -70 -53q-80 -80 -127 -215q-6 72 -35 184zM104 872l256 248l103 -153l145 -148l-205 148l-43 65z" />
<glyph unicode="&#xfc;" horiz-adv-x="778" d="M-25 510q45 27 84 53q92 63 144 115q68 -37 73 -207q8 -236 43 -338q285 285 328 576q29 -68 29 -547q0 -23 100 -150q-45 -61 -131 -401q-14 127 -29 389q-14 274 -28 408q-72 -137 -168 -265q-119 -156 -168 -143q-23 6 -23 72q0 29 8.5 127t8.5 157q0 147 -39 238 q-37 -18 -70 -53q-80 -80 -127 -215q-6 72 -35 184zM254 815q-1 47 108 100q-8 -29 -29.5 -92t-29.5 -92q-49 49 -49 84zM442 801q0 47 109 100q-10 -29 -30.5 -92.5t-28.5 -91.5q-49 49 -50 84z" />
<glyph unicode="&#xfe;" horiz-adv-x="1191" d="M90 -604q0 18 49 98t51 117q18 268 19 342q0 213 -47 389q4 6 47 18q35 8 35 43q0 14 -6 37q-2 68 -2 150q0 195 10 348q12 166 28 166q31 0 64 -506q41 -18 166 -18q86 0 236.5 9t168.5 9q84 0 160 -20q109 -29 109 -86q0 -49 -195 -168q-174 -106 -274 -142 q-145 -49 -267 -123q-31 -20 -73 -112q-33 -70 -64 -140l2 252q88 55 288 126t273 118q129 78 150 197q-90 61 -227 61q-145 0 -472 -108q-66 -281 -69 -469q-4 -276 -12 -465q-4 -145 -5 -150q0 -168 54 -534q-41 250 -131 469q-16 18 -35 34q-31 31 -31 58z" />
<glyph unicode="&#xff;" horiz-adv-x="559" d="M-49 430q25 12 80 64q63 57 96 79q12 -70 33.5 -218t34.5 -218q180 242 299 484q0 -57 8 -230q6 -145 6 -233q0 -223 -37 -379q-14 -53 -94 -152q-94 -115 -123 -174q-51 -102 -74 -284q-18 -172 -35 -343q0 219 -55 779q221 -4 297 141q51 98 51 332v53v53q0 133 13 207 q-102 -133 -310 -391q4 211 -65 436q-14 -23 -72 -160q0 20 -26.5 77t-26.5 77zM150 868q-1 48 108 101q-8 -29 -29.5 -92.5t-29.5 -92.5q-49 49 -49 84zM338 854q-1 47 108 100q-10 -29 -30.5 -92t-28.5 -92q-49 49 -49 84z" />
<glyph unicode="&#x152;" horiz-adv-x="1306" d="M20 489q0 68 41 248q51 236 127 383q100 199 226 199q143 0 215 -154q51 -111 51 -250q0 -4 41 -4q33 0 149.5 4.5t169.5 4.5q109 0 107 -15q-123 -4 -217 -16q-227 -27 -268 -84q-49 -291 -138 -504q-121 -301 -270 -301q-141 0 -203 240q-31 129 -31 249zM127 500 q0 -119 33 -244q45 -170 127 -170q152 0 243 365q64 253 64 411q0 373 -137 373q-88 0 -174 -178q-63 -133 -115 -340q-41 -168 -41 -217zM190 -2l97 82q479 145 1085 385q-8 -76 -16 -369t-21 -411q-2 20 -8 278q-4 137 -43 193q-53 72 -197 71q-143 0 -457.5 -113.5 t-439.5 -115.5zM254 1137q0 137 264 215q258 63 516 125v-193q-12 0 -82 70q-225 -18 -299 -33q-266 -49 -327 -156q4 -4 8 -4t25.5 38t54.5 38z" />
<glyph unicode="&#x153;" horiz-adv-x="778" d="M4 203q0 121 59 243q86 174 250 175q41 0 72 -21q12 -8 61 -55l9 18q25 59 55 107q12 2 25 2q86 0 161 -248q-160 -4 -223 -68q-20 -57 -22 -145q0 -76 -2 -152q-2 -55 -21 -118q98 47 221 133q61 43 182 121q27 -78 27 -220q0 -125 -14 -188q-16 -80 -78 -231 q27 125 39 174l10 155l-10 86q-4 37 -37 39q-8 0 -32.5 -2t-41.5 -2q-51 0 -307 -129q0 125 -8 240q-82 -205 -223 -205q-152 0 -152 291zM55 188q0 -184 115 -200q119 80 199 266q-2 74 28 166q-4 27 -14 74q-10 39 -10 47q-180 -16 -264 -152q-53 -90 -54 -201zM487 438 l154 13q-14 33 -43 92q-27 45 -72 67q-39 -127 -39 -172z" />
<glyph unicode="&#x178;" horiz-adv-x="724" d="M0 991q0 16 98 148q111 147 140 202q6 -197 38 -641q154 273 441 762q-18 -238 -37 -473q-27 -287 -76 -469q-16 -68 -96 -241q-86 -190 -113 -275q-29 -92 -49 -539q-39 186 -94 654q182 94 272 323q61 160 88 430q31 324 41 363q-63 -35 -192 -297q-143 -295 -236 -393 q-4 215 -30 624q-31 -57 -68 -235q-39 -188 -66 -248q4 31 5 59q0 84 -33 164t-33 82zM264 1552q0 48 109 101q-8 -29 -29.5 -92.5t-30.5 -92.5q-49 49 -49 84zM453 1538q-1 47 108 100q-10 -29 -30.5 -92t-28.5 -92q-49 49 -49 84z" />
<glyph unicode="&#x2000;" horiz-adv-x="938" />
<glyph unicode="&#x2001;" horiz-adv-x="1876" />
<glyph unicode="&#x2002;" horiz-adv-x="938" />
<glyph unicode="&#x2003;" horiz-adv-x="1876" />
<glyph unicode="&#x2004;" horiz-adv-x="625" />
<glyph unicode="&#x2005;" horiz-adv-x="469" />
<glyph unicode="&#x2006;" horiz-adv-x="312" />
<glyph unicode="&#x2007;" horiz-adv-x="312" />
<glyph unicode="&#x2008;" horiz-adv-x="234" />
<glyph unicode="&#x2009;" horiz-adv-x="375" />
<glyph unicode="&#x200a;" horiz-adv-x="104" />
<glyph unicode="&#x2010;" horiz-adv-x="1148" d="M20 727q182 0 395.5 3t256.5 3q154 0 222.5 -13.5t160.5 -60.5q-80 14 -150 15q-178 0 -327 -92q-41 57 -148 92l-280 -12q4 -14 28.5 -33t24.5 -27h-125q-14 35 -58 125z" />
<glyph unicode="&#x2011;" horiz-adv-x="1148" d="M20 727q182 0 395.5 3t256.5 3q154 0 222.5 -13.5t160.5 -60.5q-80 14 -150 15q-178 0 -327 -92q-41 57 -148 92l-280 -12q4 -14 28.5 -33t24.5 -27h-125q-14 35 -58 125z" />
<glyph unicode="&#x2012;" horiz-adv-x="1148" d="M20 727q182 0 395.5 3t256.5 3q154 0 222.5 -13.5t160.5 -60.5q-80 14 -150 15q-178 0 -327 -92q-41 57 -148 92l-280 -12q4 -14 28.5 -33t24.5 -27h-125q-14 35 -58 125z" />
<glyph unicode="&#x2013;" horiz-adv-x="1137" d="M20 727q180 0 391.5 3t253.5 3q152 0 220 -13.5t159 -60.5q-79 14 -148 15q-177 0 -324 -92q-40 57 -146 92l-277 -12q4 -14 28 -33t24 -27h-124q-13 35 -57 125z" />
<glyph unicode="&#x2014;" horiz-adv-x="2161" d="M20 727q360 0 782.5 3t507.5 3q305 0 440.5 -13.5t317.5 -60.5q-158 14 -297 15q-352 0 -647 -92q-81 57 -293 92l-554 -12q8 -14 56.5 -33t48.5 -27h-247q-28 35 -115 125z" />
<glyph unicode="&#x2018;" horiz-adv-x="172" d="M20 1260q-10 -46 86 -101q-2 29 0.5 201t-0.5 201q-14 -131 -47 -215q-20 -43 -39 -86z" />
<glyph unicode="&#x2019;" horiz-adv-x="200" d="M43 1477q0 47 109 100q-10 -29 -44 -201t-42 -200q6 63 6 114q0 70 -14.5 124t-14.5 63z" />
<glyph unicode="&#x201c;" horiz-adv-x="430" d="M20 1260q-10 -46 86 -101q-2 29 0.5 201t-0.5 201q-14 -131 -47 -215q-20 -43 -39 -86zM223 1276q-8 -45 88 -100q-4 29 0 200q2 172 -2 201q-12 -131 -47 -215q-18 -43 -39 -86z" />
<glyph unicode="&#x201d;" horiz-adv-x="430" d="M43 1477q0 47 109 100q-10 -29 -44 -201t-42 -200q6 63 6 114q0 70 -14.5 124t-14.5 63zM244 1460q-1 48 108 101q-10 -29 -44 -201t-42 -201q6 63 6 115q0 70 -14 124t-14 62z" />
<glyph unicode="&#x2022;" horiz-adv-x="487" d="M53 600q0 -184 117 -201q82 55 155.5 183.5t73.5 210.5q0 35 -14 93t-14 66q-180 -16 -262 -153q-55 -90 -56 -199z" />
<glyph unicode="&#x202f;" horiz-adv-x="375" />
<glyph unicode="&#x205f;" horiz-adv-x="469" />
<glyph unicode="&#x2122;" horiz-adv-x="909" d="M0 1440q156 45 313 88q186 55 291 141q-8 -49 -24 -104q-23 -4 -277 -84q-6 -248 -31 -695h-16q0 84 -43 240q0 14 16 33l4 4q8 8 9 14q18 297 12 391q-51 -8 -100 -16q-39 -12 -80 -66q-16 -23 -37 -169l-17 2q0 119 3 96q-4 63 -23 125zM319 1067q25 0 35 2 q80 94 125 209q25 68 68 233q2 6 16 21q10 8 39 37q0 -166 8 -262l2 -2q51 117 88 180q31 39 88 117q12 18 86 38q-66 -109 -86 -190q-16 -61 -16 -170q0 -193 45 -328q6 -20 43 -71q-14 -39 -33 -193h-16q-2 88 -43 263t-41 266q0 61 33 274q-82 -84 -164 -338 q-16 166 -29 238q-41 -94 -82 -189q-49 -109 -100 -180q-12 -20 -25 -162q-2 -35 -24 -121q0 37 -17 328z" />
<glyph unicode="&#x25fc;" horiz-adv-x="675" d="M0 0v676h676v-676h-676z" />
</font>
</defs>
</svg>
